SplineFontDB: 3.2
FontName: InconsolataDov
FullName: InconsolataDov
FamilyName: InconsolataDov
Weight: Medium
Copyright: Created by Raph Levien using his own tools and FontForge. Copyright 2006 Raph Levien. Released under the SIL Open Font License, http://scripts.sil.org/OFL.
Version: 001.010
ItalicAngle: 0
UnderlinePosition: -100
UnderlineWidth: 50
Ascent: 820
Descent: 180
InvalidEm: 0
sfntRevision: 0x0001028f
LayerCount: 2
Layer: 0 1 "Back" 1
Layer: 1 1 "Fore" 0
XUID: [1021 478 146653008 6552238]
FSType: 8
OS2Version: 1
OS2_WeightWidthSlopeOnly: 0
OS2_UseTypoMetrics: 1
CreationTime: 1161020814
ModificationTime: 1635104632
PfmFamily: 17
TTFWeight: 500
TTFWidth: 5
LineGap: 200
VLineGap: 0
Panose: 2 11 6 9 3 0 3 0 0 0
OS2TypoAscent: 0
OS2TypoAOffset: 1
OS2TypoDescent: 0
OS2TypoDOffset: 1
OS2TypoLinegap: 0
OS2WinAscent: 0
OS2WinAOffset: 1
OS2WinDescent: 1
OS2WinDOffset: 1
HheadAscent: 0
HheadAOffset: 1
HheadDescent: -1
HheadDOffset: 1
OS2SubXSize: 650
OS2SubYSize: 700
OS2SubXOff: 0
OS2SubYOff: 140
OS2SupXSize: 650
OS2SupYSize: 700
OS2SupXOff: 0
OS2SupYOff: 480
OS2StrikeYSize: 49
OS2StrikeYPos: 258
OS2Vendor: 'PfEd'
OS2CodePages: 00000013.00000000
OS2UnicodeRanges: 8000002f.0000016b.00000000.00000000
MarkAttachClasses: 1
DEI: 91125
ShortTable: maxp 16
  1
  0
  296
  85
  5
  91
  4
  2
  0
  1
  1
  0
  64
  0
  3
  3
EndShort
LangName: 1033
GaspTable: 1 65535 2 0
Encoding: UnicodeFull
Compacted: 1
UnicodeInterp: none
NameList: Adobe Glyph List
DisplaySize: -36
AntiAlias: 1
FitToEm: 1
WinInfo: 209 19 11
BeginPrivate: 0
EndPrivate
BeginChars: 1114122 401

StartChar: exclam
Encoding: 33 33 4
Width: 600
GlyphClass: 2
Flags: W
LayerCount: 2
Fore
SplineSet
356 55.5 m 128,-1,1
 356 27 356 27 336 7 c 128,-1,2
 316 -13 316 -13 287.5 -13 c 128,-1,3
 259 -13 259 -13 239 7 c 128,-1,4
 219 27 219 27 219 55.5 c 128,-1,5
 219 84 219 84 239 104 c 128,-1,6
 259 124 259 124 287.5 124 c 128,-1,7
 316 124 316 124 336 104 c 128,-1,0
 356 84 356 84 356 55.5 c 128,-1,1
289 774 m 0,8,9
 307 774 307 774 322.5 761.5 c 128,-1,10
 338 749 338 749 344 724 c 0,11,12
 349 707 349 707 349 677 c 0,13,14
 349 652 349 652 344 605 c 128,-1,15
 339 558 339 558 338 545 c 2,16,-1
 317 225 l 1,17,-1
 259 225 l 1,18,-1
 242 545 l 2,19,20
 240 584 240 584 235.5 626 c 128,-1,21
 231 668 231 668 231 687 c 0,22,23
 231 718 231 718 238 737 c 1,24,25
 254 774 254 774 289 774 c 0,8,9
EndSplineSet
Validated: 1
EndChar

StartChar: numbersign
Encoding: 35 35 6
Width: 600
GlyphClass: 2
Flags: W
LayerCount: 2
Fore
SplineSet
211 723 m 1,0,-1
 281 726 l 1,1,-1
 257 527 l 1,2,-1
 385 529 l 1,3,-1
 407 717 l 1,4,-1
 479 720 l 1,5,-1
 456 530 l 1,6,-1
 561 531 l 1,7,-1
 555 475 l 1,8,-1
 449 474 l 1,9,-1
 425 279 l 1,10,-1
 540 281 l 1,11,-1
 534 227 l 1,12,-1
 419 225 l 1,13,-1
 393 16 l 1,14,-1
 323 12 l 1,15,-1
 348 224 l 1,16,-1
 220 222 l 1,17,-1
 195 16 l 1,18,-1
 127 13 l 1,19,-1
 152 221 l 1,20,-1
 39 219 l 1,21,-1
 44 272 l 1,22,-1
 158 274 l 1,23,-1
 181 471 l 1,24,-1
 55 470 l 1,25,-1
 59 525 l 1,26,-1
 188 527 l 1,27,-1
 211 723 l 1,0,-1
250 472 m 1,28,-1
 226 275 l 1,29,-1
 355 278 l 1,30,-1
 378 473 l 1,31,-1
 250 472 l 1,28,-1
EndSplineSet
Validated: 1
EndChar

StartChar: dollar
Encoding: 36 36 7
Width: 600
GlyphClass: 2
Flags: W
LayerCount: 2
Fore
SplineSet
282 754 m 1,0,-1
 357 754 l 1,1,2
 358 752 358 752 358 750 c 0,3,4
 358 746 358 746 354 741 c 128,-1,5
 350 736 350 736 350 730 c 2,6,-1
 350 686 l 1,7,8
 457 675 457 675 522 597 c 1,9,-1
 472 534 l 1,10,11
 467 535 467 535 466 542 c 0,12,13
 465 551 465 551 465 552 c 0,14,15
 464 554 464 554 460 559 c 0,16,17
 421 607 421 607 350 617 c 1,18,-1
 350 394 l 1,19,20
 402 377 402 377 427 366 c 0,21,22
 543 316 543 316 543 210 c 0,23,24
 543 142 543 142 493 86.5 c 128,-1,25
 443 31 443 31 350 19 c 1,26,-1
 350 -54 l 1,27,-1
 282 -54 l 1,28,-1
 282 17 l 1,29,30
 157 24 157 24 79 109 c 1,31,-1
 129 178 l 1,32,33
 135 175 135 175 134 167 c 0,34,35
 134 159 134 159 138 154 c 0,36,37
 195 93 195 93 282 83 c 1,38,-1
 282 338 l 1,39,40
 245 350 245 350 218 363 c 0,41,42
 173 385 173 385 145.5 414.5 c 128,-1,43
 118 444 118 444 110 468 c 128,-1,44
 102 492 102 492 102 517 c 0,45,46
 102 580 102 580 152 627 c 128,-1,47
 202 674 202 674 282 685 c 1,48,-1
 282 754 l 1,0,-1
350 317 m 1,49,-1
 350 86 l 1,50,51
 404 96 404 96 435.5 130 c 128,-1,52
 467 164 467 164 467 205 c 0,53,54
 467 262 467 262 410 294 c 0,55,56
 391 304 391 304 350 317 c 1,49,-1
282 418 m 1,57,-1
 282 619 l 1,58,59
 231 613 231 613 204.5 586.5 c 128,-1,60
 178 560 178 560 178 527 c 0,61,62
 178 473 178 473 241 437 c 0,63,64
 258 428 258 428 282 418 c 1,57,-1
EndSplineSet
Validated: 1
EndChar

StartChar: percent
Encoding: 37 37 8
Width: 600
GlyphClass: 2
Flags: W
LayerCount: 2
Fore
SplineSet
463 722 m 1,0,-1
 541 722 l 1,1,-1
 137 0 l 1,2,-1
 63 0 l 1,3,-1
 463 722 l 1,0,-1
172 735 m 0,4,5
 226 735 226 735 264 691.5 c 128,-1,6
 302 648 302 648 302 582 c 0,7,8
 302 518 302 518 264 475 c 128,-1,9
 226 432 226 432 173 432 c 0,10,11
 119 432 119 432 81 475.5 c 128,-1,12
 43 519 43 519 43 583 c 0,13,14
 43 649 43 649 81 692 c 128,-1,15
 119 735 119 735 172 735 c 0,4,5
170 674 m 256,16,17
 148 674 148 674 130.5 654 c 128,-1,18
 113 634 113 634 113 587 c 0,19,20
 113 535 113 535 131.5 514.5 c 128,-1,21
 150 494 150 494 172 494 c 128,-1,22
 194 494 194 494 211.5 514 c 128,-1,23
 229 534 229 534 229 579 c 0,24,25
 229 633 229 633 210.5 653.5 c 128,-1,26
 192 674 192 674 170 674 c 256,16,17
569 139 m 0,27,28
 569 74 569 74 531 31 c 128,-1,29
 493 -12 493 -12 439.5 -12 c 128,-1,30
 386 -12 386 -12 348 31 c 128,-1,31
 310 74 310 74 310 138 c 0,32,33
 310 203 310 203 348 246 c 128,-1,34
 386 289 386 289 439.5 289 c 128,-1,35
 493 289 493 289 531 246 c 128,-1,36
 569 203 569 203 569 139 c 0,27,28
439 229 m 128,-1,38
 416 229 416 229 397.5 207.5 c 128,-1,39
 379 186 379 186 379 138 c 0,40,41
 379 91 379 91 397.5 69 c 128,-1,42
 416 47 416 47 440 47 c 0,43,44
 463 47 463 47 481.5 68 c 128,-1,45
 500 89 500 89 500 136 c 0,46,47
 500 186 500 186 481 207.5 c 128,-1,37
 462 229 462 229 439 229 c 128,-1,38
EndSplineSet
Validated: 1
EndChar

StartChar: ampersand
Encoding: 38 38 9
Width: 600
GlyphClass: 2
Flags: W
LayerCount: 2
Fore
SplineSet
275 729 m 256,0,1
 341 729 341 729 385.5 685 c 128,-1,2
 430 641 430 641 430 575 c 0,3,4
 430 518 430 518 396 465.5 c 128,-1,5
 362 413 362 413 305 382 c 1,6,-1
 435 201 l 1,7,8
 471 242 471 242 487 294 c 0,9,10
 489 299 489 299 489 303 c 0,11,12
 489 305 489 305 488 310 c 128,-1,13
 487 315 487 315 487 317 c 0,14,15
 487 324 487 324 492 329 c 1,16,-1
 567 277 l 1,17,18
 528 206 528 206 479 142 c 1,19,-1
 560 37 l 1,20,-1
 492 -14 l 1,21,-1
 428 88 l 1,22,23
 392 43 392 43 340.5 15.5 c 128,-1,24
 289 -12 289 -12 233 -12 c 0,25,26
 155 -12 155 -12 103.5 40 c 128,-1,27
 52 92 52 92 52 169 c 0,28,29
 52 237 52 237 91.5 299 c 128,-1,30
 131 361 131 361 198 397 c 1,31,32
 116 496 116 496 116 577 c 0,33,34
 116 642 116 642 162.5 685.5 c 128,-1,35
 209 729 209 729 275 729 c 256,0,1
196 576 m 0,36,37
 196 520 196 520 266 432 c 1,38,39
 306 454 306 454 330 491.5 c 128,-1,40
 354 529 354 529 354 569 c 256,41,42
 354 609 354 609 330.5 634.5 c 128,-1,43
 307 660 307 660 274 660 c 0,44,45
 242 660 242 660 219 636.5 c 128,-1,46
 196 613 196 613 196 576 c 0,36,37
238 343 m 1,47,48
 192 313 192 313 165.5 268 c 128,-1,49
 139 223 139 223 139 177 c 0,50,51
 139 128 139 128 169.5 95.5 c 128,-1,52
 200 63 200 63 245 63 c 0,53,54
 267 63 267 63 289.5 71 c 128,-1,55
 312 79 312 79 328.5 91 c 128,-1,56
 345 103 345 103 358.5 115 c 128,-1,57
 372 127 372 127 379 135 c 128,-1,58
 386 143 386 143 386 143 c 1,59,-1
 238 343 l 1,47,48
EndSplineSet
Validated: 1
EndChar

StartChar: quotesingle
Encoding: 39 39 10
Width: 600
GlyphClass: 2
Flags: W
LayerCount: 2
Fore
SplineSet
380 701 m 0,0,1
 380 660 380 660 341 554 c 2,2,-1
 313 477 l 1,3,-1
 249 493 l 1,4,-1
 274 571 l 2,5,6
 285 606 285 606 285 635 c 0,7,8
 285 648 285 648 281.5 672 c 128,-1,9
 278 696 278 696 278 709 c 0,10,11
 278 740 278 740 293 756 c 128,-1,12
 308 772 308 772 328 772 c 256,13,14
 348 772 348 772 364 754.5 c 128,-1,15
 380 737 380 737 380 701 c 0,0,1
EndSplineSet
Validated: 1
EndChar

StartChar: parenleft
Encoding: 40 40 11
Width: 600
GlyphClass: 2
Flags: W
LayerCount: 2
Fore
SplineSet
464 772 m 1,0,-1
 499 701 l 1,1,2
 495 699 495 699 490 699 c 0,3,4
 487 699 487 699 483 699.5 c 128,-1,5
 479 700 479 700 477 700 c 0,6,7
 473 700 473 700 467 696 c 0,8,9
 366 637 366 637 308.5 532.5 c 128,-1,10
 251 428 251 428 251 303 c 0,11,12
 251 167 251 167 318 48 c 128,-1,13
 385 -71 385 -71 503 -139 c 1,14,-1
 465 -200 l 1,15,16
 328 -128 328 -128 249.5 6.5 c 128,-1,17
 171 141 171 141 171 299.5 c 128,-1,18
 171 458 171 458 250 585.5 c 128,-1,19
 329 713 329 713 464 772 c 1,0,-1
EndSplineSet
Validated: 1
EndChar

StartChar: parenright
Encoding: 41 41 12
Width: 600
GlyphClass: 2
Flags: W
LayerCount: 2
Fore
SplineSet
100 699 m 1,0,-1
 122 771 l 1,1,2
 263 706 263 706 347.5 575.5 c 128,-1,3
 432 445 432 445 432 290 c 0,4,5
 432 134 432 134 346 0.5 c 128,-1,6
 260 -133 260 -133 116 -202 c 1,7,-1
 94 -132 l 1,8,9
 212 -70 212 -70 281 43 c 128,-1,10
 350 156 350 156 350 287 c 0,11,12
 350 416 350 416 282.5 527 c 128,-1,13
 215 638 215 638 100 699 c 1,0,-1
EndSplineSet
Validated: 1
EndChar

StartChar: asterisk
Encoding: 42 42 13
Width: 600
GlyphClass: 2
Flags: W
LayerCount: 2
Fore
SplineSet
257 601 m 1,0,-1
 351 601 l 1,1,2
 350 595 350 595 347.5 586.5 c 128,-1,3
 345 578 345 578 344 570 c 2,4,-1
 326 396 l 1,5,-1
 510 480 l 1,6,-1
 541 409 l 1,7,-1
 342 349 l 1,8,-1
 488 174 l 1,9,-1
 425 124 l 1,10,-1
 300 316 l 1,11,-1
 170 123 l 1,12,-1
 107 174 l 1,13,-1
 258 348 l 1,14,-1
 58 409 l 1,15,-1
 88 484 l 1,16,-1
 275 396 l 1,17,-1
 257 601 l 1,0,-1
EndSplineSet
Validated: 1
EndChar

StartChar: plus
Encoding: 43 43 14
Width: 600
GlyphClass: 2
Flags: W
LayerCount: 2
Fore
SplineSet
267 606 m 1,0,-1
 340 606 l 1,1,-1
 340 408 l 1,2,-1
 538 408 l 1,3,-1
 538 337 l 1,4,-1
 340 337 l 1,5,-1
 340 120 l 1,6,-1
 267 120 l 1,7,-1
 267 337 l 1,8,-1
 62 337 l 1,9,-1
 62 408 l 1,10,-1
 267 408 l 1,11,-1
 267 606 l 1,0,-1
EndSplineSet
Validated: 1
EndChar

StartChar: comma
Encoding: 44 44 15
Width: 600
GlyphClass: 2
Flags: W
LayerCount: 2
Fore
SplineSet
364 23 m 0,0,1
 364 -70 364 -70 241 -195 c 1,2,-1
 201 -160 l 1,3,4
 234 -130 234 -130 259 -88 c 0,5,6
 276 -60 276 -60 276 -40 c 0,7,8
 276 -16 276 -16 249 2 c 0,9,10
 217 23 217 23 217 53 c 0,11,12
 217 80 217 80 236.5 99.5 c 128,-1,13
 256 119 256 119 284 119 c 0,14,15
 316 119 316 119 340 92.5 c 128,-1,16
 364 66 364 66 364 23 c 0,0,1
EndSplineSet
Validated: 1
EndChar

StartChar: hyphen
Encoding: 45 45 16
Width: 600
GlyphClass: 2
Flags: W
LayerCount: 2
Fore
SplineSet
92 403 m 5,0,-1
 509 403 l 5,1,-1
 509 326 l 5,2,-1
 92 326 l 5,3,-1
 92 403 l 5,0,-1
EndSplineSet
Validated: 1
EndChar

StartChar: period
Encoding: 46 46 17
Width: 600
GlyphClass: 2
Flags: W
LayerCount: 2
Fore
SplineSet
355 53.5 m 128,-1,1
 355 26 355 26 335 6.5 c 128,-1,2
 315 -13 315 -13 286.5 -13 c 128,-1,3
 258 -13 258 -13 238 6.5 c 128,-1,4
 218 26 218 26 218 53.5 c 128,-1,5
 218 81 218 81 238 100.5 c 128,-1,6
 258 120 258 120 286.5 120 c 128,-1,7
 315 120 315 120 335 100.5 c 128,-1,0
 355 81 355 81 355 53.5 c 128,-1,1
EndSplineSet
Validated: 1
EndChar

StartChar: slash
Encoding: 47 47 18
Width: 600
GlyphClass: 2
Flags: W
LayerCount: 2
Fore
SplineSet
84 -15 m 1,0,-1
 447 770 l 1,1,-1
 516 735 l 1,2,-1
 152 -49 l 1,3,-1
 84 -15 l 1,0,-1
EndSplineSet
Validated: 1
EndChar

StartChar: zero
Encoding: 48 48 19
Width: 600
GlyphClass: 2
Flags: W
LayerCount: 2
Fore
SplineSet
301 727 m 256,0,1
 344 727 344 727 384.5 702 c 128,-1,2
 425 677 425 677 458 631 c 128,-1,3
 491 585 491 585 511 511.5 c 128,-1,4
 531 438 531 438 531 349 c 128,-1,5
 531 260 531 260 510.5 188.5 c 128,-1,6
 490 117 490 117 456 74.5 c 128,-1,7
 422 32 422 32 382.5 9.5 c 128,-1,8
 343 -13 343 -13 303 -13 c 0,9,10
 259 -13 259 -13 217.5 12 c 128,-1,11
 176 37 176 37 142.5 83 c 128,-1,12
 109 129 109 129 88.5 200 c 128,-1,13
 68 271 68 271 68 355 c 256,14,15
 68 439 68 439 88.5 510.5 c 128,-1,16
 109 582 109 582 142 628.5 c 128,-1,17
 175 675 175 675 216.5 701 c 128,-1,18
 258 727 258 727 301 727 c 256,0,1
414 562 m 1,19,20
 392 608 392 608 361.5 632 c 128,-1,21
 331 656 331 656 300 656 c 0,22,23
 241 656 241 656 192.5 577.5 c 128,-1,24
 144 499 144 499 144 369 c 0,25,26
 144 296 144 296 160 233 c 1,27,-1
 414 562 l 1,19,20
441 485 m 1,28,-1
 187 159 l 1,29,30
 210 112 210 112 241.5 86.5 c 128,-1,31
 273 61 273 61 305 61 c 0,32,33
 331 61 331 61 356 76.5 c 128,-1,34
 381 92 381 92 404 123.5 c 128,-1,35
 427 155 427 155 441.5 211 c 128,-1,36
 456 267 456 267 456 339 c 0,37,38
 456 420 456 420 441 485 c 1,28,-1
EndSplineSet
Validated: 1
EndChar

StartChar: one
Encoding: 49 49 20
Width: 600
GlyphClass: 2
Flags: W
LayerCount: 2
Fore
SplineSet
357 723 m 1,0,-1
 357 -1 l 1,1,-1
 276 -1 l 1,2,-1
 276 622 l 1,3,-1
 131 579 l 1,4,-1
 112 624 l 1,5,-1
 301 723 l 1,6,-1
 357 723 l 1,0,-1
EndSplineSet
Validated: 1
EndChar

StartChar: two
Encoding: 50 50 21
Width: 600
GlyphClass: 2
Flags: W
LayerCount: 2
Fore
SplineSet
100 610 m 1,0,1
 132 664 132 664 186 695.5 c 128,-1,2
 240 727 240 727 302 727 c 0,3,4
 390 727 390 727 451 668 c 128,-1,5
 512 609 512 609 512 524 c 0,6,7
 512 487 512 487 500.5 453 c 128,-1,8
 489 419 489 419 467 389 c 128,-1,9
 445 359 445 359 427.5 340 c 128,-1,10
 410 321 410 321 385 297 c 0,11,12
 381 293 381 293 361.5 275 c 128,-1,13
 342 257 342 257 333 248.5 c 128,-1,14
 324 240 324 240 305 221 c 128,-1,15
 286 202 286 202 273.5 187.5 c 128,-1,16
 261 173 261 173 245 153.5 c 128,-1,17
 229 134 229 134 214.5 113.5 c 128,-1,18
 200 93 200 93 188 71 c 1,19,-1
 491 71 l 2,20,21
 498 71 498 71 503 76 c 0,22,23
 512 83 512 83 519 81 c 1,24,-1
 519 0 l 1,25,-1
 95 0 l 1,26,-1
 95 51 l 1,27,28
 138 135 138 135 187.5 197 c 128,-1,29
 237 259 237 259 305 320 c 0,30,31
 330 342 330 342 339.5 351 c 128,-1,32
 349 360 349 360 371 384 c 128,-1,33
 393 408 393 408 403 425 c 128,-1,34
 413 442 413 442 422 467.5 c 128,-1,35
 431 493 431 493 431 518 c 0,36,37
 431 576 431 576 391 615.5 c 128,-1,38
 351 655 351 655 293 655 c 0,39,40
 250 655 250 655 217.5 635 c 128,-1,41
 185 615 185 615 169 590 c 0,42,43
 166 585 166 585 164.5 576.5 c 128,-1,44
 163 568 163 568 159 563 c 1,45,-1
 100 610 l 1,0,1
EndSplineSet
Validated: 1
EndChar

StartChar: three
Encoding: 51 51 22
Width: 600
GlyphClass: 2
Flags: W
LayerCount: 2
Fore
SplineSet
486 541 m 0,0,1
 486 489 486 489 456.5 446 c 128,-1,2
 427 403 427 403 378 385 c 1,3,4
 434 364 434 364 468 313.5 c 128,-1,5
 502 263 502 263 502 199 c 0,6,7
 502 111 502 111 441 49.5 c 128,-1,8
 380 -12 380 -12 280 -12 c 0,9,10
 225 -12 225 -12 175.5 9 c 128,-1,11
 126 30 126 30 90 70 c 1,12,-1
 151 143 l 1,13,14
 156 138 156 138 158.5 127 c 128,-1,15
 161 116 161 116 166 110 c 0,16,17
 172 103 172 103 182.5 94.5 c 128,-1,18
 193 86 193 86 221 73.5 c 128,-1,19
 249 61 249 61 279 61 c 0,20,21
 341 61 341 61 382.5 104.5 c 128,-1,22
 424 148 424 148 424 208 c 0,23,24
 424 272 424 272 377 309 c 128,-1,25
 330 346 330 346 255 346 c 0,26,27
 236 346 236 346 218 343 c 1,28,-1
 218 408 l 1,29,30
 291 408 291 408 332 426 c 0,31,32
 368 442 368 442 388.5 473.5 c 128,-1,33
 409 505 409 505 409 540 c 0,34,35
 409 587 409 587 373.5 619.5 c 128,-1,36
 338 652 338 652 284 652 c 0,37,38
 211 652 211 652 159 597 c 1,39,-1
 114 647 l 1,40,41
 148 684 148 684 193.5 704 c 128,-1,42
 239 724 239 724 287 724 c 0,43,44
 372 724 372 724 429 670 c 128,-1,45
 486 616 486 616 486 541 c 0,0,1
EndSplineSet
Validated: 1
EndChar

StartChar: four
Encoding: 52 52 23
Width: 600
GlyphClass: 2
Flags: W
LayerCount: 2
Fore
SplineSet
373 723 m 1,0,-1
 441 723 l 1,1,-1
 441 271 l 1,2,-1
 534 271 l 1,3,-1
 534 199 l 1,4,-1
 441 199 l 1,5,-1
 441 0 l 1,6,-1
 357 0 l 1,7,-1
 357 200 l 1,8,-1
 66 200 l 1,9,-1
 66 260 l 1,10,-1
 373 723 l 1,0,-1
358 594 m 1,11,-1
 146 271 l 1,12,-1
 358 271 l 1,13,-1
 358 594 l 1,11,-1
EndSplineSet
Validated: 1
EndChar

StartChar: five
Encoding: 53 53 24
Width: 600
GlyphClass: 2
Flags: W
LayerCount: 2
Fore
SplineSet
133 722 m 1,0,-1
 499 722 l 1,1,-1
 499 649 l 1,2,-1
 201 649 l 1,3,-1
 190 441 l 1,4,5
 246 469 246 469 308 469 c 0,6,7
 402 469 402 469 464 405 c 128,-1,8
 526 341 526 341 526 228 c 256,9,10
 526 115 526 115 461 51 c 128,-1,11
 396 -13 396 -13 298 -13 c 0,12,13
 233 -13 233 -13 176.5 16 c 128,-1,14
 120 45 120 45 84 98 c 1,15,-1
 156 152 l 1,16,17
 162 148 162 148 162.5 138 c 128,-1,18
 163 128 163 128 165 125 c 0,19,20
 168 118 168 118 182.5 104 c 128,-1,21
 197 90 197 90 229.5 74 c 128,-1,22
 262 58 262 58 297 58 c 0,23,24
 358 58 358 58 400.5 104 c 128,-1,25
 443 150 443 150 443 230 c 0,26,27
 443 312 443 312 400 357 c 128,-1,28
 357 402 357 402 295 402 c 0,29,30
 258 402 258 402 222 384 c 128,-1,31
 186 366 186 366 160 334 c 1,32,-1
 108 355 l 1,33,-1
 133 722 l 1,0,-1
EndSplineSet
Validated: 1
EndChar

StartChar: six
Encoding: 54 54 25
Width: 600
GlyphClass: 2
Flags: W
LayerCount: 2
Fore
SplineSet
343 730 m 0,0,1
 434 730 434 730 501 664 c 1,2,-1
 445 602 l 1,3,4
 439 606 439 606 434.5 615.5 c 128,-1,5
 430 625 430 625 428 628 c 0,6,7
 424 632 424 632 415 638 c 128,-1,8
 406 644 406 644 385.5 651 c 128,-1,9
 365 658 365 658 343 658 c 0,10,11
 324 658 324 658 305 653 c 128,-1,12
 286 648 286 648 260.5 630.5 c 128,-1,13
 235 613 235 613 216 584.5 c 128,-1,14
 197 556 197 556 183 502.5 c 128,-1,15
 169 449 169 449 168 379 c 1,16,17
 192 420 192 420 233 443 c 128,-1,18
 274 466 274 466 321 466 c 0,19,20
 402 466 402 466 460.5 401.5 c 128,-1,21
 519 337 519 337 519 229 c 128,-1,22
 519 121 519 121 458.5 54.5 c 128,-1,23
 398 -12 398 -12 313 -12 c 0,24,25
 264 -12 264 -12 218.5 12.5 c 128,-1,26
 173 37 173 37 142 84 c 0,27,28
 88 166 88 166 88 329 c 0,29,30
 88 463 88 463 119 551 c 0,31,32
 150 640 150 640 211.5 685 c 128,-1,33
 273 730 273 730 343 730 c 0,0,1
313 395 m 0,34,35
 273 395 273 395 234.5 368.5 c 128,-1,36
 196 342 196 342 172 298 c 1,37,38
 165 198 165 198 207.5 129 c 128,-1,39
 250 60 250 60 316 60 c 0,40,41
 367 60 367 60 403.5 103 c 128,-1,42
 440 146 440 146 440 225 c 0,43,44
 440 311 440 311 402 353 c 128,-1,45
 364 395 364 395 313 395 c 0,34,35
EndSplineSet
Validated: 33
EndChar

StartChar: seven
Encoding: 55 55 26
Width: 600
GlyphClass: 2
Flags: W
LayerCount: 2
Fore
SplineSet
101 722 m 1,0,-1
 510 722 l 1,1,-1
 510 677 l 1,2,3
 437 509 437 509 373 338 c 0,4,5
 311 171 311 171 258 0 c 1,6,-1
 167 0 l 1,7,8
 231 195 231 195 305 386 c 0,9,10
 355 516 355 516 410 645 c 1,11,-1
 101 645 l 1,12,-1
 101 722 l 1,0,-1
EndSplineSet
Validated: 1
EndChar

StartChar: eight
Encoding: 56 56 27
Width: 600
GlyphClass: 2
Flags: W
LayerCount: 2
Fore
SplineSet
309 731 m 0,0,1
 388 731 388 731 442.5 681.5 c 128,-1,2
 497 632 497 632 497 560 c 0,3,4
 497 508 497 508 466 461 c 128,-1,5
 435 414 435 414 382 386 c 1,6,7
 444 357 444 357 482.5 303 c 128,-1,8
 521 249 521 249 521 186 c 0,9,10
 521 103 521 103 457.5 45.5 c 128,-1,11
 394 -12 394 -12 299 -12 c 0,12,13
 206 -12 206 -12 143 44 c 128,-1,14
 80 100 80 100 80 182 c 0,15,16
 80 243 80 243 119.5 298 c 128,-1,17
 159 353 159 353 224 384 c 1,18,19
 174 409 174 409 144 455 c 128,-1,20
 114 501 114 501 114 553 c 0,21,22
 114 627 114 627 170.5 679 c 128,-1,23
 227 731 227 731 309 731 c 0,0,1
285 351 m 1,24,25
 232 329 232 329 197.5 285.5 c 128,-1,26
 163 242 163 242 163 192 c 0,27,28
 163 138 163 138 203.5 99.5 c 128,-1,29
 244 61 244 61 303 61 c 0,30,31
 360 61 360 61 399.5 98 c 128,-1,32
 439 135 439 135 439 187.5 c 128,-1,33
 439 240 439 240 397 284.5 c 128,-1,34
 355 329 355 329 285 351 c 1,24,25
303 663 m 0,35,36
 256 663 256 663 224 633 c 128,-1,37
 192 603 192 603 192 560 c 0,38,39
 192 541 192 541 199 522 c 128,-1,40
 206 503 206 503 217 489 c 128,-1,41
 228 475 228 475 241.5 462.5 c 128,-1,42
 255 450 255 450 269 441.5 c 128,-1,43
 283 433 283 433 294 427 c 128,-1,44
 305 421 305 421 312 418 c 2,45,-1
 319 415 l 1,46,47
 363 438 363 438 390.5 476 c 128,-1,48
 418 514 418 514 418 555 c 0,49,50
 418 600 418 600 384.5 631.5 c 128,-1,51
 351 663 351 663 303 663 c 0,35,36
EndSplineSet
Validated: 1
EndChar

StartChar: nine
Encoding: 57 57 28
Width: 600
GlyphClass: 2
Flags: W
LayerCount: 2
Fore
SplineSet
262 -12 m 0,0,1
 169 -12 169 -12 102 54 c 1,2,-1
 158 116 l 1,3,4
 165 112 165 112 168.5 102 c 128,-1,5
 172 92 172 92 177 88 c 0,6,7
 180 85 180 85 188 80.5 c 128,-1,8
 196 76 196 76 218.5 69 c 128,-1,9
 241 62 241 62 264 62 c 0,10,11
 307 62 307 62 346 86 c 128,-1,12
 385 110 385 110 407 161 c 1,13,14
 432 222 432 222 436 340 c 1,15,16
 411 303 411 303 371.5 282.5 c 128,-1,17
 332 262 332 262 287 262 c 0,18,19
 206 262 206 262 147.5 325.5 c 128,-1,20
 89 389 89 389 89 490 c 0,21,22
 89 593 89 593 149.5 661 c 128,-1,23
 210 729 210 729 296 729 c 0,24,25
 357 729 357 729 411 689.5 c 128,-1,26
 465 650 465 650 492 572 c 0,27,28
 517 499 517 499 517 370 c 0,29,30
 517 238 517 238 486 156 c 0,31,32
 454 73 454 73 393 30.5 c 128,-1,33
 332 -12 332 -12 262 -12 c 0,0,1
295 333 m 0,34,35
 334 333 334 333 371 357 c 128,-1,36
 408 381 408 381 432 421 c 1,37,38
 441 526 441 526 399.5 591.5 c 128,-1,39
 358 657 358 657 294 657 c 0,40,41
 242 657 242 657 205 613 c 128,-1,42
 168 569 168 569 168 493 c 256,43,44
 168 417 168 417 205.5 375 c 128,-1,45
 243 333 243 333 295 333 c 0,34,35
EndSplineSet
Validated: 33
EndChar

StartChar: less
Encoding: 60 60 31
Width: 600
GlyphClass: 2
Flags: W
LayerCount: 2
Fore
SplineSet
541 575 m 5,0,-1
 541 657 l 5,1,-1
 50 399 l 1,2,-1
 50 343 l 1,3,-1
 544 55 l 5,4,-1
 544 142 l 5,5,-1
 139 370 l 1,6,-1
 541 575 l 5,0,-1
EndSplineSet
Validated: 9
EndChar

StartChar: question
Encoding: 63 63 34
Width: 600
GlyphClass: 2
Flags: W
LayerCount: 2
Fore
SplineSet
381 51.5 m 128,-1,1
 381 24 381 24 361 4.5 c 128,-1,2
 341 -15 341 -15 312.5 -15 c 128,-1,3
 284 -15 284 -15 264 4.5 c 128,-1,4
 244 24 244 24 244 51.5 c 128,-1,5
 244 79 244 79 264 98.5 c 128,-1,6
 284 118 284 118 312.5 118 c 128,-1,7
 341 118 341 118 361 98.5 c 128,-1,0
 381 79 381 79 381 51.5 c 128,-1,1
84 650 m 1,8,9
 121 707 121 707 181 739 c 128,-1,10
 241 771 241 771 307 771 c 0,11,12
 402 771 402 771 457.5 711.5 c 128,-1,13
 513 652 513 652 513 567 c 0,14,15
 513 541 513 541 507 517.5 c 128,-1,16
 501 494 501 494 492.5 478 c 128,-1,17
 484 462 484 462 469.5 445 c 128,-1,18
 455 428 455 428 445.5 419.5 c 128,-1,19
 436 411 436 411 419.5 397.5 c 128,-1,20
 403 384 403 384 398 380 c 0,21,22
 366 351 366 351 357 325 c 128,-1,23
 348 299 348 299 348 262 c 2,24,-1
 348 214 l 1,25,-1
 272 214 l 1,26,-1
 272 262 l 2,27,28
 272 309 272 309 281.5 341 c 128,-1,29
 291 373 291 373 326 411 c 0,30,31
 331 416 331 416 349 434.5 c 128,-1,32
 367 453 367 453 376 463.5 c 128,-1,33
 385 474 385 474 397.5 493 c 128,-1,34
 410 512 410 512 416 531.5 c 128,-1,35
 422 551 422 551 422 573 c 0,36,37
 422 624 422 624 386.5 659.5 c 128,-1,38
 351 695 351 695 300 695 c 0,39,40
 256 695 256 695 213 668 c 128,-1,41
 170 641 170 641 143 595 c 1,42,-1
 84 650 l 1,8,9
EndSplineSet
Validated: 1
EndChar

StartChar: at
Encoding: 64 64 35
Width: 600
GlyphClass: 2
Flags: W
LayerCount: 2
Fore
SplineSet
514 35 m 1,0,1
 440 -13 440 -13 352 -13 c 0,2,3
 307 -13 307 -13 264.5 0 c 128,-1,4
 222 13 222 13 182 42.5 c 128,-1,5
 142 72 142 72 112 114.5 c 128,-1,6
 82 157 82 157 64 221.5 c 128,-1,7
 46 286 46 286 46 364 c 0,8,9
 46 440 46 440 63 503 c 128,-1,10
 80 566 80 566 107.5 607.5 c 128,-1,11
 135 649 135 649 171.5 678 c 128,-1,12
 208 707 208 707 246.5 720 c 128,-1,13
 285 733 285 733 324 733 c 0,14,15
 389 733 389 733 442.5 699 c 128,-1,16
 496 665 496 665 523 605 c 0,17,18
 535 579 535 579 541 547.5 c 128,-1,19
 547 516 547 516 548 494.5 c 128,-1,20
 549 473 549 473 549 438 c 2,21,-1
 549 203 l 1,22,-1
 479 203 l 1,23,-1
 479 247 l 1,24,25
 434 193 434 193 363 193 c 0,26,27
 301 193 301 193 257 237 c 128,-1,28
 213 281 213 281 213 344 c 0,29,30
 213 392 213 392 241.5 434 c 128,-1,31
 270 476 270 476 323 497 c 0,32,33
 369 515 369 515 459 515 c 2,34,-1
 476 515 l 1,35,36
 476 580 476 580 431 625.5 c 128,-1,37
 386 671 386 671 321 671 c 0,38,39
 282 671 282 671 246 652.5 c 128,-1,40
 210 634 210 634 179.5 598 c 128,-1,41
 149 562 149 562 131 502 c 128,-1,42
 113 442 113 442 113 367 c 0,43,44
 113 286 113 286 135 223.5 c 128,-1,45
 157 161 157 161 194 125 c 128,-1,46
 231 89 231 89 272.5 71 c 128,-1,47
 314 53 314 53 358 53 c 0,48,49
 427 53 427 53 483 91 c 1,50,-1
 514 35 l 1,0,1
479 457 m 1,51,-1
 460 457 l 2,52,53
 432 457 432 457 415.5 456 c 128,-1,54
 399 455 399 455 374 448.5 c 128,-1,55
 349 442 349 442 331 430 c 0,56,57
 285 398 285 398 285 347 c 0,58,59
 285 310 285 310 311.5 283.5 c 128,-1,60
 338 257 338 257 377 257 c 0,61,62
 403 257 403 257 426 270.5 c 128,-1,63
 449 284 449 284 462 310 c 0,64,65
 470 326 470 326 474 350 c 128,-1,66
 478 374 478 374 478.5 387.5 c 128,-1,67
 479 401 479 401 479 435 c 2,68,-1
 479 457 l 1,51,-1
EndSplineSet
Validated: 1
EndChar

StartChar: A
Encoding: 65 65 36
Width: 600
GlyphClass: 2
Flags: W
LayerCount: 2
Fore
SplineSet
27 -1 m 1,0,-1
 282 735 l 1,1,-1
 291 735 l 1,2,-1
 570 0 l 1,3,-1
 486 0 l 1,4,-1
 406 211 l 1,5,-1
 177 211 l 1,6,-1
 107 -1 l 1,7,-1
 27 -1 l 1,0,-1
388 274 m 1,8,-1
 286 549 l 1,9,-1
 193 274 l 1,10,-1
 388 274 l 1,8,-1
EndSplineSet
Validated: 1
EndChar

StartChar: B
Encoding: 66 66 37
Width: 600
GlyphClass: 2
Flags: W
LayerCount: 2
Fore
SplineSet
66 722 m 1,0,-1
 271 722 l 2,1,2
 360 722 360 722 406 702 c 0,3,4
 456 680 456 680 483.5 637.5 c 128,-1,5
 511 595 511 595 511 546 c 0,6,7
 511 494 511 494 482 450.5 c 128,-1,8
 453 407 453 407 404 387 c 1,9,10
 465 367 465 367 502 315 c 128,-1,11
 539 263 539 263 539 200 c 0,12,13
 539 143 539 143 507.5 94.5 c 128,-1,14
 476 46 476 46 419 22 c 0,15,16
 367 0 367 0 270 0 c 2,17,-1
 66 0 l 1,18,-1
 66 722 l 1,0,-1
146 653 m 1,19,-1
 146 423 l 1,20,-1
 259 423 l 2,21,22
 325 423 325 423 359 438 c 0,23,24
 392 452 392 452 410.5 479 c 128,-1,25
 429 506 429 506 429 538 c 256,26,27
 429 570 429 570 410 598 c 128,-1,28
 391 626 391 626 356 640 c 0,29,30
 324 653 324 653 260 653 c 2,31,-1
 146 653 l 1,19,-1
146 355 m 1,32,-1
 146 71 l 1,33,-1
 284 71 l 2,34,35
 345 71 345 71 377 86 c 1,36,37
 414 102 414 102 434 135 c 128,-1,38
 454 168 454 168 454 208 c 256,39,40
 454 248 454 248 432.5 283.5 c 128,-1,41
 411 319 411 319 372 337 c 0,42,43
 335 355 335 355 264 355 c 2,44,-1
 146 355 l 1,32,-1
EndSplineSet
Validated: 1
EndChar

StartChar: C
Encoding: 67 67 38
Width: 600
GlyphClass: 2
Flags: W
LayerCount: 2
Fore
SplineSet
332 728 m 0,0,1
 404 728 404 728 464 689 c 128,-1,2
 524 650 524 650 553 585 c 1,3,-1
 476 547 l 1,4,5
 471 551 471 551 471 558 c 0,6,7
 471 560 471 560 471 563 c 128,-1,8
 471 566 471 566 471 567 c 0,9,10
 471 572 471 572 467 579 c 0,11,12
 445 618 445 618 408 640.5 c 128,-1,13
 371 663 371 663 329 663 c 0,14,15
 248 663 248 663 192 582.5 c 128,-1,16
 136 502 136 502 136 364 c 0,17,18
 136 223 136 223 194 140.5 c 128,-1,19
 252 58 252 58 336 58 c 0,20,21
 379 58 379 58 418.5 81.5 c 128,-1,22
 458 105 458 105 483 146 c 1,23,-1
 543 107 l 1,24,25
 509 52 509 52 452.5 20 c 128,-1,26
 396 -12 396 -12 331 -12 c 0,27,28
 293 -12 293 -12 256.5 -1 c 128,-1,29
 220 10 220 10 183.5 37.5 c 128,-1,30
 147 65 147 65 119 106 c 128,-1,31
 91 147 91 147 74 211.5 c 128,-1,32
 57 276 57 276 57 357 c 0,33,34
 57 440 57 440 75 506 c 128,-1,35
 93 572 93 572 121 612.5 c 128,-1,36
 149 653 149 653 186.5 680 c 128,-1,37
 224 707 224 707 259.5 717.5 c 128,-1,38
 295 728 295 728 332 728 c 0,0,1
EndSplineSet
Validated: 1
EndChar

StartChar: D
Encoding: 68 68 39
Width: 600
GlyphClass: 2
Flags: W
LayerCount: 2
Fore
SplineSet
72 722 m 1,0,-1
 241 722 l 2,1,2
 296 722 296 722 334.5 714.5 c 128,-1,3
 373 707 373 707 409 683 c 0,4,5
 476 640 476 640 509.5 555.5 c 128,-1,6
 543 471 543 471 543 362 c 0,7,8
 543 243 543 243 501.5 155.5 c 128,-1,9
 460 68 460 68 383 28 c 0,10,11
 348 10 348 10 313 4.5 c 128,-1,12
 278 -1 278 -1 227 -1 c 2,13,-1
 72 -1 l 1,14,-1
 72 722 l 1,0,-1
149 653 m 1,15,-1
 149 63 l 1,16,-1
 223 63 l 2,17,18
 266 63 266 63 296.5 69 c 128,-1,19
 327 75 327 75 358 96 c 0,20,21
 461 165 461 165 461 351 c 0,22,23
 461 539 461 539 372 613 c 0,24,25
 342 638 342 638 310.5 645.5 c 128,-1,26
 279 653 279 653 236 653 c 2,27,-1
 149 653 l 1,15,-1
EndSplineSet
Validated: 1
EndChar

StartChar: E
Encoding: 69 69 40
Width: 600
GlyphClass: 2
Flags: W
LayerCount: 2
Fore
SplineSet
78 723 m 1,0,-1
 521 723 l 1,1,-1
 521 651 l 1,2,-1
 155 651 l 1,3,-1
 155 414 l 1,4,-1
 457 414 l 1,5,-1
 457 340 l 1,6,-1
 155 340 l 1,7,-1
 155 72 l 1,8,-1
 518 72 l 1,9,-1
 518 0 l 1,10,-1
 78 0 l 1,11,-1
 78 723 l 1,0,-1
EndSplineSet
Validated: 1
EndChar

StartChar: F
Encoding: 70 70 41
Width: 600
GlyphClass: 2
Flags: W
LayerCount: 2
Fore
SplineSet
100 723 m 1,0,-1
 516 723 l 1,1,-1
 516 652 l 1,2,-1
 182 652 l 1,3,-1
 182 425 l 1,4,-1
 452 425 l 1,5,-1
 452 355 l 1,6,-1
 182 355 l 1,7,-1
 182 0 l 1,8,-1
 100 0 l 1,9,-1
 100 723 l 1,0,-1
EndSplineSet
Validated: 1
EndChar

StartChar: G
Encoding: 71 71 42
Width: 600
GlyphClass: 2
Flags: W
LayerCount: 2
Fore
SplineSet
331 729 m 0,0,1
 398 729 398 729 454 696.5 c 128,-1,2
 510 664 510 664 541 608 c 1,3,-1
 484 550 l 1,4,5
 477 555 477 555 469 573 c 0,6,7
 451 610 451 610 414.5 634 c 128,-1,8
 378 658 378 658 331 658 c 0,9,10
 283 658 283 658 239 631.5 c 128,-1,11
 195 605 195 605 168 555 c 0,12,13
 132 486 132 486 132 369 c 0,14,15
 132 202 132 202 201 123 c 0,16,17
 256 60 256 60 338 60 c 0,18,19
 406 60 406 60 468 104 c 1,20,-1
 468 276 l 1,21,-1
 337 276 l 1,22,-1
 337 346 l 1,23,-1
 543 346 l 1,24,-1
 543 64 l 1,25,26
 441 -11 441 -11 331 -11 c 0,27,28
 291 -11 291 -11 253.5 0 c 128,-1,29
 216 11 216 11 178.5 38.5 c 128,-1,30
 141 66 141 66 113.5 106 c 128,-1,31
 86 146 86 146 69 209.5 c 128,-1,32
 52 273 52 273 52 352 c 0,33,34
 52 443 52 443 72 513 c 128,-1,35
 92 583 92 583 122 622.5 c 128,-1,36
 152 662 152 662 192 687 c 128,-1,37
 232 712 232 712 265 720.5 c 128,-1,38
 298 729 298 729 331 729 c 0,0,1
EndSplineSet
Validated: 1
EndChar

StartChar: H
Encoding: 72 72 43
Width: 600
GlyphClass: 2
Flags: W
LayerCount: 2
Fore
SplineSet
73 722 m 1,0,-1
 163 722 l 1,1,2
 164 719 164 719 164 717 c 0,3,4
 164 713 164 713 160.5 707 c 128,-1,5
 157 701 157 701 157 694 c 2,6,-1
 157 413 l 1,7,-1
 440 413 l 1,8,-1
 440 722 l 1,9,-1
 528 722 l 1,10,11
 529 720 529 720 529 717 c 0,12,13
 529 713 529 713 525 707.5 c 128,-1,14
 521 702 521 702 521 696 c 2,15,-1
 521 -1 l 1,16,-1
 439 -1 l 1,17,-1
 439 344 l 1,18,-1
 157 344 l 1,19,-1
 157 0 l 1,20,-1
 73 0 l 1,21,-1
 73 722 l 1,0,-1
EndSplineSet
Validated: 1
EndChar

StartChar: I
Encoding: 73 73 44
Width: 600
GlyphClass: 2
Flags: W
LayerCount: 2
Fore
SplineSet
112 722 m 1,0,-1
 470 722 l 1,1,-1
 470 654 l 1,2,-1
 327 654 l 1,3,-1
 327 66 l 1,4,-1
 477 66 l 1,5,-1
 477 -1 l 1,6,-1
 104 -1 l 1,7,-1
 104 67 l 1,8,-1
 246 67 l 1,9,-1
 246 654 l 1,10,-1
 112 654 l 1,11,-1
 112 722 l 1,0,-1
EndSplineSet
Validated: 1
EndChar

StartChar: J
Encoding: 74 74 45
Width: 600
GlyphClass: 2
Flags: W
LayerCount: 2
Fore
SplineSet
209 722 m 1,0,-1
 539 722 l 1,1,-1
 539 654 l 1,2,-1
 428 654 l 1,3,-1
 428 242 l 2,4,5
 428 208 428 208 427 187.5 c 128,-1,6
 426 167 426 167 419.5 137 c 128,-1,7
 413 107 413 107 400 83 c 0,8,9
 375 37 375 37 331.5 12 c 128,-1,10
 288 -13 288 -13 235 -13 c 0,11,12
 187 -13 187 -13 143 8 c 128,-1,13
 99 29 99 29 67 67 c 1,14,-1
 121 133 l 1,15,16
 125 130 125 130 125.5 122.5 c 128,-1,17
 126 115 126 115 128 112 c 0,18,19
 132 107 132 107 143.5 96.5 c 128,-1,20
 155 86 155 86 182.5 72.5 c 128,-1,21
 210 59 210 59 237 59 c 0,22,23
 291 59 291 59 322 105 c 0,24,25
 335 123 335 123 341 150 c 128,-1,26
 347 177 347 177 347.5 192.5 c 128,-1,27
 348 208 348 208 348 241 c 2,28,-1
 348 654 l 1,29,-1
 209 654 l 1,30,-1
 209 722 l 1,0,-1
EndSplineSet
Validated: 1
EndChar

StartChar: K
Encoding: 75 75 46
Width: 600
GlyphClass: 2
Flags: W
LayerCount: 2
Fore
SplineSet
59 723 m 1,0,-1
 156 723 l 1,1,2
 157 716 157 716 149 706 c 0,3,4
 145 701 145 701 145 693 c 2,5,-1
 145 389 l 1,6,-1
 447 728 l 1,7,8
 471 722 471 722 507 722 c 2,9,-1
 537 722 l 1,10,-1
 264 410 l 1,11,-1
 556 -1 l 1,12,13
 453 -1 453 -1 453 -5 c 1,14,-1
 202 361 l 1,15,-1
 145 299 l 1,16,-1
 145 0 l 1,17,-1
 59 0 l 1,18,-1
 59 723 l 1,0,-1
EndSplineSet
Validated: 1
EndChar

StartChar: L
Encoding: 76 76 47
Width: 600
GlyphClass: 2
Flags: W
LayerCount: 2
Fore
SplineSet
87 722 m 1,0,-1
 181 722 l 1,1,2
 182 714 182 714 177 704 c 0,3,4
 171 692 171 692 171 683 c 2,5,-1
 171 69 l 1,6,-1
 519 69 l 1,7,-1
 519 -1 l 1,8,-1
 87 -1 l 1,9,-1
 87 722 l 1,0,-1
EndSplineSet
Validated: 1
EndChar

StartChar: M
Encoding: 77 77 48
Width: 600
GlyphClass: 2
Flags: W
LayerCount: 2
Fore
SplineSet
57 722 m 1,0,-1
 121 722 l 1,1,-1
 300 369 l 1,2,-1
 482 723 l 1,3,-1
 543 723 l 1,4,-1
 543 -1 l 1,5,-1
 466 -1 l 1,6,-1
 466 545 l 1,7,-1
 310 254 l 1,8,-1
 279 254 l 1,9,-1
 133 541 l 1,10,-1
 133 -1 l 1,11,-1
 57 -1 l 1,12,-1
 57 722 l 1,0,-1
EndSplineSet
Validated: 1
EndChar

StartChar: N
Encoding: 78 78 49
Width: 600
GlyphClass: 2
Flags: W
LayerCount: 2
Fore
SplineSet
68 0 m 1,0,-1
 68 722 l 1,1,-1
 147 722 l 1,2,-1
 450 187 l 1,3,-1
 450 723 l 1,4,-1
 536 723 l 1,5,6
 537 716 537 716 533 708 c 0,7,8
 528 699 528 699 528 692 c 2,9,-1
 528 -1 l 1,10,-1
 464 -1 l 1,11,-1
 146 568 l 1,12,-1
 146 0 l 1,13,-1
 68 0 l 1,0,-1
EndSplineSet
Validated: 1
EndChar

StartChar: O
Encoding: 79 79 50
Width: 600
GlyphClass: 2
Flags: W
LayerCount: 2
Fore
SplineSet
556 360 m 0,0,1
 556 216 556 216 513 129 c 0,2,3
 479 60 479 60 422.5 24.5 c 128,-1,4
 366 -11 366 -11 304 -11 c 0,5,6
 269 -11 269 -11 234.5 0 c 128,-1,7
 200 11 200 11 165 39 c 128,-1,8
 130 67 130 67 103.5 108 c 128,-1,9
 77 149 77 149 60.5 214.5 c 128,-1,10
 44 280 44 280 44 362 c 128,-1,11
 44 444 44 444 61 509 c 128,-1,12
 78 574 78 574 104.5 614.5 c 128,-1,13
 131 655 131 655 166 682 c 128,-1,14
 201 709 201 709 235 719.5 c 128,-1,15
 269 730 269 730 304 730 c 0,16,17
 366 730 366 730 422 695.5 c 128,-1,18
 478 661 478 661 512 594 c 0,19,20
 556 507 556 507 556 360 c 0,0,1
300 654 m 0,21,22
 270 654 270 654 240.5 639.5 c 128,-1,23
 211 625 211 625 184 594.5 c 128,-1,24
 157 564 157 564 140.5 506.5 c 128,-1,25
 124 449 124 449 124 373 c 0,26,27
 124 291 124 291 140.5 229 c 128,-1,28
 157 167 157 167 184.5 133.5 c 128,-1,29
 212 100 212 100 242 84 c 128,-1,30
 272 68 272 68 305 68 c 0,31,32
 345 68 345 68 382 92 c 128,-1,33
 419 116 419 116 443 166 c 0,34,35
 475 234 475 234 475 349 c 0,36,37
 475 470 475 470 447 540 c 0,38,39
 423 598 423 598 383 626 c 128,-1,40
 343 654 343 654 300 654 c 0,21,22
EndSplineSet
Validated: 1
EndChar

StartChar: P
Encoding: 80 80 51
Width: 600
GlyphClass: 2
Flags: W
LayerCount: 2
Fore
SplineSet
78 722 m 1,0,-1
 298 722 l 2,1,2
 327 722 327 722 345 721 c 128,-1,3
 363 720 363 720 388 714 c 128,-1,4
 413 708 413 708 435 697 c 0,5,6
 484 672 484 672 511 623.5 c 128,-1,7
 538 575 538 575 538 518.5 c 128,-1,8
 538 462 538 462 511.5 414.5 c 128,-1,9
 485 367 485 367 436 342 c 0,10,11
 390 319 390 319 304 319 c 2,12,-1
 162 319 l 1,13,-1
 162 0 l 1,14,-1
 78 0 l 1,15,-1
 78 722 l 1,0,-1
162 646 m 1,16,-1
 161 390 l 1,17,-1
 307 390 l 2,18,19
 362 390 362 390 391 405 c 0,20,21
 422 420 422 420 438.5 450 c 128,-1,22
 455 480 455 480 455 515 c 0,23,24
 455 551 455 551 437 582.5 c 128,-1,25
 419 614 419 614 387 630 c 0,26,27
 356 646 356 646 298 646 c 2,28,-1
 162 646 l 1,16,-1
EndSplineSet
Validated: 1
EndChar

StartChar: Q
Encoding: 81 81 52
Width: 600
GlyphClass: 2
Flags: W
LayerCount: 2
Fore
SplineSet
300 656 m 0,0,1
 269 656 269 656 239.5 641 c 128,-1,2
 210 626 210 626 183 595 c 128,-1,3
 156 564 156 564 139.5 507 c 128,-1,4
 123 450 123 450 123 374 c 0,5,6
 123 292 123 292 139 229.5 c 128,-1,7
 155 167 155 167 182.5 132.5 c 128,-1,8
 210 98 210 98 241 81 c 128,-1,9
 272 64 272 64 305 64 c 0,10,11
 326 64 326 64 347 70 c 128,-1,12
 368 76 368 76 392.5 95 c 128,-1,13
 417 114 417 114 435 144 c 128,-1,14
 453 174 453 174 465.5 227 c 128,-1,15
 478 280 478 280 478 348 c 0,16,17
 478 468 478 468 449 541 c 1,18,19
 424 600 424 600 383.5 628 c 128,-1,20
 343 656 343 656 300 656 c 0,0,1
556 358 m 0,21,22
 556 214 556 214 513 128 c 0,23,24
 484 70 484 70 439.5 36 c 128,-1,25
 395 2 395 2 343 -8 c 1,26,27
 344 -25 344 -25 347 -38.5 c 128,-1,28
 350 -52 350 -52 358.5 -66 c 128,-1,29
 367 -80 367 -80 384.5 -87.5 c 128,-1,30
 402 -95 402 -95 428 -95 c 0,31,32
 442 -95 442 -95 474 -92.5 c 128,-1,33
 506 -90 506 -90 522 -89 c 1,34,-1
 520 -168 l 1,35,36
 505 -168 505 -168 475 -168 c 128,-1,37
 445 -168 445 -168 432.5 -168 c 128,-1,38
 420 -168 420 -168 400.5 -166 c 128,-1,39
 381 -164 381 -164 367.5 -160.5 c 128,-1,40
 354 -157 354 -157 341 -150 c 0,41,42
 270 -115 270 -115 272 -8 c 1,43,44
 239 -3 239 -3 208 11.5 c 128,-1,45
 177 26 177 26 146.5 55.5 c 128,-1,46
 116 85 116 85 94 125.5 c 128,-1,47
 72 166 72 166 58 227 c 128,-1,48
 44 288 44 288 44 362 c 0,49,50
 44 444 44 444 61 509 c 128,-1,51
 78 574 78 574 104.5 614.5 c 128,-1,52
 131 655 131 655 166 682 c 128,-1,53
 201 709 201 709 235 719.5 c 128,-1,54
 269 730 269 730 304 730 c 0,55,56
 366 730 366 730 422.5 695 c 128,-1,57
 479 660 479 660 513 592 c 0,58,59
 556 506 556 506 556 358 c 0,21,22
EndSplineSet
Validated: 33
EndChar

StartChar: R
Encoding: 82 82 53
Width: 600
GlyphClass: 2
Flags: W
LayerCount: 2
Fore
SplineSet
75 722 m 1,0,-1
 288 722 l 2,1,2
 317 722 317 722 335.5 721 c 128,-1,3
 354 720 354 720 379.5 714.5 c 128,-1,4
 405 709 405 709 426 698 c 0,5,6
 475 673 475 673 501.5 626.5 c 128,-1,7
 528 580 528 580 528 524 c 0,8,9
 528 452 528 452 487.5 396 c 128,-1,10
 447 340 447 340 381 322 c 1,11,-1
 548 0 l 1,12,-1
 457 0 l 1,13,-1
 297 319 l 1,14,-1
 157 319 l 1,15,-1
 157 0 l 1,16,-1
 75 0 l 1,17,-1
 75 722 l 1,0,-1
157 646 m 1,18,-1
 157 390 l 1,19,-1
 297 390 l 2,20,21
 352 390 352 390 381 405 c 0,22,23
 412 420 412 420 428.5 450 c 128,-1,24
 445 480 445 480 445 515 c 0,25,26
 445 551 445 551 427 582.5 c 128,-1,27
 409 614 409 614 377 630 c 0,28,29
 346 646 346 646 288 646 c 2,30,-1
 157 646 l 1,18,-1
EndSplineSet
Validated: 1
EndChar

StartChar: S
Encoding: 83 83 54
Width: 600
GlyphClass: 2
Flags: W
LayerCount: 2
Fore
SplineSet
514 636 m 1,0,-1
 463 567 l 1,1,2
 457 569 457 569 457 576.5 c 128,-1,3
 457 584 457 584 454 588 c 0,4,5
 432 620 432 620 394 639.5 c 128,-1,6
 356 659 356 659 307 659 c 0,7,8
 248 659 248 659 212.5 628 c 128,-1,9
 177 597 177 597 177 553 c 0,10,11
 177 489 177 489 251 446 c 0,12,13
 275 431 275 431 322.5 412.5 c 128,-1,14
 370 394 370 394 412 373.5 c 128,-1,15
 454 353 454 353 481 327 c 0,16,17
 537 275 537 275 537 197 c 0,18,19
 537 160 537 160 524 125 c 128,-1,20
 511 90 511 90 483.5 58.5 c 128,-1,21
 456 27 456 27 407.5 7.5 c 128,-1,22
 359 -12 359 -12 297 -12 c 0,23,24
 155 -12 155 -12 70 81 c 1,25,-1
 118 164 l 1,26,27
 123 161 123 161 123 153 c 256,28,29
 123 145 123 145 127 141 c 0,30,31
 153 107 153 107 198.5 84 c 128,-1,32
 244 61 244 61 299 61 c 0,33,34
 373 61 373 61 415 100.5 c 128,-1,35
 457 140 457 140 457 192 c 0,36,37
 457 254 457 254 396 292 c 0,38,39
 375 305 375 305 291.5 339 c 128,-1,40
 208 373 208 373 171 400 c 0,41,42
 94 457 94 457 94 541 c 0,43,44
 94 617 94 617 156 671.5 c 128,-1,45
 218 726 218 726 314 726 c 0,46,47
 373 726 373 726 425.5 702.5 c 128,-1,48
 478 679 478 679 514 636 c 1,0,-1
EndSplineSet
Validated: 1
EndChar

StartChar: T
Encoding: 84 84 55
Width: 600
GlyphClass: 2
Flags: W
LayerCount: 2
Fore
SplineSet
46 723 m 1,0,-1
 546 723 l 1,1,-1
 546 650 l 1,2,-1
 333 650 l 1,3,-1
 333 -1 l 1,4,-1
 251 -1 l 1,5,-1
 251 650 l 1,6,-1
 46 650 l 1,7,-1
 46 723 l 1,0,-1
EndSplineSet
Validated: 1
EndChar

StartChar: U
Encoding: 85 85 56
Width: 600
GlyphClass: 2
Flags: W
LayerCount: 2
Fore
SplineSet
68 722 m 1,0,-1
 159 722 l 1,1,2
 160 719 160 719 160 716 c 0,3,4
 160 711 160 711 153 700 c 0,5,6
 148 694 148 694 148 685 c 2,7,-1
 148 248 l 2,8,9
 148 179 148 179 165 142 c 0,10,11
 184 101 184 101 221.5 78.5 c 128,-1,12
 259 56 259 56 303 56 c 256,13,14
 347 56 347 56 384 78 c 128,-1,15
 421 100 421 100 440 141 c 1,16,17
 459 179 459 179 459 251 c 2,18,-1
 459 722 l 1,19,-1
 536 722 l 1,20,-1
 536 253 l 2,21,22
 536 204 536 204 531 169 c 128,-1,23
 526 134 526 134 507 100 c 0,24,25
 477 45 477 45 422 16 c 128,-1,26
 367 -13 367 -13 301 -13 c 0,27,28
 236 -13 236 -13 180.5 16 c 128,-1,29
 125 45 125 45 96 99 c 0,30,31
 78 133 78 133 73 167 c 128,-1,32
 68 201 68 201 68 249 c 2,33,-1
 68 722 l 1,0,-1
EndSplineSet
Validated: 1
EndChar

StartChar: V
Encoding: 86 86 57
Width: 600
GlyphClass: 2
Flags: W
LayerCount: 2
Fore
SplineSet
39 723 m 1,0,-1
 124 723 l 1,1,-1
 309 168 l 1,2,-1
 484 722 l 1,3,-1
 564 722 l 1,4,-1
 322 -5 l 1,5,-1
 285 -5 l 1,6,-1
 39 723 l 1,0,-1
EndSplineSet
Validated: 1
EndChar

StartChar: W
Encoding: 87 87 58
Width: 600
GlyphClass: 2
Flags: W
LayerCount: 2
Fore
SplineSet
30 722 m 1,0,-1
 105 722 l 1,1,-1
 183 234 l 1,2,-1
 299 669 l 1,3,-1
 324 669 l 1,4,-1
 441 232 l 1,5,-1
 507 722 l 1,6,-1
 575 722 l 1,7,-1
 461 -5 l 1,8,-1
 429 -5 l 1,9,-1
 305 472 l 1,10,-1
 179 -5 l 1,11,-1
 146 -5 l 1,12,-1
 30 722 l 1,0,-1
EndSplineSet
Validated: 1
EndChar

StartChar: X
Encoding: 88 88 59
Width: 600
GlyphClass: 2
Flags: W
LayerCount: 2
Fore
SplineSet
449 723 m 1,0,-1
 530 723 l 1,1,-1
 347 370 l 1,2,-1
 552 0 l 1,3,-1
 461 0 l 1,4,-1
 300 286 l 1,5,-1
 146 0 l 1,6,-1
 57 0 l 1,7,-1
 254 368 l 1,8,-1
 61 723 l 1,9,-1
 148 723 l 1,10,-1
 300 449 l 1,11,-1
 449 723 l 1,0,-1
EndSplineSet
Validated: 1
EndChar

StartChar: Y
Encoding: 89 89 60
Width: 600
GlyphClass: 2
Flags: W
LayerCount: 2
Fore
SplineSet
43 723 m 1,0,-1
 135 723 l 1,1,-1
 312 372 l 1,2,-1
 472 722 l 1,3,-1
 558 722 l 1,4,-1
 353 285 l 1,5,-1
 353 0 l 1,6,-1
 265 0 l 1,7,-1
 265 285 l 1,8,-1
 43 723 l 1,0,-1
EndSplineSet
Validated: 1
EndChar

StartChar: Z
Encoding: 90 90 61
Width: 600
GlyphClass: 2
Flags: W
LayerCount: 2
Fore
SplineSet
82 722 m 1,0,-1
 528 722 l 1,1,-1
 527 665 l 1,2,-1
 170 71 l 1,3,-1
 511 71 l 2,4,5
 519 71 519 71 528.5 75 c 128,-1,6
 538 79 538 79 546 78 c 1,7,-1
 546 -1 l 1,8,-1
 68 -1 l 1,9,-1
 68 56 l 1,10,-1
 432 649 l 1,11,-1
 82 649 l 1,12,-1
 82 722 l 1,0,-1
EndSplineSet
Validated: 1
EndChar

StartChar: bracketleft
Encoding: 91 91 62
Width: 600
GlyphClass: 2
Flags: W
LayerCount: 2
Fore
SplineSet
162 776 m 1,0,-1
 493 776 l 1,1,-1
 493 707 l 1,2,-1
 236 707 l 1,3,-1
 236 -37 l 1,4,-1
 494 -37 l 1,5,-1
 494 -103 l 1,6,-1
 162 -103 l 1,7,-1
 162 776 l 1,0,-1
EndSplineSet
Validated: 1
EndChar

StartChar: asciicircum
Encoding: 94 94 65
Width: 600
GlyphClass: 2
Flags: W
LayerCount: 2
Fore
SplineSet
118 425 m 1,0,-1
 295 722 l 1,1,-1
 320 722 l 1,2,-1
 477 426 l 1,3,-1
 415 397 l 1,4,-1
 303 600 l 1,5,-1
 176 397 l 1,6,-1
 118 425 l 1,0,-1
EndSplineSet
Validated: 1
EndChar

StartChar: underscore
Encoding: 95 95 66
Width: 600
GlyphClass: 2
Flags: W
LayerCount: 2
Fore
SplineSet
50 -22 m 1,0,-1
 550 -22 l 1,1,-1
 550 -93 l 1,2,-1
 50 -93 l 1,3,-1
 50 -22 l 1,0,-1
EndSplineSet
Validated: 1
EndChar

StartChar: a
Encoding: 97 97 68
Width: 600
GlyphClass: 2
Flags: W
LayerCount: 2
Fore
SplineSet
115 467 m 1,0,1
 187 541 187 541 304 541 c 0,2,3
 366 541 366 541 414 518.5 c 128,-1,4
 462 496 462 496 488 453 c 0,5,6
 505 426 505 426 509.5 397 c 128,-1,7
 514 368 514 368 514 328 c 2,8,-1
 514 0 l 1,9,-1
 435 0 l 1,10,-1
 435 58 l 1,11,12
 348 -13 348 -13 245 -13 c 0,13,14
 165 -13 165 -13 116 31.5 c 128,-1,15
 67 76 67 76 67 137 c 0,16,17
 67 184 67 184 97.5 225 c 128,-1,18
 128 266 128 266 188 288 c 0,19,20
 219 300 219 300 263.5 305.5 c 128,-1,21
 308 311 308 311 334.5 311.5 c 128,-1,22
 361 312 361 312 417 312 c 2,23,-1
 434 312 l 1,24,-1
 434 331 l 2,25,26
 434 394 434 394 417 422 c 0,27,28
 386 473 386 473 308 473 c 0,29,30
 212 473 212 473 156 414 c 1,31,-1
 115 467 l 1,0,1
437 248 m 1,32,-1
 418 248 l 2,33,34
 412 248 412 248 376.5 248.5 c 128,-1,35
 341 249 341 249 326 248.5 c 128,-1,36
 311 248 311 248 286 246 c 128,-1,37
 261 244 261 244 244 240 c 0,38,39
 197 229 197 229 174 201.5 c 128,-1,40
 151 174 151 174 151 142 c 0,41,42
 151 105 151 105 181 78 c 128,-1,43
 211 51 211 51 262 51 c 0,44,45
 307 51 307 51 343.5 71 c 128,-1,46
 380 91 380 91 401 113 c 0,47,48
 418 131 418 131 426.5 151 c 128,-1,49
 435 171 435 171 436 182.5 c 128,-1,50
 437 194 437 194 437 213 c 2,51,-1
 437 248 l 1,32,-1
EndSplineSet
Validated: 33
EndChar

StartChar: b
Encoding: 98 98 69
Width: 600
GlyphClass: 2
Flags: W
LayerCount: 2
Fore
SplineSet
79 771 m 1,0,-1
 177 771 l 1,1,2
 179 764 179 764 171 758 c 0,3,4
 164 753 164 753 164 745 c 2,5,-1
 164 448 l 1,6,7
 189 492 189 492 233 517 c 128,-1,8
 277 542 277 542 327 542 c 0,9,10
 367 542 367 542 404.5 525.5 c 128,-1,11
 442 509 442 509 472.5 476.5 c 128,-1,12
 503 444 503 444 521.5 391 c 128,-1,13
 540 338 540 338 540 271 c 0,14,15
 540 202 540 202 521 146.5 c 128,-1,16
 502 91 502 91 470 57 c 128,-1,17
 438 23 438 23 399 5 c 128,-1,18
 360 -13 360 -13 319 -13 c 0,19,20
 271 -13 271 -13 229.5 9 c 128,-1,21
 188 31 188 31 162 70 c 1,22,-1
 133 0 l 1,23,-1
 79 0 l 1,24,-1
 79 771 l 1,0,-1
298 470 m 0,25,26
 258 470 258 470 225.5 449 c 128,-1,27
 193 428 193 428 178 393 c 0,28,29
 164 359 164 359 164 282 c 0,30,31
 164 202 164 202 167 177 c 0,32,33
 172 142 172 142 187.5 117 c 128,-1,34
 203 92 203 92 224 81 c 128,-1,35
 245 70 245 70 262.5 66 c 128,-1,36
 280 62 280 62 297 62 c 0,37,38
 315 62 315 62 333.5 66 c 128,-1,39
 352 70 352 70 374 83 c 128,-1,40
 396 96 396 96 413 116 c 128,-1,41
 430 136 430 136 441.5 171.5 c 128,-1,42
 453 207 453 207 453 254 c 0,43,44
 453 307 453 307 441.5 347.5 c 128,-1,45
 430 388 430 388 413 410.5 c 128,-1,46
 396 433 396 433 374 447.5 c 128,-1,47
 352 462 352 462 334 466 c 128,-1,48
 316 470 316 470 298 470 c 0,25,26
EndSplineSet
Validated: 1
EndChar

StartChar: c
Encoding: 99 99 70
Width: 600
GlyphClass: 2
Flags: W
LayerCount: 2
Fore
SplineSet
539 442 m 1,0,-1
 480 373 l 1,1,2
 475 377 475 377 474.5 387 c 128,-1,3
 474 397 474 397 472.5 400 c 128,-1,4
 471 403 471 403 466 409.5 c 128,-1,5
 461 416 461 416 449 426.5 c 128,-1,6
 437 437 437 437 422 446.5 c 128,-1,7
 407 456 407 456 384 462.5 c 128,-1,8
 361 469 361 469 336 469 c 0,9,10
 261 469 261 469 211 415.5 c 128,-1,11
 161 362 161 362 161 273 c 0,12,13
 161 181 161 181 213 122 c 128,-1,14
 265 63 265 63 343 63 c 0,15,16
 427 63 427 63 483 127 c 1,17,-1
 531 71 l 1,18,19
 493 30 493 30 442.5 8.5 c 128,-1,20
 392 -13 392 -13 336 -13 c 0,21,22
 223 -13 223 -13 149 66 c 128,-1,23
 75 145 75 145 75 264.5 c 128,-1,24
 75 384 75 384 150 462 c 128,-1,25
 225 540 225 540 341 540 c 0,26,27
 404 540 404 540 455.5 514 c 128,-1,28
 507 488 507 488 539 442 c 1,0,-1
EndSplineSet
Validated: 1
EndChar

StartChar: d
Encoding: 100 100 71
Width: 600
GlyphClass: 2
Flags: W
LayerCount: 2
Fore
SplineSet
440 452 m 1,0,-1
 440 771 l 1,1,-1
 529 771 l 1,2,3
 529 764 529 764 523 754 c 0,4,5
 518 746 518 746 518 738 c 2,6,-1
 519 49 l 2,7,8
 519 19 519 19 524 0 c 1,9,-1
 441 0 l 1,10,11
 436 15 436 15 436 39 c 2,12,-1
 436 85 l 1,13,14
 411 40 411 40 367 14 c 128,-1,15
 323 -12 323 -12 273 -12 c 0,16,17
 233 -12 233 -12 196.5 5 c 128,-1,18
 160 22 160 22 129.5 55 c 128,-1,19
 99 88 99 88 80.5 143.5 c 128,-1,20
 62 199 62 199 62 269 c 0,21,22
 62 341 62 341 82 396.5 c 128,-1,23
 102 452 102 452 135.5 482.5 c 128,-1,24
 169 513 169 513 207 528 c 128,-1,25
 245 543 245 543 285 543 c 0,26,27
 339 543 339 543 380 518.5 c 128,-1,28
 421 494 421 494 440 452 c 1,0,-1
289 475 m 0,29,30
 264 475 264 475 240 465.5 c 128,-1,31
 216 456 216 456 193.5 435.5 c 128,-1,32
 171 415 171 415 157 375.5 c 128,-1,33
 143 336 143 336 143 283 c 0,34,35
 143 221 143 221 157.5 175.5 c 128,-1,36
 172 130 172 130 195.5 106.5 c 128,-1,37
 219 83 219 83 243 72.5 c 128,-1,38
 267 62 267 62 292 62 c 0,39,40
 335 62 335 62 371 89 c 128,-1,41
 407 116 407 116 422 162 c 0,42,43
 433 197 433 197 433 259 c 0,44,45
 433 338 433 338 424 372 c 0,46,47
 410 425 410 425 370.5 450 c 128,-1,48
 331 475 331 475 289 475 c 0,29,30
EndSplineSet
Validated: 1
EndChar

StartChar: e
Encoding: 101 101 72
Width: 600
GlyphClass: 2
Flags: W
LayerCount: 2
Fore
SplineSet
310 542 m 0,0,1
 344 542 344 542 376 532.5 c 128,-1,2
 408 523 408 523 437.5 502 c 128,-1,3
 467 481 467 481 489 443 c 128,-1,4
 511 405 511 405 519 354 c 1,5,6
 528 305 528 305 523 253 c 1,7,-1
 147 253 l 1,8,9
 150 197 150 197 168 156 c 128,-1,10
 186 115 186 115 213.5 94.5 c 128,-1,11
 241 74 241 74 269 64.5 c 128,-1,12
 297 55 297 55 327 55 c 0,13,14
 411 55 411 55 464 115 c 1,15,-1
 510 70 l 1,16,17
 442 -12 442 -12 320 -12 c 0,18,19
 209 -12 209 -12 137.5 59 c 128,-1,20
 66 130 66 130 66 259 c 0,21,22
 66 329 66 329 86 384 c 128,-1,23
 106 439 106 439 140.5 473 c 128,-1,24
 175 507 175 507 218 524.5 c 128,-1,25
 261 542 261 542 310 542 c 0,0,1
150 317 m 1,26,-1
 441 317 l 1,27,28
 449 382 449 382 408.5 430 c 128,-1,29
 368 478 368 478 304 478 c 0,30,31
 281 478 281 478 258 470 c 128,-1,32
 235 462 235 462 212 444.5 c 128,-1,33
 189 427 189 427 172.5 394 c 128,-1,34
 156 361 156 361 150 317 c 1,26,-1
EndSplineSet
Validated: 33
EndChar

StartChar: f
Encoding: 102 102 73
Width: 600
GlyphClass: 2
Flags: W
LayerCount: 2
Fore
SplineSet
408 777 m 0,0,1
 510 777 510 777 570 705 c 1,2,-1
 532 628 l 1,3,4
 529 628 529 628 526 630 c 128,-1,5
 523 632 523 632 523 638 c 0,6,7
 522 648 522 648 519 651 c 0,8,9
 502 678 502 678 471 695 c 128,-1,10
 440 712 440 712 404 712 c 0,11,12
 370 712 370 712 341.5 697 c 128,-1,13
 313 682 313 682 297 653 c 0,14,15
 288 637 288 637 283.5 615 c 128,-1,16
 279 593 279 593 278.5 579.5 c 128,-1,17
 278 566 278 566 278 539 c 2,18,-1
 278 498 l 1,19,-1
 451 498 l 1,20,-1
 451 432 l 1,21,-1
 278 432 l 1,22,-1
 278 0 l 1,23,-1
 198 0 l 1,24,-1
 198 432 l 1,25,-1
 83 432 l 1,26,-1
 83 498 l 1,27,-1
 198 498 l 1,28,-1
 198 550 l 2,29,30
 198 593 198 593 203.5 624 c 128,-1,31
 209 655 209 655 227 685 c 0,32,33
 254 729 254 729 302.5 753 c 128,-1,34
 351 777 351 777 408 777 c 0,0,1
EndSplineSet
Validated: 1
EndChar

StartChar: g
Encoding: 103 103 74
Width: 600
GlyphClass: 2
Flags: W
LayerCount: 2
Fore
SplineSet
156 364 m 128,-1,1
 156 316 156 316 190 282 c 128,-1,2
 224 248 224 248 272.5 248 c 128,-1,3
 321 248 321 248 355 282 c 128,-1,4
 389 316 389 316 389 364 c 128,-1,5
 389 412 389 412 355 446.5 c 128,-1,6
 321 481 321 481 272.5 481 c 128,-1,7
 224 481 224 481 190 446.5 c 128,-1,0
 156 412 156 412 156 364 c 128,-1,1
278 547 m 0,8,9
 352 547 352 547 403 496 c 1,10,11
 467 550 467 550 550 543 c 1,12,-1
 560 475 l 1,13,14
 545 478 545 478 529 478 c 0,15,16
 480 478 480 478 437 452 c 1,17,18
 464 411 464 411 464 362 c 0,19,20
 464 289 464 289 408 235 c 128,-1,21
 352 181 352 181 273 181 c 0,22,23
 239 181 239 181 206 193 c 1,24,25
 168 162 168 162 168 134 c 0,26,27
 168 108 168 108 200 99 c 0,28,29
 225 92 225 92 276 92 c 0,30,31
 286 92 286 92 319.5 93 c 128,-1,32
 353 94 353 94 369 93.5 c 128,-1,33
 385 93 385 93 410.5 89 c 128,-1,34
 436 85 436 85 455 77 c 0,35,36
 496 61 496 61 516.5 30 c 128,-1,37
 537 -1 537 -1 537 -38 c 0,38,39
 537 -66 537 -66 524 -93 c 128,-1,40
 511 -120 511 -120 483.5 -144.5 c 128,-1,41
 456 -169 456 -169 407 -184 c 128,-1,42
 358 -199 358 -199 294 -199 c 0,43,44
 227 -199 227 -199 178.5 -188 c 128,-1,45
 130 -177 130 -177 104 -158 c 128,-1,46
 78 -139 78 -139 66 -118 c 128,-1,47
 54 -97 54 -97 54 -74 c 0,48,49
 54 -12 54 -12 141 43 c 1,50,51
 98 66 98 66 98 114 c 0,52,53
 98 165 98 165 158 216 c 1,54,55
 122 240 122 240 101 278 c 128,-1,56
 80 316 80 316 80 359 c 0,57,58
 80 436 80 436 139 491.5 c 128,-1,59
 198 547 198 547 278 547 c 0,8,9
197 28 m 1,60,61
 131 -8 131 -8 131 -54 c 0,62,63
 131 -98 131 -98 183 -119 c 0,64,65
 227 -136 227 -136 292 -136 c 0,66,67
 368 -136 368 -136 411 -113 c 0,68,69
 461 -86 461 -86 461 -43 c 0,70,71
 461 -22 461 -22 446 -4 c 128,-1,72
 431 14 431 14 398 19 c 0,73,74
 380 22 380 22 337 22 c 128,-1,75
 294 22 294 22 286 22 c 0,76,77
 230 24 230 24 197 28 c 1,60,61
EndSplineSet
Validated: 33
EndChar

StartChar: h
Encoding: 104 104 75
Width: 600
GlyphClass: 2
Flags: W
LayerCount: 2
Fore
SplineSet
91 0 m 1,0,-1
 91 770 l 1,1,-1
 187 770 l 1,2,3
 188 768 188 768 188 767 c 0,4,5
 188 762 188 762 180 754 c 0,6,7
 176 750 176 750 176 743 c 2,8,-1
 176 436 l 1,9,10
 207 483 207 483 253.5 512.5 c 128,-1,11
 300 542 300 542 352 542 c 0,12,13
 398 542 398 542 435.5 517.5 c 128,-1,14
 473 493 473 493 493 449 c 0,15,16
 512 405 512 405 512 321 c 2,17,-1
 512 0 l 1,18,-1
 430 0 l 1,19,-1
 430 319 l 2,20,21
 430 344 430 344 429 359.5 c 128,-1,22
 428 375 428 375 421 397.5 c 128,-1,23
 414 420 414 420 401 436 c 0,24,25
 373 470 373 470 329 470 c 0,26,27
 292 470 292 470 257 446 c 128,-1,28
 222 422 222 422 202 396 c 0,29,30
 176 361 176 361 176 305 c 2,31,-1
 176 0 l 1,32,-1
 91 0 l 1,0,-1
EndSplineSet
Validated: 1
EndChar

StartChar: i
Encoding: 105 105 76
Width: 600
GlyphClass: 2
Flags: W
LayerCount: 2
Fore
SplineSet
133 530 m 1,0,-1
 345 530 l 1,1,-1
 345 67 l 1,2,-1
 469 67 l 1,3,-1
 469 0 l 1,4,-1
 126 0 l 1,5,-1
 126 67 l 1,6,-1
 261 67 l 1,7,-1
 261 462 l 1,8,-1
 133 462 l 1,9,-1
 133 530 l 1,0,-1
305 760 m 128,-1,11
 330 760 330 760 347.5 742.5 c 128,-1,12
 365 725 365 725 365 700.5 c 128,-1,13
 365 676 365 676 347.5 658.5 c 128,-1,14
 330 641 330 641 305 641 c 128,-1,15
 280 641 280 641 262.5 658.5 c 128,-1,16
 245 676 245 676 245 700.5 c 128,-1,17
 245 725 245 725 262.5 742.5 c 128,-1,10
 280 760 280 760 305 760 c 128,-1,11
EndSplineSet
Validated: 1
EndChar

StartChar: j
Encoding: 106 106 77
Width: 600
GlyphClass: 2
Flags: W
LayerCount: 2
Fore
SplineSet
156 530 m 1,0,-1
 437 530 l 1,1,-1
 437 37 l 2,2,3
 437 -50 437 -50 413 -96 c 0,4,5
 387 -147 387 -147 337 -174.5 c 128,-1,6
 287 -202 287 -202 228 -202 c 0,7,8
 126 -202 126 -202 66 -128 c 1,9,-1
 120 -56 l 1,10,11
 124 -59 124 -59 126 -67 c 128,-1,12
 128 -75 128 -75 130 -77 c 0,13,14
 135 -84 135 -84 144.5 -94.5 c 128,-1,15
 154 -105 154 -105 179 -117.5 c 128,-1,16
 204 -130 204 -130 233 -130 c 0,17,18
 267 -130 267 -130 296 -112.5 c 128,-1,19
 325 -95 325 -95 339 -63 c 1,20,21
 353 -34 353 -34 353 21 c 2,22,-1
 353 461 l 1,23,-1
 156 461 l 1,24,-1
 156 530 l 1,0,-1
396 760 m 128,-1,26
 421 760 421 760 438.5 742.5 c 128,-1,27
 456 725 456 725 456 700.5 c 128,-1,28
 456 676 456 676 438.5 658.5 c 128,-1,29
 421 641 421 641 396 641 c 128,-1,30
 371 641 371 641 353.5 658.5 c 128,-1,31
 336 676 336 676 336 700.5 c 128,-1,32
 336 725 336 725 353.5 742.5 c 128,-1,25
 371 760 371 760 396 760 c 128,-1,26
EndSplineSet
Validated: 1
EndChar

StartChar: k
Encoding: 107 107 78
Width: 600
GlyphClass: 2
Flags: W
LayerCount: 2
Fore
SplineSet
87 770 m 1,0,-1
 182 770 l 1,1,2
 183 763 183 763 175 753 c 0,3,4
 171 748 171 748 171 740 c 2,5,-1
 171 286 l 1,6,-1
 436 532 l 1,7,8
 460 526 460 526 498 526 c 2,9,-1
 528 526 l 1,10,-1
 305 316 l 1,11,-1
 565 -1 l 1,12,13
 561 -1 561 -1 557 -1 c 2,14,15
 557 -1 557 -1 457 -5 c 1,16,-1
 241 265 l 1,17,-1
 171 200 l 1,18,-1
 171 -1 l 1,19,-1
 87 -1 l 1,20,-1
 87 770 l 1,0,-1
EndSplineSet
Validated: 1
EndChar

StartChar: l
Encoding: 108 108 79
Width: 600
GlyphClass: 2
Flags: W
LayerCount: 2
Fore
SplineSet
108 770 m 1,0,-1
 342 770 l 1,1,-1
 342 67 l 1,2,-1
 498 67 l 1,3,-1
 498 0 l 1,4,-1
 101 0 l 1,5,-1
 101 67 l 1,6,-1
 258 67 l 1,7,-1
 258 703 l 1,8,-1
 108 703 l 1,9,-1
 108 770 l 1,0,-1
EndSplineSet
Validated: 1
EndChar

StartChar: m
Encoding: 109 109 80
Width: 600
GlyphClass: 2
Flags: W
LayerCount: 2
Fore
SplineSet
54 0 m 1,0,-1
 54 529 l 1,1,-1
 131 529 l 1,2,-1
 130 477 l 1,3,4
 149 506 149 506 178 524 c 128,-1,5
 207 542 207 542 238 542 c 0,6,7
 273 542 273 542 299.5 520 c 128,-1,8
 326 498 326 498 332 465 c 1,9,10
 347 500 347 500 379.5 521 c 128,-1,11
 412 542 412 542 451 542 c 0,12,13
 506 542 506 542 533 500 c 1,14,15
 544 485 544 485 549 463.5 c 128,-1,16
 554 442 554 442 554.5 427 c 128,-1,17
 555 412 555 412 555 385 c 0,18,19
 555 379 555 379 555 376 c 2,20,-1
 555 -1 l 1,21,-1
 476 -1 l 1,22,-1
 476 375 l 2,23,24
 476 379 476 379 476 389.5 c 128,-1,25
 476 400 476 400 476 406 c 128,-1,26
 476 412 476 412 475.5 421.5 c 128,-1,27
 475 431 475 431 473.5 438 c 128,-1,28
 472 445 472 445 469 452 c 0,29,30
 456 481 456 481 427 481 c 0,31,32
 394 481 394 481 365 433 c 0,33,34
 343 396 343 396 343 350 c 2,35,-1
 343 0 l 1,36,-1
 265 0 l 1,37,-1
 265 368 l 2,38,39
 265 421 265 421 260 438 c 0,40,41
 253 458 253 458 239.5 468 c 128,-1,42
 226 478 226 478 211 478 c 0,43,44
 173 478 173 478 147 429 c 0,45,46
 130 398 130 398 130 353 c 2,47,-1
 130 0 l 1,48,-1
 54 0 l 1,0,-1
EndSplineSet
Validated: 1
EndChar

StartChar: n
Encoding: 110 110 81
Width: 600
GlyphClass: 2
Flags: W
LayerCount: 2
Fore
SplineSet
89 0 m 1,0,-1
 89 529 l 1,1,-1
 174 529 l 1,2,-1
 174 436 l 1,3,4
 205 483 205 483 251.5 512.5 c 128,-1,5
 298 542 298 542 350 542 c 0,6,7
 396 542 396 542 433.5 517.5 c 128,-1,8
 471 493 471 493 491 449 c 0,9,10
 510 405 510 405 510 321 c 2,11,-1
 510 0 l 1,12,-1
 428 0 l 1,13,-1
 428 319 l 2,14,15
 428 344 428 344 427 359.5 c 128,-1,16
 426 375 426 375 419 397.5 c 128,-1,17
 412 420 412 420 399 436 c 0,18,19
 371 470 371 470 327 470 c 0,20,21
 290 470 290 470 255 446 c 128,-1,22
 220 422 220 422 200 396 c 0,23,24
 174 361 174 361 174 305 c 2,25,-1
 174 0 l 1,26,-1
 89 0 l 1,0,-1
EndSplineSet
Validated: 1
EndChar

StartChar: o
Encoding: 111 111 82
Width: 600
GlyphClass: 2
Flags: W
LayerCount: 2
Fore
SplineSet
543 262 m 0,0,1
 543 136 543 136 473.5 61 c 128,-1,2
 404 -14 404 -14 305 -14 c 0,3,4
 203 -14 203 -14 130 64 c 128,-1,5
 57 142 57 142 57 261 c 0,6,7
 57 381 57 381 130.5 461 c 128,-1,8
 204 541 204 541 307 541 c 0,9,10
 353 541 353 541 395 523 c 128,-1,11
 437 505 437 505 470.5 471 c 128,-1,12
 504 437 504 437 523.5 383 c 128,-1,13
 543 329 543 329 543 262 c 0,0,1
302 470 m 0,14,15
 237 470 237 470 191 415.5 c 128,-1,16
 145 361 145 361 145 268 c 0,17,18
 145 173 145 173 192.5 115.5 c 128,-1,19
 240 58 240 58 306 58 c 0,20,21
 368 58 368 58 413.5 111 c 128,-1,22
 459 164 459 164 459 259 c 0,23,24
 459 361 459 361 412 415.5 c 128,-1,25
 365 470 365 470 302 470 c 0,14,15
EndSplineSet
Validated: 1
EndChar

StartChar: p
Encoding: 112 112 83
Width: 600
GlyphClass: 2
Flags: W
LayerCount: 2
Fore
SplineSet
79 529 m 1,0,-1
 164 529 l 1,1,-1
 164 448 l 1,2,3
 191 491 191 491 235.5 516 c 128,-1,4
 280 541 280 541 331 541 c 0,5,6
 372 541 372 541 409 524.5 c 128,-1,7
 446 508 446 508 477.5 476.5 c 128,-1,8
 509 445 509 445 527.5 391.5 c 128,-1,9
 546 338 546 338 546 271 c 0,10,11
 546 201 546 201 526.5 145 c 128,-1,12
 507 89 507 89 475 55 c 128,-1,13
 443 21 443 21 404.5 3.5 c 128,-1,14
 366 -14 366 -14 324 -14 c 0,15,16
 276 -14 276 -14 234 8.5 c 128,-1,17
 192 31 192 31 165 70 c 1,18,-1
 165 -193 l 1,19,-1
 80 -193 l 1,20,-1
 79 529 l 1,0,-1
301 470 m 0,21,22
 260 470 260 470 226.5 449 c 128,-1,23
 193 428 193 428 178 393 c 0,24,25
 164 360 164 360 164 289 c 0,26,27
 164 240 164 240 164.5 219.5 c 128,-1,28
 165 199 165 199 168.5 174.5 c 128,-1,29
 172 150 172 150 179 133 c 0,30,31
 194 98 194 98 227.5 79 c 128,-1,32
 261 60 261 60 300 60 c 0,33,34
 318 60 318 60 336 64 c 128,-1,35
 354 68 354 68 377 80.5 c 128,-1,36
 400 93 400 93 417.5 113 c 128,-1,37
 435 133 435 133 447 169.5 c 128,-1,38
 459 206 459 206 459 253 c 0,39,40
 459 308 459 308 447 349.5 c 128,-1,41
 435 391 435 391 417.5 413 c 128,-1,42
 400 435 400 435 376.5 448.5 c 128,-1,43
 353 462 353 462 335.5 466 c 128,-1,44
 318 470 318 470 301 470 c 0,21,22
EndSplineSet
Validated: 1
EndChar

StartChar: q
Encoding: 113 113 84
Width: 600
GlyphClass: 2
Flags: W
LayerCount: 2
Fore
SplineSet
443 452 m 2,0,-1
 443 529 l 1,1,-1
 522 529 l 1,2,-1
 522 -193 l 1,3,-1
 439 -193 l 1,4,-1
 439 85 l 1,5,6
 414 41 414 41 370.5 14.5 c 128,-1,7
 327 -12 327 -12 277 -12 c 0,8,9
 186 -12 186 -12 122.5 66 c 128,-1,10
 59 144 59 144 59 270 c 0,11,12
 59 335 59 335 78.5 388 c 128,-1,13
 98 441 98 441 130.5 474 c 128,-1,14
 163 507 163 507 203.5 525 c 128,-1,15
 244 543 244 543 289 543 c 0,16,17
 386 543 386 543 434 468 c 0,18,19
 443 454 443 454 443 452 c 2,0,-1
292 475 m 0,20,21
 232 475 232 475 187.5 426.5 c 128,-1,22
 143 378 143 378 143 282 c 0,23,24
 143 176 143 176 188 119 c 128,-1,25
 233 62 233 62 295 62 c 0,26,27
 338 62 338 62 374 89 c 128,-1,28
 410 116 410 116 425 162 c 0,29,30
 436 196 436 196 436 258 c 0,31,32
 436 349 436 349 423 385 c 0,33,34
 407 430 407 430 369.5 452.5 c 128,-1,35
 332 475 332 475 292 475 c 0,20,21
EndSplineSet
Validated: 1
EndChar

StartChar: r
Encoding: 114 114 85
Width: 600
GlyphClass: 2
Flags: W
LayerCount: 2
Fore
SplineSet
125 529 m 1,0,-1
 212 529 l 1,1,-1
 209 427 l 1,2,3
 234 482 234 482 286.5 512 c 128,-1,4
 339 542 339 542 400 542 c 0,5,6
 485 542 485 542 541 484 c 1,7,-1
 502 404 l 1,8,9
 497 409 497 409 490.5 418.5 c 128,-1,10
 484 428 484 428 482 431 c 0,11,12
 451 470 451 470 395 470 c 0,13,14
 303 470 303 470 246 381 c 0,15,16
 229 354 229 354 220.5 329.5 c 128,-1,17
 212 305 212 305 210.5 291.5 c 128,-1,18
 209 278 209 278 209 257 c 2,19,-1
 209 -1 l 1,20,-1
 125 -1 l 1,21,-1
 125 529 l 1,0,-1
EndSplineSet
Validated: 1
EndChar

StartChar: s
Encoding: 115 115 86
Width: 600
GlyphClass: 2
Flags: W
LayerCount: 2
Fore
SplineSet
511 459 m 1,0,-1
 462 386 l 1,1,2
 456 387 456 387 456 395 c 128,-1,3
 456 403 456 403 453 406 c 0,4,5
 433 433 433 433 395 456 c 128,-1,6
 357 479 357 479 307 479 c 0,7,8
 261 479 261 479 228 458.5 c 128,-1,9
 195 438 195 438 195 407 c 0,10,11
 195 368 195 368 247 342 c 1,12,13
 268 333 268 333 338.5 312.5 c 128,-1,14
 409 292 409 292 442 273 c 0,15,16
 520 229 520 229 520 153 c 0,17,18
 520 88 520 88 461 38 c 128,-1,19
 402 -12 402 -12 299 -12 c 0,20,21
 166 -12 166 -12 76 72 c 1,22,-1
 124 155 l 1,23,24
 130 152 130 152 129.5 144 c 128,-1,25
 129 136 129 136 132 132 c 0,26,27
 145 118 145 118 162.5 103.5 c 128,-1,28
 180 89 180 89 218.5 73.5 c 128,-1,29
 257 58 257 58 298 58 c 0,30,31
 356 58 356 58 395 81.5 c 128,-1,32
 434 105 434 105 434 142 c 0,33,34
 434 184 434 184 381 209 c 0,35,36
 359 220 359 220 305.5 236.5 c 128,-1,37
 252 253 252 253 239 258 c 0,38,39
 223 264 223 264 214 267.5 c 128,-1,40
 205 271 205 271 182.5 283.5 c 128,-1,41
 160 296 160 296 146.5 309.5 c 128,-1,42
 133 323 133 323 121.5 345.5 c 128,-1,43
 110 368 110 368 110 394 c 0,44,45
 110 455 110 455 167 498.5 c 128,-1,46
 224 542 224 542 313 542 c 0,47,48
 436 542 436 542 511 459 c 1,0,-1
EndSplineSet
Validated: 1
EndChar

StartChar: t
Encoding: 116 116 87
Width: 600
GlyphClass: 2
Flags: W
LayerCount: 2
Fore
SplineSet
228 671 m 1,0,-1
 319 686 l 1,1,2
 320 679 320 679 319.5 675.5 c 128,-1,3
 319 672 319 672 316 665.5 c 128,-1,4
 313 659 313 659 312 655 c 0,5,6
 310 642 310 642 306.5 610.5 c 128,-1,7
 303 579 303 579 301 555 c 2,8,-1
 299 530 l 1,9,-1
 472 530 l 1,10,-1
 472 461 l 1,11,-1
 298 461 l 1,12,13
 288 358 288 358 288 254 c 0,14,15
 288 178 288 178 291 152 c 0,16,17
 297 108 297 108 322 87.5 c 128,-1,18
 347 67 347 67 380 67 c 0,19,20
 434 67 434 67 499 115 c 1,21,-1
 525 49 l 1,22,23
 444 -10 444 -10 356 -10 c 0,24,25
 275 -10 275 -10 235 46 c 0,26,27
 221 66 221 66 213.5 93.5 c 128,-1,28
 206 121 206 121 205 140 c 128,-1,29
 204 159 204 159 204 190 c 0,30,31
 204 326 204 326 215 461 c 1,32,-1
 91 461 l 1,33,-1
 92 529 l 1,34,-1
 218 529 l 1,35,-1
 228 671 l 1,0,-1
EndSplineSet
Validated: 1
EndChar

StartChar: u
Encoding: 117 117 88
Width: 600
GlyphClass: 2
Flags: W
LayerCount: 2
Fore
SplineSet
83 529 m 1,0,-1
 167 529 l 1,1,-1
 167 234 l 2,2,3
 167 157 167 157 186 120 c 0,4,5
 201 89 201 89 228 72 c 128,-1,6
 255 55 255 55 287 55 c 0,7,8
 324 55 324 55 357 77 c 128,-1,9
 390 99 390 99 409 133 c 0,10,11
 430 172 430 172 430 238 c 2,12,-1
 430 529 l 1,13,-1
 514 529 l 1,14,-1
 514 48 l 2,15,16
 514 19 514 19 520 0 c 1,17,-1
 432 0 l 1,18,19
 429 16 429 16 430 41 c 2,20,-1
 431 81 l 1,21,22
 405 37 405 37 361 12 c 128,-1,23
 317 -13 317 -13 268 -13 c 0,24,25
 215 -13 215 -13 170.5 15.5 c 128,-1,26
 126 44 126 44 103 95 c 0,27,28
 82 143 82 143 82 234 c 2,29,-1
 83 529 l 1,0,-1
EndSplineSet
Validated: 33
EndChar

StartChar: v
Encoding: 118 118 89
Width: 600
GlyphClass: 2
Flags: W
LayerCount: 2
Fore
SplineSet
56 530 m 1,0,-1
 156 530 l 1,1,2
 157 525 157 525 154.5 517.5 c 128,-1,3
 152 510 152 510 152 507 c 256,4,5
 152 504 152 504 154 500 c 2,6,-1
 307 113 l 1,7,-1
 392 310 l 2,8,9
 447 438 447 438 464 530 c 1,10,-1
 539 530 l 1,11,12
 518 434 518 434 460 298 c 2,13,-1
 331 -4 l 1,14,-1
 266 -4 l 1,15,-1
 56 530 l 1,0,-1
EndSplineSet
Validated: 1
EndChar

StartChar: w
Encoding: 119 119 90
Width: 600
GlyphClass: 2
Flags: W
LayerCount: 2
Fore
SplineSet
28 530 m 1,0,-1
 113 530 l 1,1,2
 116 522 116 522 111 507 c 0,3,4
 108 497 108 497 110 486 c 2,5,-1
 187 104 l 1,6,-1
 278 480 l 1,7,-1
 329 480 l 1,8,-1
 441 105 l 1,9,10
 493 446 493 446 490 529 c 1,11,-1
 567 529 l 1,12,13
 533 262 533 262 479 -1 c 1,14,-1
 401 -1 l 1,15,-1
 303 342 l 1,16,-1
 210 -1 l 1,17,-1
 135 -1 l 1,18,-1
 28 530 l 1,0,-1
EndSplineSet
Validated: 33
EndChar

StartChar: x
Encoding: 120 120 91
Width: 600
GlyphClass: 2
Flags: W
LayerCount: 2
Fore
SplineSet
430 530 m 1,0,-1
 515 530 l 1,1,-1
 343 272 l 1,2,-1
 538 0 l 1,3,-1
 443 0 l 1,4,-1
 297 206 l 1,5,-1
 159 0 l 1,6,-1
 65 0 l 1,7,-1
 251 269 l 1,8,-1
 68 530 l 1,9,-1
 159 530 l 1,10,-1
 298 334 l 1,11,-1
 430 530 l 1,0,-1
EndSplineSet
Validated: 1
EndChar

StartChar: y
Encoding: 121 121 92
Width: 600
GlyphClass: 2
Flags: W
LayerCount: 2
Fore
SplineSet
63 529 m 1,0,-1
 167 529 l 1,1,2
 167 523 167 523 164.5 515.5 c 128,-1,3
 162 508 162 508 162 504 c 128,-1,4
 162 500 162 500 164 495 c 2,5,-1
 319 105 l 1,6,-1
 420 389 l 2,7,8
 450 472 450 472 460 530 c 1,9,-1
 547 530 l 1,10,11
 528 468 528 468 494 377 c 2,12,-1
 329 -60 l 2,13,14
 308 -117 308 -117 283 -144 c 0,15,16
 232 -201 232 -201 151 -201 c 0,17,18
 82 -201 82 -201 36 -157 c 1,19,-1
 79 -82 l 1,20,21
 83 -85 83 -85 85.5 -92.5 c 128,-1,22
 88 -100 88 -100 88 -101 c 0,23,24
 91 -105 91 -105 97 -111.5 c 128,-1,25
 103 -118 103 -118 118 -125.5 c 128,-1,26
 133 -133 133 -133 150 -133 c 0,27,28
 192 -133 192 -133 224 -98 c 1,29,30
 243 -79 243 -79 261 -37 c 2,31,-1
 278 2 l 1,32,-1
 63 529 l 1,0,-1
EndSplineSet
Validated: 1
EndChar

StartChar: z
Encoding: 122 122 93
Width: 600
GlyphClass: 2
Flags: W
LayerCount: 2
Fore
SplineSet
92 530 m 1,0,-1
 504 530 l 1,1,-1
 504 473 l 1,2,-1
 181 71 l 1,3,-1
 496 71 l 2,4,5
 504 71 504 71 513.5 75 c 128,-1,6
 523 79 523 79 531 78 c 1,7,-1
 531 -1 l 1,8,-1
 68 -1 l 1,9,-1
 68 56 l 1,10,-1
 396 457 l 1,11,-1
 92 457 l 1,12,-1
 92 530 l 1,0,-1
EndSplineSet
Validated: 1
EndChar

StartChar: braceleft
Encoding: 123 123 94
Width: 600
GlyphClass: 2
Flags: W
LayerCount: 2
Fore
SplineSet
71 329 m 1,0,-1
 94 329 l 2,1,2
 147 329 147 329 172 355 c 0,3,4
 202 387 202 387 202 453 c 0,5,6
 202 467 202 467 200.5 494.5 c 128,-1,7
 199 522 199 522 199 536 c 0,8,9
 199 640 199 640 256 692 c 0,10,11
 264 699 264 699 273.5 705 c 128,-1,12
 283 711 283 711 291 715.5 c 128,-1,13
 299 720 299 720 310.5 724 c 128,-1,14
 322 728 322 728 329 730 c 128,-1,15
 336 732 336 732 349.5 733.5 c 128,-1,16
 363 735 363 735 369 736 c 128,-1,17
 375 737 375 737 390 737.5 c 128,-1,18
 405 738 405 738 409 738 c 128,-1,19
 413 738 413 738 429.5 738 c 128,-1,20
 446 738 446 738 448 738 c 2,21,-1
 483 738 l 1,22,-1
 483 672 l 1,23,-1
 443 672 l 2,24,25
 435 672 435 672 415.5 672.5 c 128,-1,26
 396 673 396 673 388 672.5 c 128,-1,27
 380 672 380 672 367 671 c 128,-1,28
 354 670 354 670 344.5 666.5 c 128,-1,29
 335 663 335 663 326 657 c 0,30,31
 279 628 279 628 279 549 c 0,32,33
 279 536 279 536 281 509 c 128,-1,34
 283 482 283 482 283 468 c 0,35,36
 283 413 283 413 264 375 c 0,37,38
 238 321 238 321 182 297 c 1,39,40
 223 283 223 283 251.5 240.5 c 128,-1,41
 280 198 280 198 280 117 c 0,42,43
 280 98 280 98 278 66 c 128,-1,44
 276 34 276 34 276 20 c 0,45,46
 276 -67 276 -67 324 -100 c 0,47,48
 329 -103 329 -103 334 -106 c 128,-1,49
 339 -109 339 -109 345.5 -111 c 128,-1,50
 352 -113 352 -113 356.5 -114.5 c 128,-1,51
 361 -116 361 -116 369 -117 c 128,-1,52
 377 -118 377 -118 381.5 -118.5 c 128,-1,53
 386 -119 386 -119 395.5 -119 c 128,-1,54
 405 -119 405 -119 408.5 -119 c 128,-1,55
 412 -119 412 -119 423.5 -119 c 128,-1,56
 435 -119 435 -119 439 -119 c 2,57,-1
 482 -119 l 1,58,-1
 482 -184 l 1,59,-1
 440 -184 l 2,60,61
 436 -184 436 -184 419.5 -184 c 128,-1,62
 403 -184 403 -184 398 -184 c 128,-1,63
 393 -184 393 -184 379 -183.5 c 128,-1,64
 365 -183 365 -183 359.5 -182.5 c 128,-1,65
 354 -182 354 -182 342 -181 c 128,-1,66
 330 -180 330 -180 323.5 -178 c 128,-1,67
 317 -176 317 -176 307 -173.5 c 128,-1,68
 297 -171 297 -171 290 -167.5 c 128,-1,69
 283 -164 283 -164 274.5 -159.5 c 128,-1,70
 266 -155 266 -155 259 -149 c 0,71,72
 194 -100 194 -100 194 19 c 0,73,74
 194 43 194 43 196.5 80.5 c 128,-1,75
 199 118 199 118 199 135 c 0,76,77
 199 211 199 211 168 241 c 0,78,79
 145 264 145 264 95 264 c 2,80,-1
 71 264 l 1,81,-1
 71 329 l 1,0,-1
EndSplineSet
Validated: 1
EndChar

StartChar: bar
Encoding: 124 124 95
Width: 600
GlyphClass: 2
Flags: W
LayerCount: 2
Fore
SplineSet
261 756 m 1,0,-1
 339 756 l 1,1,-1
 339 -175 l 1,2,-1
 261 -175 l 1,3,-1
 261 756 l 1,0,-1
EndSplineSet
Validated: 1
EndChar

StartChar: asciitilde
Encoding: 126 126 97
Width: 600
GlyphClass: 2
Flags: W
LayerCount: 2
Fore
SplineSet
116 396 m 5,0,-1
 58 434 l 5,1,2
 85 480 85 480 127.5 509 c 132,-1,3
 170 538 170 538 217 538 c 4,4,5
 249 538 249 538 278 524.5 c 132,-1,6
 307 511 307 511 324.5 494.5 c 132,-1,7
 342 478 342 478 365 464.5 c 132,-1,8
 388 451 388 451 409 451 c 4,9,10
 436 451 436 451 458 469.5 c 132,-1,11
 480 488 480 488 508 526 c 5,12,-1
 561 482 l 5,13,14
 533 439 533 439 491.5 407 c 132,-1,15
 450 375 450 375 401 375 c 4,16,17
 369 375 369 375 341.5 389.5 c 132,-1,18
 314 404 314 404 297.5 421.5 c 132,-1,19
 281 439 281 439 258.5 453.5 c 132,-1,20
 236 468 236 468 212 468 c 4,21,22
 160 468 160 468 116 396 c 5,0,-1
EndSplineSet
Validated: 1
EndChar

StartChar: cent
Encoding: 162 162 100
Width: 600
GlyphClass: 2
Flags: W
LayerCount: 2
Fore
SplineSet
340 723 m 1,0,-1
 418 715 l 1,1,2
 419 708 419 708 414 699 c 128,-1,3
 409 690 409 690 408 683 c 2,4,-1
 395 588 l 1,5,6
 486 570 486 570 533 498 c 1,7,-1
 482 432 l 1,8,9
 477 436 477 436 477 444 c 0,10,11
 477 457 477 457 473 462 c 0,12,13
 440 501 440 501 386 518 c 1,14,-1
 333 112 l 1,15,16
 422 112 422 112 485 177 c 1,17,-1
 527 121 l 1,18,19
 451 38 451 38 332 38 c 0,20,21
 327 38 327 38 323 38 c 1,22,-1
 306 -91 l 1,23,-1
 239 -83 l 1,24,-1
 255 48 l 1,25,26
 169 72 169 72 117.5 144 c 128,-1,27
 66 216 66 216 66 316 c 0,28,29
 66 433 66 433 137 510 c 128,-1,30
 208 587 208 587 324 593 c 1,31,-1
 340 723 l 1,0,-1
265 125 m 1,32,-1
 315 526 l 1,33,34
 242 521 242 521 195 468 c 128,-1,35
 148 415 148 415 148 327 c 0,36,37
 148 252 148 252 179.5 199 c 128,-1,38
 211 146 211 146 265 125 c 1,32,-1
EndSplineSet
Validated: 1
EndChar

StartChar: sterling
Encoding: 163 163 101
Width: 600
GlyphClass: 2
Flags: W
LayerCount: 2
Fore
SplineSet
494 663 m 1,0,-1
 443 599 l 1,1,2
 438 603 438 603 434 611.5 c 128,-1,3
 430 620 430 620 428 623 c 1,4,5
 423 627 423 627 414 634 c 128,-1,6
 405 641 405 641 384 648.5 c 128,-1,7
 363 656 363 656 341 656 c 0,8,9
 291 656 291 656 254.5 618.5 c 128,-1,10
 218 581 218 581 218 513 c 0,11,12
 218 482 218 482 227 438 c 1,13,-1
 342 438 l 1,14,-1
 342 372 l 1,15,-1
 243 372 l 1,16,17
 259 305 259 305 259 259 c 0,18,19
 259 173 259 173 216 104 c 1,20,21
 231 107 231 107 247 107 c 0,22,23
 287 107 287 107 347 83 c 128,-1,24
 407 59 407 59 438 59 c 0,25,26
 487 59 487 59 524 91 c 1,27,-1
 555 31 l 1,28,29
 494 -17 494 -17 434 -17 c 0,30,31
 398 -17 398 -17 334.5 9 c 128,-1,32
 271 35 271 35 228 35 c 0,33,34
 168 35 168 35 85 -9 c 1,35,-1
 55 57 l 1,36,37
 88 72 88 72 99 77.5 c 128,-1,38
 110 83 110 83 121 92.5 c 128,-1,39
 132 102 132 102 141 116 c 0,40,41
 181 178 181 178 181 257 c 0,42,43
 181 301 181 301 164 372 c 1,44,-1
 88 372 l 1,45,-1
 88 438 l 1,46,-1
 148 438 l 1,47,48
 140 479 140 479 140 512 c 0,49,50
 140 606 140 606 199.5 664 c 128,-1,51
 259 722 259 722 343 722 c 0,52,53
 430 722 430 722 494 663 c 1,0,-1
EndSplineSet
Validated: 1
EndChar

StartChar: euro
Encoding: 8364 8364 102
Width: 600
GlyphClass: 2
Flags: W
LayerCount: 2
Fore
SplineSet
548 665 m 1,0,-1
 519 586 l 1,1,2
 515 590 515 590 513.5 598 c 128,-1,3
 512 606 512 606 509 610 c 0,4,5
 504 616 504 616 494 624.5 c 128,-1,6
 484 633 484 633 453 647 c 128,-1,7
 422 661 422 661 387 661 c 0,8,9
 328 661 328 661 275.5 623 c 128,-1,10
 223 585 223 585 199 502 c 0,11,12
 196 491 196 491 194 480 c 1,13,-1
 480 480 l 1,14,-1
 455 413 l 1,15,-1
 184 413 l 1,16,17
 181 381 181 381 181 345 c 0,18,19
 181 332 181 332 182 320 c 1,20,-1
 420 320 l 1,21,-1
 394 253 l 1,22,-1
 188 253 l 1,23,24
 201 182 201 182 236 135 c 0,25,26
 265 95 265 95 305.5 76 c 128,-1,27
 346 57 346 57 389 57 c 0,28,29
 461 57 461 57 513 104 c 1,30,-1
 546 46 l 1,31,32
 478 -13 478 -13 384 -13 c 0,33,34
 354 -13 354 -13 323 -6.5 c 128,-1,35
 292 0 292 0 257.5 19 c 128,-1,36
 223 38 223 38 195.5 66.5 c 128,-1,37
 168 95 168 95 146 143 c 128,-1,38
 124 191 124 191 115 253 c 1,39,-1
 48 253 l 1,40,-1
 63 320 l 1,41,-1
 110 320 l 1,42,43
 109 329 109 329 109 338 c 0,44,45
 109 378 109 378 113 413 c 1,46,-1
 48 413 l 1,47,-1
 63 480 l 1,48,-1
 122 480 l 1,49,50
 136 545 136 545 164 594 c 0,51,52
 204 665 204 665 266 696 c 128,-1,53
 328 727 328 727 391 727 c 0,54,55
 486 727 486 727 548 665 c 1,0,-1
EndSplineSet
Validated: 1
EndChar

StartChar: yen
Encoding: 165 165 103
Width: 600
GlyphClass: 2
Flags: W
LayerCount: 2
Fore
SplineSet
52 723 m 1,0,-1
 142 723 l 1,1,-1
 310 421 l 1,2,-1
 464 722 l 1,3,-1
 550 722 l 1,4,-1
 348 342 l 1,5,-1
 348 318 l 1,6,-1
 504 318 l 1,7,-1
 504 252 l 1,8,-1
 348 252 l 1,9,-1
 348 179 l 1,10,-1
 504 179 l 1,11,-1
 504 114 l 1,12,-1
 348 114 l 1,13,-1
 348 0 l 1,14,-1
 269 0 l 1,15,-1
 269 114 l 1,16,-1
 107 114 l 1,17,-1
 107 179 l 1,18,-1
 269 179 l 1,19,-1
 269 252 l 1,20,-1
 107 252 l 1,21,-1
 107 318 l 1,22,-1
 269 318 l 1,23,-1
 269 342 l 1,24,-1
 52 723 l 1,0,-1
EndSplineSet
Validated: 1
EndChar

StartChar: section
Encoding: 167 167 105
Width: 600
GlyphClass: 2
Flags: W
LayerCount: 2
Fore
SplineSet
488 676 m 1,0,-1
 423 618 l 1,1,2
 419 621 419 621 417.5 625 c 128,-1,3
 416 629 416 629 415.5 634 c 128,-1,4
 415 639 415 639 414 642 c 0,5,6
 405 667 405 667 377.5 688.5 c 128,-1,7
 350 710 350 710 308 710 c 0,8,9
 263 710 263 710 233 684 c 128,-1,10
 203 658 203 658 203 621 c 0,11,12
 203 567 203 567 264 535 c 0,13,14
 281 526 281 526 322.5 511 c 128,-1,15
 364 496 364 496 388 485 c 0,16,17
 444 458 444 458 469 423.5 c 128,-1,18
 494 389 494 389 494 354 c 0,19,20
 494 318 494 318 470.5 288 c 128,-1,21
 447 258 447 258 409 242 c 1,22,23
 445 217 445 217 464 181.5 c 128,-1,24
 483 146 483 146 483 107 c 0,25,26
 483 38 483 38 427.5 -12.5 c 128,-1,27
 372 -63 372 -63 286 -63 c 0,28,29
 227 -63 227 -63 174 -37 c 128,-1,30
 121 -11 121 -11 85 36 c 1,31,-1
 146 107 l 1,32,33
 150 105 150 105 151.5 102 c 128,-1,34
 153 99 153 99 154 94 c 128,-1,35
 155 89 155 89 156 87 c 0,36,37
 158 81 158 81 166 71 c 128,-1,38
 174 61 174 61 189 47 c 128,-1,39
 204 33 204 33 230 23.5 c 128,-1,40
 256 14 256 14 286 14 c 0,41,42
 337 14 337 14 368.5 40.5 c 128,-1,43
 400 67 400 67 400 105 c 0,44,45
 400 156 400 156 347 187 c 0,46,47
 324 201 324 201 264.5 218.5 c 128,-1,48
 205 236 205 236 175 254 c 0,49,50
 102 298 102 298 102 366 c 0,51,52
 102 405 102 405 128 436.5 c 128,-1,53
 154 468 154 468 196 483 c 1,54,55
 157 507 157 507 138 542 c 128,-1,56
 119 577 119 577 119 614 c 0,57,58
 119 681 119 681 173.5 729.5 c 128,-1,59
 228 778 228 778 308 778 c 0,60,61
 365 778 365 778 413 750.5 c 128,-1,62
 461 723 461 723 488 676 c 1,0,-1
239 462 m 1,63,64
 215 454 215 454 200.5 434 c 128,-1,65
 186 414 186 414 186 389 c 0,66,67
 186 334 186 334 248 304 c 0,68,69
 267 295 267 295 307 283.5 c 128,-1,70
 347 272 347 272 365 265 c 1,71,72
 384 274 384 274 395.5 292.5 c 128,-1,73
 407 311 407 311 407 334 c 0,74,75
 407 392 407 392 340 425 c 0,76,77
 324 433 324 433 288.5 444.5 c 128,-1,78
 253 456 253 456 239 462 c 1,63,64
EndSplineSet
Validated: 1
EndChar

StartChar: copyright
Encoding: 169 169 107
Width: 600
GlyphClass: 2
Flags: W
LayerCount: 2
Fore
SplineSet
314 491 m 0,0,1
 367 491 367 491 407 461 c 128,-1,2
 447 431 447 431 458 384 c 1,3,-1
 398 361 l 1,4,5
 394 366 394 366 394 374.5 c 128,-1,6
 394 383 394 383 394 385 c 0,7,8
 392 389 392 389 388 396 c 128,-1,9
 384 403 384 403 375.5 412 c 128,-1,10
 367 421 367 421 351.5 427 c 128,-1,11
 336 433 336 433 316 433 c 0,12,13
 272 433 272 433 240 405.5 c 128,-1,14
 208 378 208 378 208 327 c 0,15,16
 208 275 208 275 240 238.5 c 128,-1,17
 272 202 272 202 317 202 c 0,18,19
 344 202 344 202 367.5 216 c 128,-1,20
 391 230 391 230 404 254 c 1,21,-1
 455 220 l 1,22,23
 431 183 431 183 393 162 c 128,-1,24
 355 141 355 141 312 141 c 0,25,26
 242 141 242 141 192.5 193.5 c 128,-1,27
 143 246 143 246 143 319 c 0,28,29
 143 393 143 393 193 442 c 128,-1,30
 243 491 243 491 314 491 c 0,0,1
306.5 22 m 128,-1,32
 191 22 191 22 108.5 108 c 128,-1,33
 26 194 26 194 26 317 c 0,34,35
 26 441 26 441 108.5 527.5 c 128,-1,36
 191 614 191 614 307 614 c 0,37,38
 422 614 422 614 504.5 528 c 128,-1,39
 587 442 587 442 587 318 c 0,40,41
 587 195 587 195 504.5 108.5 c 128,-1,31
 422 22 422 22 306.5 22 c 128,-1,32
79 318 m 256,42,43
 79 215 79 215 146.5 143.5 c 128,-1,44
 214 72 214 72 308 72 c 128,-1,45
 402 72 402 72 469.5 143.5 c 128,-1,46
 537 215 537 215 537 319 c 0,47,48
 537 422 537 422 469.5 493.5 c 128,-1,49
 402 565 402 565 308 565 c 128,-1,50
 214 565 214 565 146.5 493 c 128,-1,51
 79 421 79 421 79 318 c 256,42,43
EndSplineSet
Validated: 1
EndChar

StartChar: ordfeminine
Encoding: 170 170 108
Width: 600
GlyphClass: 2
Flags: W
LayerCount: 2
Fore
SplineSet
152 656 m 1,0,1
 209 721 209 721 308 721 c 0,2,3
 356 721 356 721 393 701.5 c 128,-1,4
 430 682 430 682 448 645 c 0,5,6
 461 616 461 616 461 562 c 2,7,-1
 461 309 l 1,8,-1
 388 309 l 1,9,-1
 388 348 l 1,10,11
 335 298 335 298 264 298 c 0,12,13
 205 298 205 298 166.5 333.5 c 128,-1,14
 128 369 128 369 128 419 c 0,15,16
 128 450 128 450 145.5 479 c 128,-1,17
 163 508 163 508 197 526 c 0,18,19
 205 531 205 531 214 534.5 c 128,-1,20
 223 538 223 538 233.5 540.5 c 128,-1,21
 244 543 244 543 251.5 545 c 128,-1,22
 259 547 259 547 272 548 c 128,-1,23
 285 549 285 549 291 549.5 c 128,-1,24
 297 550 297 550 311.5 550.5 c 128,-1,25
 326 551 326 551 330.5 551 c 128,-1,26
 335 551 335 551 351 551 c 128,-1,27
 367 551 367 551 370 551 c 2,28,-1
 387 551 l 1,29,-1
 387 565 l 2,30,31
 387 605 387 605 374 625 c 0,32,33
 352 659 352 659 301 659 c 0,34,35
 229 659 229 659 192 608 c 1,36,-1
 152 656 l 1,0,1
390 491 m 1,37,-1
 371 491 l 2,38,39
 290 491 290 491 272 488 c 0,40,41
 236 481 236 481 219.5 462.5 c 128,-1,42
 203 444 203 444 203 422 c 0,43,44
 203 397 203 397 223 379 c 128,-1,45
 243 361 243 361 276 361 c 0,46,47
 325 361 325 361 364 397 c 0,48,49
 381 413 381 413 385.5 429 c 128,-1,50
 390 445 390 445 390 471 c 2,51,-1
 390 491 l 1,37,-1
98 239 m 1,52,-1
 503 239 l 1,53,-1
 503 176 l 1,54,-1
 98 176 l 1,55,-1
 98 239 l 1,52,-1
EndSplineSet
Validated: 1
EndChar

StartChar: logicalnot
Encoding: 172 172 110
Width: 600
GlyphClass: 2
Flags: W
LayerCount: 2
Fore
SplineSet
116 402 m 1,0,-1
 490 402 l 1,1,-1
 490 182 l 1,2,-1
 416 182 l 1,3,-1
 416 329 l 1,4,-1
 116 329 l 1,5,-1
 116 402 l 1,0,-1
EndSplineSet
Validated: 1
EndChar

StartChar: registered
Encoding: 174 174 112
Width: 600
GlyphClass: 2
Flags: W
LayerCount: 2
Fore
SplineSet
306.5 22 m 128,-1,1
 191 22 191 22 108.5 108 c 128,-1,2
 26 194 26 194 26 317 c 0,3,4
 26 441 26 441 108.5 527.5 c 128,-1,5
 191 614 191 614 307 614 c 0,6,7
 422 614 422 614 504.5 528 c 128,-1,8
 587 442 587 442 587 318 c 0,9,10
 587 195 587 195 504.5 108.5 c 128,-1,0
 422 22 422 22 306.5 22 c 128,-1,1
79 318 m 256,11,12
 79 215 79 215 146.5 143.5 c 128,-1,13
 214 72 214 72 308 72 c 128,-1,14
 402 72 402 72 469.5 143.5 c 128,-1,15
 537 215 537 215 537 319 c 0,16,17
 537 422 537 422 469.5 493.5 c 128,-1,18
 402 565 402 565 308 565 c 128,-1,19
 214 565 214 565 146.5 493 c 128,-1,20
 79 421 79 421 79 318 c 256,11,12
190 154 m 1,21,-1
 190 492 l 1,22,-1
 299 492 l 2,23,24
 352 492 352 492 379 481 c 1,25,26
 407 468 407 468 423 444.5 c 128,-1,27
 439 421 439 421 439 394 c 0,28,29
 439 363 439 363 420 338 c 128,-1,30
 401 313 401 313 371 305 c 1,31,-1
 446 160 l 1,32,-1
 391 152 l 1,33,-1
 319 297 l 1,34,-1
 243 297 l 1,35,-1
 243 154 l 1,36,-1
 190 154 l 1,21,-1
243 445 m 1,37,-1
 243 343 l 1,38,-1
 303 343 l 2,39,40
 345 343 345 343 363 355 c 0,41,42
 386 369 386 369 386 394 c 0,43,44
 386 420 386 420 360 435 c 0,45,46
 342 445 342 445 300 445 c 2,47,-1
 243 445 l 1,37,-1
EndSplineSet
Validated: 1
EndChar

StartChar: degree
Encoding: 176 176 114
Width: 600
GlyphClass: 2
Flags: W
LayerCount: 2
Fore
SplineSet
463 584.5 m 128,-1,1
 463 520 463 520 417 474.5 c 128,-1,2
 371 429 371 429 306.5 429 c 128,-1,3
 242 429 242 429 196 474.5 c 128,-1,4
 150 520 150 520 150 584.5 c 128,-1,5
 150 649 150 649 196 694.5 c 128,-1,6
 242 740 242 740 306.5 740 c 128,-1,7
 371 740 371 740 417 694.5 c 128,-1,0
 463 649 463 649 463 584.5 c 128,-1,1
307.5 679 m 128,-1,9
 272 679 272 679 246.5 652 c 128,-1,10
 221 625 221 625 221 586 c 128,-1,11
 221 547 221 547 246.5 520 c 128,-1,12
 272 493 272 493 307.5 493 c 128,-1,13
 343 493 343 493 368.5 520 c 128,-1,14
 394 547 394 547 394 586 c 256,15,16
 394 625 394 625 368.5 652 c 128,-1,8
 343 679 343 679 307.5 679 c 128,-1,9
EndSplineSet
Validated: 1
EndChar

StartChar: plusminus
Encoding: 177 177 115
Width: 600
GlyphClass: 2
Flags: W
LayerCount: 2
Fore
SplineSet
63 93 m 1,0,-1
 540 93 l 1,1,-1
 540 20 l 1,2,-1
 63 20 l 1,3,-1
 63 93 l 1,0,-1
267 666 m 1,4,-1
 340 666 l 1,5,-1
 340 468 l 1,6,-1
 538 468 l 1,7,-1
 538 397 l 1,8,-1
 340 397 l 1,9,-1
 340 180 l 1,10,-1
 267 180 l 1,11,-1
 267 397 l 1,12,-1
 62 397 l 1,13,-1
 62 468 l 1,14,-1
 267 468 l 1,15,-1
 267 666 l 1,4,-1
EndSplineSet
Validated: 1
EndChar

StartChar: uni00B2
Encoding: 178 178 116
Width: 600
GlyphClass: 2
Flags: W
LayerCount: 2
Fore
SplineSet
139 642 m 1,0,1
 165 687 165 687 210.5 712.5 c 128,-1,2
 256 738 256 738 309 738 c 0,3,4
 377 738 377 738 420.5 700 c 128,-1,5
 464 662 464 662 464 609 c 0,6,7
 464 551 464 551 410 501 c 0,8,9
 398 489 398 489 335.5 443.5 c 128,-1,10
 273 398 273 398 235 356 c 1,11,-1
 446 356 l 2,12,13
 453 356 453 356 458 361 c 0,14,15
 467 368 467 368 474 366 c 1,16,-1
 474 293 l 1,17,-1
 150 293 l 1,18,-1
 150 344 l 1,19,20
 172 375 172 375 202.5 406 c 128,-1,21
 233 437 233 437 252 453 c 128,-1,22
 271 469 271 469 301.5 492.5 c 128,-1,23
 332 516 332 516 334 518 c 0,24,25
 394 567 394 567 394 608 c 0,26,27
 394 637 394 637 370.5 658 c 128,-1,28
 347 679 347 679 307 679 c 0,29,30
 275 679 275 679 248 665 c 128,-1,31
 221 651 221 651 204 630 c 0,32,33
 201 626 201 626 198 618 c 128,-1,34
 195 610 195 610 193 606 c 1,35,-1
 139 642 l 1,0,1
EndSplineSet
Validated: 1
EndChar

StartChar: uni00B3
Encoding: 179 179 117
Width: 600
GlyphClass: 2
Flags: W
LayerCount: 2
Fore
SplineSet
309 739 m 0,0,1
 372 739 372 739 416 702 c 128,-1,2
 460 665 460 665 460 615 c 0,3,4
 460 583 460 583 442 558 c 128,-1,5
 424 533 424 533 395 524 c 1,6,7
 432 517 432 517 456 489 c 128,-1,8
 480 461 480 461 480 425 c 0,9,10
 480 369 480 369 427.5 330 c 128,-1,11
 375 291 375 291 305 291 c 0,12,13
 258 291 258 291 214.5 310.5 c 128,-1,14
 171 330 171 330 140 366 c 1,15,-1
 194 426 l 1,16,17
 199 421 199 421 202 410 c 128,-1,18
 205 399 205 399 210 394 c 0,19,20
 249 356 249 356 306 356 c 0,21,22
 349 356 349 356 378.5 378 c 128,-1,23
 408 400 408 400 408 431 c 0,24,25
 408 441 408 441 404.5 450.5 c 128,-1,26
 401 460 401 460 391 471 c 128,-1,27
 381 482 381 482 359.5 488.5 c 128,-1,28
 338 495 338 495 307 495 c 0,29,30
 289 495 289 495 272 493 c 1,31,-1
 272 551 l 1,32,33
 284 550 284 550 295 550 c 0,34,35
 347 550 347 550 369.5 567.5 c 128,-1,36
 392 585 392 585 392 610 c 0,37,38
 392 637 392 637 367.5 657.5 c 128,-1,39
 343 678 343 678 305 678 c 0,40,41
 275 678 275 678 246.5 664 c 128,-1,42
 218 650 218 650 197 624 c 1,43,-1
 155 667 l 1,44,45
 184 701 184 701 224.5 720 c 128,-1,46
 265 739 265 739 309 739 c 0,0,1
EndSplineSet
Validated: 1
EndChar

StartChar: micro
Encoding: 181 181 119
Width: 600
GlyphClass: 2
Flags: W
LayerCount: 2
Fore
SplineSet
38 -193 m 1,0,1
 38 -129 38 -129 49.5 14.5 c 128,-1,2
 61 158 61 158 61 234 c 2,3,-1
 61 529 l 1,4,-1
 137 529 l 1,5,-1
 137 215 l 2,6,7
 137 150 137 150 154 115 c 0,8,9
 169 84 169 84 194.5 67 c 128,-1,10
 220 50 220 50 249 50 c 0,11,12
 280 50 280 50 308.5 70.5 c 128,-1,13
 337 91 337 91 352 126 c 0,14,15
 367 160 367 160 367 222 c 2,16,-1
 367 529 l 1,17,-1
 441 529 l 1,18,-1
 441 134 l 2,19,20
 441 95 441 95 451 78 c 0,21,22
 464 55 464 55 487 55 c 0,23,24
 498 55 498 55 508.5 60.5 c 128,-1,25
 519 66 519 66 526.5 74.5 c 128,-1,26
 534 83 534 83 539.5 91 c 128,-1,27
 545 99 545 99 548 105 c 2,28,-1
 551 111 l 1,29,-1
 582 52 l 1,30,31
 564 24 564 24 537.5 6 c 128,-1,32
 511 -12 511 -12 480 -12 c 0,33,34
 444 -12 444 -12 417 14 c 128,-1,35
 390 40 390 40 385 78 c 1,36,37
 365 36 365 36 326.5 11.5 c 128,-1,38
 288 -13 288 -13 243 -13 c 0,39,40
 200 -13 200 -13 164.5 9.5 c 128,-1,41
 129 32 129 32 111 70 c 1,42,43
 111 -61 111 -61 110 -193 c 1,44,-1
 38 -193 l 1,0,1
EndSplineSet
Validated: 1
EndChar

StartChar: paragraph
Encoding: 182 182 120
Width: 600
GlyphClass: 2
Flags: W
LayerCount: 2
Fore
SplineSet
515 771 m 1,0,-1
 515 -79 l 1,1,-1
 448 -79 l 1,2,-1
 448 705 l 1,3,-1
 360 705 l 1,4,-1
 360 -79 l 1,5,-1
 291 -79 l 1,6,-1
 291 373 l 1,7,8
 203 379 203 379 143.5 437.5 c 128,-1,9
 84 496 84 496 84 575 c 0,10,11
 84 629 84 629 115 675.5 c 128,-1,12
 146 722 146 722 203 747 c 0,13,14
 229 758 229 758 261 763.5 c 128,-1,15
 293 769 293 769 313.5 770 c 128,-1,16
 334 771 334 771 370 771 c 2,17,-1
 515 771 l 1,0,-1
EndSplineSet
Validated: 1
EndChar

StartChar: uni00B9
Encoding: 185 185 123
Width: 600
GlyphClass: 2
Flags: W
LayerCount: 2
Fore
SplineSet
356 733 m 1,0,-1
 356 293 l 1,1,-1
 282 293 l 1,2,-1
 282 641 l 1,3,-1
 170 612 l 1,4,-1
 151 648 l 1,5,-1
 306 733 l 1,6,-1
 356 733 l 1,0,-1
EndSplineSet
Validated: 1
EndChar

StartChar: ordmasculine
Encoding: 186 186 124
Width: 600
GlyphClass: 2
Flags: W
LayerCount: 2
Fore
SplineSet
302 721 m 0,0,1
 370 721 370 721 420 667 c 128,-1,2
 470 613 470 613 470 515 c 0,3,4
 470 461 470 461 454.5 418 c 128,-1,5
 439 375 439 375 414 349.5 c 128,-1,6
 389 324 389 324 358 310.5 c 128,-1,7
 327 297 327 297 295 297 c 0,8,9
 223 297 223 297 172 353 c 128,-1,10
 121 409 121 409 121 501 c 0,11,12
 121 598 121 598 174 659.5 c 128,-1,13
 227 721 227 721 302 721 c 0,0,1
191 506 m 0,14,15
 191 438 191 438 222.5 401 c 128,-1,16
 254 364 254 364 296 364 c 256,17,18
 338 364 338 364 369.5 400.5 c 128,-1,19
 401 437 401 437 401 506 c 0,20,21
 401 577 401 577 370 616.5 c 128,-1,22
 339 656 339 656 296 656 c 128,-1,23
 253 656 253 656 222 616.5 c 128,-1,24
 191 577 191 577 191 506 c 0,14,15
98 239 m 1,25,-1
 503 239 l 1,26,-1
 503 176 l 1,27,-1
 98 176 l 1,28,-1
 98 239 l 1,25,-1
EndSplineSet
Validated: 1
EndChar

StartChar: OE
Encoding: 338 338 126
Width: 600
GlyphClass: 2
Flags: W
LayerCount: 2
Fore
SplineSet
303 690 m 1,0,-1
 303 723 l 1,1,-1
 571 723 l 1,2,-1
 571 651 l 1,3,-1
 375 651 l 1,4,-1
 375 414 l 1,5,-1
 541 414 l 1,6,-1
 541 340 l 1,7,-1
 375 340 l 1,8,-1
 375 72 l 1,9,-1
 568 72 l 1,10,-1
 568 0 l 1,11,-1
 302 0 l 1,12,-1
 302 36 l 1,13,14
 265 -8 265 -8 207 -8 c 0,15,16
 159 -8 159 -8 114.5 28 c 128,-1,17
 70 64 70 64 47 139 c 0,18,19
 21 225 21 225 21 362 c 0,20,21
 21 525 21 525 60 616 c 0,22,23
 86 677 86 677 126.5 704.5 c 128,-1,24
 167 732 167 732 208 732 c 0,25,26
 264 732 264 732 303 690 c 1,0,-1
95 376 m 0,27,28
 95 222 95 222 127 143 c 0,29,30
 145 99 145 99 169.5 81 c 128,-1,31
 194 63 194 63 217 63 c 0,32,33
 247 63 247 63 270 87 c 128,-1,34
 293 111 293 111 302 150 c 1,35,-1
 302 562 l 1,36,37
 289 602 289 602 265.5 633.5 c 128,-1,38
 242 665 242 665 208 665 c 0,39,40
 181 665 181 665 157 642 c 128,-1,41
 133 619 133 619 118 573 c 0,42,43
 95 505 95 505 95 376 c 0,27,28
EndSplineSet
Validated: 1
EndChar

StartChar: oe
Encoding: 339 339 127
Width: 600
GlyphClass: 2
Flags: W
LayerCount: 2
Fore
SplineSet
197 540 m 0,0,1
 266 540 266 540 305 487 c 1,2,3
 351 540 351 540 422 540 c 0,4,5
 466 540 466 540 505 515.5 c 128,-1,6
 544 491 544 491 562 440 c 0,7,8
 566 430 566 430 569 418.5 c 128,-1,9
 572 407 572 407 573.5 393.5 c 128,-1,10
 575 380 575 380 576 370.5 c 128,-1,11
 577 361 577 361 577.5 344 c 128,-1,12
 578 327 578 327 578 320 c 128,-1,13
 578 313 578 313 578 293.5 c 128,-1,14
 578 274 578 274 578 269 c 2,15,-1
 578 256 l 1,16,-1
 314 256 l 1,17,18
 315 156 315 156 331 120 c 0,19,20
 345 87 345 87 374 70.5 c 128,-1,21
 403 54 403 54 437 54 c 0,22,23
 502 54 502 54 542 99 c 1,24,-1
 583 49 l 1,25,26
 522 -14 522 -14 435 -14 c 0,27,28
 360 -14 360 -14 303 34 c 1,29,30
 252 -13 252 -13 188 -13 c 0,31,32
 149 -13 149 -13 111 9.5 c 128,-1,33
 73 32 73 32 49 81 c 0,34,35
 17 148 17 148 17 274 c 0,36,37
 17 382 17 382 50 444 c 0,38,39
 74 491 74 491 114 515.5 c 128,-1,40
 154 540 154 540 197 540 c 0,0,1
315 322 m 1,41,-1
 509 322 l 1,42,-1
 509 332 l 2,43,44
 509 357 509 357 508.5 368.5 c 128,-1,45
 508 380 508 380 504 399.5 c 128,-1,46
 500 419 500 419 491 433 c 0,47,48
 465 477 465 477 413 477 c 0,49,50
 387 477 387 477 363.5 462 c 128,-1,51
 340 447 340 447 327 414 c 1,52,53
 314 378 314 378 315 322 c 1,41,-1
87 285 m 0,54,55
 87 196 87 196 104 143 c 0,56,57
 118 99 118 99 143.5 78.5 c 128,-1,58
 169 58 169 58 198 58 c 0,59,60
 222 58 222 58 239.5 70.5 c 128,-1,61
 257 83 257 83 257 103 c 0,62,63
 257 107 257 107 253 129 c 128,-1,64
 249 151 249 151 245.5 190 c 128,-1,65
 242 229 242 229 242 274 c 0,66,67
 242 311 242 311 244.5 344 c 128,-1,68
 247 377 247 377 249.5 396 c 128,-1,69
 252 415 252 415 252 420 c 0,70,71
 252 442 252 442 236 456 c 128,-1,72
 220 470 220 470 196 470 c 0,73,74
 171 470 171 470 147 452.5 c 128,-1,75
 123 435 123 435 108 403 c 0,76,77
 87 358 87 358 87 285 c 0,54,55
EndSplineSet
Validated: 33
EndChar

StartChar: AE
Encoding: 198 198 136
Width: 600
GlyphClass: 2
Flags: W
LayerCount: 2
Fore
SplineSet
242 723 m 1,0,-1
 571 723 l 1,1,-1
 571 651 l 1,2,-1
 370 651 l 1,3,-1
 372 414 l 1,4,-1
 541 414 l 1,5,-1
 541 340 l 1,6,-1
 373 340 l 1,7,-1
 375 72 l 1,8,-1
 568 72 l 1,9,-1
 568 0 l 1,10,-1
 302 0 l 1,11,-1
 302 196 l 1,12,-1
 151 196 l 1,13,-1
 89 0 l 1,14,-1
 15 0 l 1,15,-1
 242 723 l 1,0,-1
302 651 m 1,16,-1
 289 651 l 1,17,-1
 168 263 l 1,18,-1
 302 263 l 1,19,-1
 302 651 l 1,16,-1
EndSplineSet
Validated: 1
EndChar

StartChar: Eth
Encoding: 208 208 146
Width: 600
GlyphClass: 2
Flags: W
LayerCount: 2
Fore
SplineSet
101 722 m 1,0,-1
 263 722 l 2,1,2
 316 722 316 722 353.5 713.5 c 128,-1,3
 391 705 391 705 426 679 c 0,4,5
 488 633 488 633 519 548.5 c 128,-1,6
 550 464 550 464 550 365 c 0,7,8
 550 246 550 246 505.5 152.5 c 128,-1,9
 461 59 461 59 380 21 c 0,10,11
 332 -1 332 -1 249 -1 c 2,12,-1
 101 -1 l 1,13,-1
 101 722 l 1,0,-1
176 654 m 1,14,-1
 176 66 l 1,15,-1
 245 66 l 2,16,17
 283 66 283 66 310.5 71.5 c 128,-1,18
 338 77 338 77 366 96 c 0,19,20
 417 131 417 131 444.5 199.5 c 128,-1,21
 472 268 472 268 472 355 c 0,22,23
 472 501 472 501 411 585 c 0,24,25
 394 608 394 608 374 623.5 c 128,-1,26
 354 639 354 639 332 645 c 128,-1,27
 310 651 310 651 295 652.5 c 128,-1,28
 280 654 280 654 258 654 c 2,29,-1
 176 654 l 1,14,-1
45 416 m 1,30,-1
 297 416 l 1,31,-1
 297 349 l 1,32,-1
 45 349 l 1,33,-1
 45 416 l 1,30,-1
EndSplineSet
Validated: 5
EndChar

StartChar: multiply
Encoding: 215 215 153
Width: 600
GlyphClass: 2
Flags: W
LayerCount: 2
Fore
SplineSet
453 583 m 1,0,-1
 508 532 l 1,1,-1
 358 377 l 1,2,-1
 505 221 l 1,3,-1
 451 168 l 1,4,-1
 305 322 l 1,5,-1
 160 173 l 1,6,-1
 108 224 l 1,7,-1
 254 376 l 1,8,-1
 108 530 l 1,9,-1
 163 583 l 1,10,-1
 307 431 l 1,11,-1
 453 583 l 1,0,-1
EndSplineSet
Validated: 1
EndChar

StartChar: Oslash
Encoding: 216 216 154
Width: 600
GlyphClass: 2
Flags: W
LayerCount: 2
Fore
SplineSet
300 654 m 0,0,1
 270 654 270 654 240.5 639.5 c 128,-1,2
 211 625 211 625 184 594.5 c 128,-1,3
 157 564 157 564 140.5 506.5 c 128,-1,4
 124 449 124 449 124 373 c 0,5,6
 124 246 124 246 163 168 c 1,7,-1
 400 612 l 1,8,9
 356 654 356 654 300 654 c 0,0,1
556 360 m 0,10,11
 556 216 556 216 513 129 c 0,12,13
 479 60 479 60 422.5 24.5 c 128,-1,14
 366 -11 366 -11 304 -11 c 0,15,16
 231 -11 231 -11 170 35 c 1,17,-1
 112 -73 l 1,18,-1
 52 -42 l 1,19,-1
 120 85 l 1,20,21
 44 185 44 185 44 362 c 0,22,23
 44 444 44 444 61 509 c 128,-1,24
 78 574 78 574 104.5 614.5 c 128,-1,25
 131 655 131 655 166 682 c 128,-1,26
 201 709 201 709 235 719.5 c 128,-1,27
 269 730 269 730 304 730 c 0,28,29
 378 730 378 730 438 684 c 1,30,-1
 491 784 l 1,31,-1
 553 751 l 1,32,-1
 489 631 l 1,33,34
 502 614 502 614 512 594 c 0,35,36
 556 507 556 507 556 360 c 0,10,11
444 547 m 1,37,-1
 208 107 l 1,38,39
 251 68 251 68 305 68 c 0,40,41
 345 68 345 68 382 92 c 128,-1,42
 419 116 419 116 443 166 c 0,43,44
 475 234 475 234 475 349 c 0,45,46
 475 470 475 470 447 540 c 1,47,-1
 444 547 l 1,37,-1
EndSplineSet
Validated: 1
EndChar

StartChar: Thorn
Encoding: 222 222 160
Width: 600
GlyphClass: 2
Flags: W
LayerCount: 2
Fore
SplineSet
78 722 m 1,0,-1
 169 722 l 1,1,2
 170 720 170 720 170 717 c 0,3,4
 170 713 170 713 163 702 c 0,5,6
 160 697 160 697 160 690 c 2,7,-1
 160 586 l 1,8,-1
 298 586 l 2,9,10
 327 586 327 586 345 585 c 128,-1,11
 363 584 363 584 388 578 c 128,-1,12
 413 572 413 572 435 561 c 0,13,14
 484 536 484 536 511 487.5 c 128,-1,15
 538 439 538 439 538 382.5 c 128,-1,16
 538 326 538 326 511.5 278.5 c 128,-1,17
 485 231 485 231 436 206 c 0,18,19
 390 183 390 183 304 183 c 2,20,-1
 160 183 l 1,21,-1
 160 0 l 1,22,-1
 78 0 l 1,23,-1
 78 722 l 1,0,-1
160 510 m 1,24,-1
 160 254 l 1,25,-1
 307 254 l 2,26,27
 362 254 362 254 391 269 c 0,28,29
 422 284 422 284 438.5 314 c 128,-1,30
 455 344 455 344 455 379 c 0,31,32
 455 415 455 415 437 446.5 c 128,-1,33
 419 478 419 478 387 494 c 0,34,35
 356 510 356 510 298 510 c 2,36,-1
 160 510 l 1,24,-1
EndSplineSet
Validated: 1
EndChar

StartChar: germandbls
Encoding: 223 223 161
Width: 600
GlyphClass: 2
Flags: W
LayerCount: 2
Fore
SplineSet
74 0 m 1,0,-1
 74 490 l 2,1,2
 74 524 74 524 75 544.5 c 128,-1,3
 76 565 76 565 81.5 595 c 128,-1,4
 87 625 87 625 98 650 c 0,5,6
 124 709 124 709 175.5 742 c 128,-1,7
 227 775 227 775 287 775 c 0,8,9
 374 775 374 775 435.5 714.5 c 128,-1,10
 497 654 497 654 497 571 c 0,11,12
 497 521 497 521 472.5 479.5 c 128,-1,13
 448 438 448 438 405 416 c 1,14,15
 470 396 470 396 509 339 c 128,-1,16
 548 282 548 282 548 209 c 0,17,18
 548 115 548 115 486.5 51.5 c 128,-1,19
 425 -12 425 -12 335 -12 c 0,20,21
 270 -12 270 -12 215 24 c 1,22,-1
 256 89 l 1,23,24
 290 62 290 62 334 62 c 0,25,26
 390 62 390 62 430.5 104.5 c 128,-1,27
 471 147 471 147 471 209 c 0,28,29
 471 254 471 254 450 292 c 128,-1,30
 429 330 429 330 395 351 c 0,31,32
 358 374 358 374 293 374 c 2,33,-1
 258 374 l 1,34,-1
 258 440 l 1,35,-1
 291 440 l 2,36,37
 324 440 324 440 344 449 c 0,38,39
 377 464 377 464 397.5 498 c 128,-1,40
 418 532 418 532 418 573 c 0,41,42
 418 630 418 630 381 669 c 128,-1,43
 344 708 344 708 292 708 c 0,44,45
 227 708 227 708 187 650 c 0,46,47
 171 628 171 628 163.5 598 c 128,-1,48
 156 568 156 568 154.5 547 c 128,-1,49
 153 526 153 526 153 492 c 2,50,-1
 153 0 l 1,51,-1
 74 0 l 1,0,-1
EndSplineSet
Validated: 1
EndChar

StartChar: ae
Encoding: 230 230 168
Width: 600
GlyphClass: 2
Flags: W
LayerCount: 2
Fore
SplineSet
46 477 m 1,0,1
 70 508 70 508 105.5 524.5 c 128,-1,2
 141 541 141 541 180 541 c 0,3,4
 222 541 222 541 256 522 c 128,-1,5
 290 503 290 503 309 469 c 1,6,7
 328 502 328 502 361 521.5 c 128,-1,8
 394 541 394 541 431 541 c 0,9,10
 464 541 464 541 495.5 524 c 128,-1,11
 527 507 527 507 547 473 c 1,12,13
 562 450 562 450 569 418.5 c 128,-1,14
 576 387 576 387 577 367 c 128,-1,15
 578 347 578 347 578 311 c 2,16,-1
 578 267 l 1,17,-1
 337 257 l 1,18,-1
 337 203 l 2,19,20
 337 154 337 154 349 127 c 0,21,22
 364 94 364 94 393 74.5 c 128,-1,23
 422 55 422 55 457 55 c 0,24,25
 511 55 511 55 542 97 c 1,26,-1
 583 49 l 1,27,28
 531 -13 531 -13 451 -13 c 0,29,30
 406 -13 406 -13 367.5 8.5 c 128,-1,31
 329 30 329 30 305 67 c 1,32,33
 286 30 286 30 251 8.5 c 128,-1,34
 216 -13 216 -13 174 -13 c 0,35,36
 111 -13 111 -13 66.5 32.5 c 128,-1,37
 22 78 22 78 22 143 c 0,38,39
 22 191 22 191 49 233.5 c 128,-1,40
 76 276 76 276 128 300 c 0,41,42
 171 319 171 319 240 322 c 2,43,-1
 266 323 l 1,44,-1
 266 353 l 2,45,46
 266 391 266 391 258 413 c 0,47,48
 248 442 248 442 225 459 c 128,-1,49
 202 476 202 476 174 476 c 0,50,51
 150 476 150 476 126.5 462.5 c 128,-1,52
 103 449 103 449 87 426 c 1,53,-1
 46 477 l 1,0,1
266 254 m 1,54,-1
 241 253 l 2,55,56
 180 251 180 251 151 236 c 0,57,58
 124 222 124 222 110 198 c 128,-1,59
 96 174 96 174 96 148 c 0,60,61
 96 110 96 110 121.5 84 c 128,-1,62
 147 58 147 58 182 58 c 0,63,64
 207 58 207 58 228 72 c 128,-1,65
 249 86 249 86 259 112 c 0,66,67
 262 120 262 120 263.5 128 c 128,-1,68
 265 136 265 136 265.5 147 c 128,-1,69
 266 158 266 158 266 165 c 128,-1,70
 266 172 266 172 266 187.5 c 128,-1,71
 266 203 266 203 266 210 c 2,72,-1
 266 254 l 1,54,-1
337 323 m 1,73,-1
 511 330 l 1,74,-1
 511 353 l 2,75,76
 511 400 511 400 500 425 c 0,77,78
 490 449 490 449 471 462.5 c 128,-1,79
 452 476 452 476 430 476 c 0,80,81
 388 476 388 476 359 433 c 0,82,83
 337 400 337 400 337 343 c 2,84,-1
 337 323 l 1,73,-1
EndSplineSet
Validated: 1
EndChar

StartChar: eth
Encoding: 240 240 178
Width: 600
GlyphClass: 2
Flags: W
LayerCount: 2
Fore
SplineSet
305 470 m 0,0,1
 241 470 241 470 193 417.5 c 128,-1,2
 145 365 145 365 145 269 c 0,3,4
 145 172 145 172 192.5 115 c 128,-1,5
 240 58 240 58 306 58 c 0,6,7
 333 58 333 58 358 69 c 128,-1,8
 383 80 383 80 406.5 102.5 c 128,-1,9
 430 125 430 125 444.5 168 c 128,-1,10
 459 211 459 211 459 269 c 0,11,12
 459 326 459 326 444 367.5 c 128,-1,13
 429 409 429 409 404.5 430 c 128,-1,14
 380 451 380 451 355 460.5 c 128,-1,15
 330 470 330 470 305 470 c 0,0,1
412 661 m 1,16,17
 543 512 543 512 543 293 c 0,18,19
 543 169 543 169 498 95 c 1,20,21
 467 42 467 42 416 14 c 128,-1,22
 365 -14 365 -14 307 -14 c 0,23,24
 204 -14 204 -14 130.5 63.5 c 128,-1,25
 57 141 57 141 57 258 c 0,26,27
 57 376 57 376 128.5 458.5 c 128,-1,28
 200 541 200 541 298 541 c 0,29,30
 381 541 381 541 437 481 c 1,31,32
 402 570 402 570 338 640 c 1,33,-1
 190 598 l 1,34,-1
 169 653 l 1,35,-1
 289 686 l 1,36,37
 235 731 235 731 171 760 c 1,38,-1
 265 779 l 1,39,40
 320 748 320 748 366 707 c 1,41,-1
 491 741 l 1,42,-1
 511 689 l 1,43,-1
 412 661 l 1,16,17
EndSplineSet
Validated: 1
EndChar

StartChar: divide
Encoding: 247 247 185
Width: 600
GlyphClass: 2
Flags: W
LayerCount: 2
Fore
SplineSet
92 403 m 1,0,-1
 509 403 l 1,1,-1
 509 326 l 1,2,-1
 92 326 l 1,3,-1
 92 403 l 1,0,-1
358 541 m 128,-1,5
 358 519 358 519 343 504 c 128,-1,6
 328 489 328 489 306 489 c 128,-1,7
 284 489 284 489 269 504 c 128,-1,8
 254 519 254 519 254 541 c 128,-1,9
 254 563 254 563 269 578 c 128,-1,10
 284 593 284 593 306 593 c 128,-1,11
 328 593 328 593 343 578 c 128,-1,4
 358 563 358 563 358 541 c 128,-1,5
358 184 m 128,-1,13
 358 162 358 162 343 147 c 128,-1,14
 328 132 328 132 306 132 c 128,-1,15
 284 132 284 132 269 147 c 128,-1,16
 254 162 254 162 254 184 c 128,-1,17
 254 206 254 206 269 221 c 128,-1,18
 284 236 284 236 306 236 c 128,-1,19
 328 236 328 236 343 221 c 128,-1,12
 358 206 358 206 358 184 c 128,-1,13
EndSplineSet
Validated: 1
EndChar

StartChar: oslash
Encoding: 248 248 186
Width: 600
GlyphClass: 2
Flags: W
LayerCount: 2
Fore
SplineSet
302 470 m 0,0,1
 237 470 237 470 191 415.5 c 128,-1,2
 145 361 145 361 145 268 c 0,3,4
 145 185 145 185 184 127 c 1,5,-1
 362 456 l 1,6,7
 333 470 333 470 302 470 c 0,0,1
543 262 m 0,8,9
 543 136 543 136 473.5 61 c 128,-1,10
 404 -14 404 -14 305 -14 c 0,11,12
 249 -14 249 -14 198 12 c 1,13,-1
 151 -74 l 1,14,-1
 91 -43 l 1,15,-1
 142 51 l 1,16,17
 57 132 57 132 57 261 c 0,18,19
 57 381 57 381 130.5 461 c 128,-1,20
 204 541 204 541 307 541 c 0,21,22
 355 541 355 541 398 522 c 1,23,-1
 441 601 l 1,24,-1
 503 568 l 1,25,-1
 457 484 l 1,26,27
 543 406 543 406 543 262 c 0,8,9
416 410 m 1,28,-1
 234 78 l 1,29,30
 268 58 268 58 306 58 c 0,31,32
 368 58 368 58 413.5 111 c 128,-1,33
 459 164 459 164 459 259 c 0,34,35
 459 353 459 353 416 410 c 1,28,-1
EndSplineSet
Validated: 1
EndChar

StartChar: thorn
Encoding: 254 254 192
Width: 600
GlyphClass: 2
Flags: W
LayerCount: 2
Fore
SplineSet
80 770 m 1,0,-1
 172 770 l 1,1,2
 172 762 172 762 168 751.5 c 128,-1,3
 164 741 164 741 164 732 c 2,4,-1
 164 448 l 1,5,6
 191 491 191 491 235.5 516 c 128,-1,7
 280 541 280 541 331 541 c 0,8,9
 372 541 372 541 409 524.5 c 128,-1,10
 446 508 446 508 477.5 476.5 c 128,-1,11
 509 445 509 445 527.5 391.5 c 128,-1,12
 546 338 546 338 546 271 c 0,13,14
 546 201 546 201 526.5 145 c 128,-1,15
 507 89 507 89 475 55 c 128,-1,16
 443 21 443 21 404.5 3.5 c 128,-1,17
 366 -14 366 -14 324 -14 c 0,18,19
 276 -14 276 -14 234 8.5 c 128,-1,20
 192 31 192 31 165 70 c 1,21,-1
 165 -193 l 1,22,-1
 80 -193 l 1,23,-1
 80 770 l 1,0,-1
301 470 m 0,24,25
 260 470 260 470 226.5 449 c 128,-1,26
 193 428 193 428 178 393 c 0,27,28
 164 360 164 360 164 289 c 0,29,30
 164 240 164 240 164.5 219.5 c 128,-1,31
 165 199 165 199 168.5 174.5 c 128,-1,32
 172 150 172 150 179 133 c 0,33,34
 194 98 194 98 227.5 79 c 128,-1,35
 261 60 261 60 300 60 c 0,36,37
 318 60 318 60 336 64 c 128,-1,38
 354 68 354 68 377 80.5 c 128,-1,39
 400 93 400 93 417.5 113 c 128,-1,40
 435 133 435 133 447 169.5 c 128,-1,41
 459 206 459 206 459 253 c 0,42,43
 459 308 459 308 447 349.5 c 128,-1,44
 435 391 435 391 417.5 413 c 128,-1,45
 400 435 400 435 376.5 448.5 c 128,-1,46
 353 462 353 462 335.5 466 c 128,-1,47
 318 470 318 470 301 470 c 0,24,25
EndSplineSet
Validated: 1
EndChar

StartChar: minus
Encoding: 8722 8722 194
Width: 600
GlyphClass: 2
Flags: W
LayerCount: 2
Fore
SplineSet
62 398 m 5,0,-1
 538 398 l 5,1,-1
 538 327 l 5,2,-1
 62 327 l 5,3,-1
 62 398 l 5,0,-1
EndSplineSet
Validated: 1
EndChar

StartChar: uni02CB
Encoding: 715 715 197
Width: 600
GlyphClass: 2
Flags: W
LayerCount: 2
Fore
SplineSet
292 810 m 1,0,-1
 394 640 l 1,1,-1
 336 605 l 1,2,-1
 219 761 l 1,3,-1
 292 810 l 1,0,-1
EndSplineSet
Validated: 1
EndChar

StartChar: acute
Encoding: 180 180 198
Width: 600
GlyphClass: 2
Flags: W
LayerCount: 2
Fore
SplineSet
348 810 m 1,0,-1
 421 761 l 1,1,-1
 304 605 l 1,2,-1
 246 640 l 1,3,-1
 348 810 l 1,0,-1
EndSplineSet
Validated: 1
EndChar

StartChar: circumflex
Encoding: 710 710 199
Width: 600
GlyphClass: 2
Flags: W
LayerCount: 2
Fore
SplineSet
165 631 m 1,0,-1
 294 794 l 1,1,-1
 319 794 l 1,2,-1
 447 630 l 1,3,-1
 393 590 l 1,4,-1
 303 709 l 1,5,-1
 209 591 l 1,6,-1
 165 631 l 1,0,-1
EndSplineSet
Validated: 1
EndChar

StartChar: tilde
Encoding: 732 732 200
Width: 600
GlyphClass: 2
Flags: W
LayerCount: 2
Fore
SplineSet
167 646 m 1,0,-1
 115 683 l 1,1,2
 178 783 178 783 246 783 c 0,3,4
 267 783 267 783 288 772.5 c 128,-1,5
 309 762 309 762 317.5 754.5 c 128,-1,6
 326 747 326 747 339 734 c 0,7,8
 374 697 374 697 397 697 c 0,9,10
 405 697 405 697 411.5 699.5 c 128,-1,11
 418 702 418 702 425.5 709.5 c 128,-1,12
 433 717 433 717 437 721 c 128,-1,13
 441 725 441 725 450.5 739 c 128,-1,14
 460 753 460 753 464 758 c 1,15,-1
 507 712 l 1,16,17
 473 669 473 669 447.5 649.5 c 128,-1,18
 422 630 422 630 393 630 c 0,19,20
 370 630 370 630 348 643.5 c 128,-1,21
 326 657 326 657 311.5 673.5 c 128,-1,22
 297 690 297 690 278.5 703.5 c 128,-1,23
 260 717 260 717 243 717 c 0,24,25
 222 717 222 717 207 701.5 c 128,-1,26
 192 686 192 686 167 646 c 1,0,-1
EndSplineSet
Validated: 1
EndChar

StartChar: uni02C9
Encoding: 713 713 201
Width: 600
GlyphClass: 2
Flags: W
LayerCount: 2
Fore
SplineSet
153 720 m 1,0,-1
 447 720 l 1,1,-1
 447 655 l 1,2,-1
 153 655 l 1,3,-1
 153 720 l 1,0,-1
EndSplineSet
Validated: 1
EndChar

StartChar: breve
Encoding: 728 728 202
Width: 600
GlyphClass: 2
Flags: W
LayerCount: 2
Fore
SplineSet
169 749 m 1,0,1
 191 714 191 714 225 690.5 c 128,-1,2
 259 667 259 667 299 667 c 0,3,4
 374 667 374 667 437 748 c 1,5,-1
 470 700 l 1,6,7
 439 658 439 658 394.5 632.5 c 128,-1,8
 350 607 350 607 299 607 c 0,9,10
 252 607 252 607 207 630.5 c 128,-1,11
 162 654 162 654 127 696 c 1,12,-1
 169 749 l 1,0,1
EndSplineSet
Validated: 1
EndChar

StartChar: dotaccent
Encoding: 729 729 203
Width: 600
GlyphClass: 2
Flags: W
LayerCount: 2
Fore
SplineSet
305 760 m 128,-1,1
 330 760 330 760 347.5 742.5 c 128,-1,2
 365 725 365 725 365 700.5 c 128,-1,3
 365 676 365 676 347.5 658.5 c 128,-1,4
 330 641 330 641 305 641 c 128,-1,5
 280 641 280 641 262.5 658.5 c 128,-1,6
 245 676 245 676 245 700.5 c 128,-1,7
 245 725 245 725 262.5 742.5 c 128,-1,0
 280 760 280 760 305 760 c 128,-1,1
EndSplineSet
Validated: 1
EndChar

StartChar: dieresis
Encoding: 168 168 204
Width: 600
GlyphClass: 2
Flags: W
LayerCount: 2
Fore
SplineSet
257 711.5 m 128,-1,1
 257 687 257 687 240 670 c 128,-1,2
 223 653 223 653 198.5 653 c 128,-1,3
 174 653 174 653 157 670 c 128,-1,4
 140 687 140 687 140 711.5 c 128,-1,5
 140 736 140 736 157 753 c 128,-1,6
 174 770 174 770 198.5 770 c 128,-1,7
 223 770 223 770 240 753 c 128,-1,0
 257 736 257 736 257 711.5 c 128,-1,1
463 711.5 m 128,-1,9
 463 687 463 687 446 670 c 128,-1,10
 429 653 429 653 405 653 c 128,-1,11
 381 653 381 653 364 670 c 128,-1,12
 347 687 347 687 347 711.5 c 128,-1,13
 347 736 347 736 364 753 c 128,-1,14
 381 770 381 770 405 770 c 128,-1,15
 429 770 429 770 446 753 c 128,-1,8
 463 736 463 736 463 711.5 c 128,-1,9
EndSplineSet
Validated: 1
EndChar

StartChar: ring
Encoding: 730 730 206
Width: 600
GlyphClass: 2
Flags: W
LayerCount: 2
Fore
SplineSet
413 701 m 128,-1,1
 413 659 413 659 382 629 c 128,-1,2
 351 599 351 599 307 599 c 128,-1,3
 263 599 263 599 232 629 c 128,-1,4
 201 659 201 659 201 701 c 128,-1,5
 201 743 201 743 232 773 c 128,-1,6
 263 803 263 803 307 803 c 128,-1,7
 351 803 351 803 382 773 c 128,-1,0
 413 743 413 743 413 701 c 128,-1,1
260 702 m 256,8,9
 260 680 260 680 274 664.5 c 128,-1,10
 288 649 288 649 308 649 c 128,-1,11
 328 649 328 649 342 664.5 c 128,-1,12
 356 680 356 680 356 702 c 256,13,14
 356 724 356 724 342 739.5 c 128,-1,15
 328 755 328 755 308 755 c 128,-1,16
 288 755 288 755 274 739.5 c 128,-1,17
 260 724 260 724 260 702 c 256,8,9
EndSplineSet
Validated: 1
EndChar

StartChar: cedilla
Encoding: 184 184 207
Width: 600
GlyphClass: 2
Flags: W
LayerCount: 2
Fore
SplineSet
313 0 m 1,0,-1
 363 0 l 1,1,-1
 357 -55 l 1,2,-1
 376 -56 l 2,3,4
 406 -58 406 -58 421 -65 c 0,5,6
 455 -82 455 -82 455 -119 c 0,7,8
 455 -153 455 -153 422 -179 c 128,-1,9
 389 -205 389 -205 329 -205 c 0,10,11
 253 -205 253 -205 192 -162 c 1,12,-1
 221 -114 l 1,13,14
 272 -155 272 -155 336 -155 c 0,15,16
 366 -155 366 -155 377.5 -146 c 128,-1,17
 389 -137 389 -137 389 -127 c 0,18,19
 389 -114 389 -114 376 -107 c 1,20,21
 364 -99 364 -99 334 -99 c 2,22,-1
 300 -99 l 1,23,-1
 313 0 l 1,0,-1
EndSplineSet
Validated: 1
EndChar

StartChar: ogonek
Encoding: 731 731 208
Width: 600
GlyphClass: 2
Flags: W
LayerCount: 2
Fore
SplineSet
422 0 m 1,0,-1
 499 0 l 1,1,2
 456 -38 456 -38 422 -78 c 0,3,4
 402 -100 402 -100 402 -118 c 0,5,6
 402 -132 402 -132 411.5 -141.5 c 128,-1,7
 421 -151 421 -151 436 -151 c 0,8,9
 447 -151 447 -151 464 -145 c 0,10,11
 486 -137 486 -137 501 -124 c 1,12,-1
 501 -177 l 1,13,14
 470 -204 470 -204 421 -204 c 0,15,16
 378 -204 378 -204 354 -184 c 128,-1,17
 330 -164 330 -164 330 -133 c 0,18,19
 330 -76 330 -76 422 0 c 1,0,-1
EndSplineSet
Validated: 1
EndChar

StartChar: dotlessi
Encoding: 305 305 210
Width: 600
GlyphClass: 2
Flags: W
LayerCount: 2
Fore
SplineSet
133 530 m 1,0,-1
 345 530 l 1,1,-1
 345 67 l 1,2,-1
 469 67 l 1,3,-1
 469 0 l 1,4,-1
 126 0 l 1,5,-1
 126 67 l 1,6,-1
 261 67 l 1,7,-1
 261 462 l 1,8,-1
 133 462 l 1,9,-1
 133 530 l 1,0,-1
EndSplineSet
Validated: 1
EndChar

StartChar: guilsinglleft
Encoding: 8249 8249 211
Width: 600
GlyphClass: 2
Flags: W
LayerCount: 2
Fore
SplineSet
178 293 m 1,0,-1
 354 464 l 1,1,-1
 399 416 l 1,2,-1
 259 279 l 1,3,-1
 407 117 l 1,4,-1
 361 71 l 1,5,-1
 178 266 l 1,6,-1
 178 293 l 1,0,-1
EndSplineSet
Validated: 1
EndChar

StartChar: circumflex.cap
Encoding: 1114115 -1 213
Width: 600
GlyphClass: 2
Flags: W
LayerCount: 2
Fore
SplineSet
142 659 m 1,0,-1
 294 774 l 1,1,-1
 319 774 l 1,2,-1
 462 661 l 1,3,-1
 424 617 l 1,4,-1
 304 699 l 1,5,-1
 175 620 l 1,6,-1
 142 659 l 1,0,-1
EndSplineSet
Validated: 1
EndChar

StartChar: acute.cap
Encoding: 1114118 -1 216
Width: 600
GlyphClass: 2
Flags: W
LayerCount: 2
Fore
SplineSet
387 779 m 1,0,-1
 433 698 l 1,1,-1
 237 627 l 1,2,-1
 210 675 l 1,3,-1
 387 779 l 1,0,-1
EndSplineSet
Validated: 1
EndChar

StartChar: currency
Encoding: 164 164 218
Width: 600
GlyphClass: 2
Flags: W
LayerCount: 2
Fore
SplineSet
301 516 m 128,-1,1
 253 516 253 516 218.5 482 c 128,-1,2
 184 448 184 448 184 400 c 128,-1,3
 184 352 184 352 218.5 318 c 128,-1,4
 253 284 253 284 301 284 c 128,-1,5
 349 284 349 284 383 318 c 128,-1,6
 417 352 417 352 417 400 c 128,-1,7
 417 448 417 448 383 482 c 128,-1,0
 349 516 349 516 301 516 c 128,-1,1
89 570 m 1,8,-1
 130 611 l 1,9,-1
 195 546 l 1,10,11
 243 580 243 580 301 580 c 0,12,13
 358 580 358 580 405 547 c 1,14,-1
 469 611 l 1,15,-1
 510 570 l 1,16,-1
 446 506 l 1,17,18
 481 458 481 458 481 400 c 256,19,20
 481 342 481 342 447 295 c 1,21,-1
 510 231 l 1,22,-1
 469 190 l 1,23,-1
 405 254 l 1,24,25
 358 220 358 220 301 220 c 0,26,27
 242 220 242 220 195 255 c 1,28,-1
 130 190 l 1,29,-1
 89 231 l 1,30,-1
 154 296 l 1,31,32
 121 343 121 343 121 400 c 256,33,34
 121 457 121 457 154 504 c 1,35,-1
 89 570 l 1,8,-1
EndSplineSet
Validated: 1
EndChar

StartChar: brokenbar
Encoding: 166 166 219
Width: 600
GlyphClass: 2
Flags: W
LayerCount: 2
Fore
SplineSet
261 756 m 1,0,-1
 339 756 l 1,1,-1
 339 342 l 1,2,-1
 261 342 l 1,3,-1
 261 756 l 1,0,-1
339 -175 m 1,4,-1
 261 -175 l 1,5,-1
 261 227 l 1,6,-1
 339 227 l 1,7,-1
 339 -175 l 1,4,-1
EndSplineSet
Validated: 1
EndChar

StartChar: Lslash
Encoding: 321 321 224
Width: 600
GlyphClass: 2
Flags: W
LayerCount: 2
Fore
SplineSet
95 722 m 1,0,-1
 189 722 l 1,1,2
 189 720 189 720 189 719 c 0,3,4
 189 712 189 712 184 702.5 c 128,-1,5
 179 693 179 693 179 683 c 2,6,-1
 179 381 l 1,7,-1
 371 443 l 2,8,9
 391 450 391 450 401 454 c 1,10,-1
 401 380 l 1,11,-1
 179 309 l 1,12,-1
 179 69 l 1,13,-1
 527 69 l 1,14,-1
 527 -1 l 1,15,-1
 95 -1 l 1,16,-1
 95 282 l 1,17,-1
 33 262 l 1,18,-1
 33 333 l 1,19,-1
 95 353 l 1,20,-1
 95 722 l 1,0,-1
EndSplineSet
Validated: 1
EndChar

StartChar: dcaron
Encoding: 271 271 250
Width: 600
GlyphClass: 2
Flags: W
LayerCount: 2
Fore
SplineSet
368 452 m 1,0,-1
 368 771 l 1,1,-1
 447 771 l 1,2,-1
 447 49 l 2,3,4
 447 19 447 19 452 0 c 1,5,-1
 369 0 l 1,6,7
 364 15 364 15 364 39 c 2,8,-1
 364 85 l 1,9,10
 339 42 339 42 297.5 15 c 128,-1,11
 256 -12 256 -12 209 -12 c 0,12,13
 125 -12 125 -12 67.5 68 c 128,-1,14
 10 148 10 148 10 269 c 0,15,16
 10 394 10 394 72.5 468.5 c 128,-1,17
 135 543 135 543 220 543 c 0,18,19
 268 543 268 543 307.5 518.5 c 128,-1,20
 347 494 347 494 368 452 c 1,0,-1
224 475 m 0,21,22
 168 475 168 475 129.5 419.5 c 128,-1,23
 91 364 91 364 91 279 c 0,24,25
 91 193 91 193 128.5 127.5 c 128,-1,26
 166 62 166 62 228 62 c 0,27,28
 260 62 260 62 289 81.5 c 128,-1,29
 318 101 318 101 335 130 c 0,30,31
 361 172 361 172 361 255 c 0,32,33
 361 314 361 314 358 343.5 c 128,-1,34
 355 373 355 373 344 397 c 0,35,36
 327 432 327 432 292.5 453.5 c 128,-1,37
 258 475 258 475 224 475 c 0,21,22
598 701 m 0,38,39
 598 626 598 626 499 526 c 1,40,-1
 467 554 l 1,41,42
 493 578 493 578 514 612 c 0,43,44
 528 635 528 635 528 651 c 0,45,46
 528 669 528 669 506 684 c 0,47,48
 480 701 480 701 480 725 c 0,49,50
 480 746 480 746 495.5 762 c 128,-1,51
 511 778 511 778 533 778 c 0,52,53
 559 778 559 778 578.5 756.5 c 128,-1,54
 598 735 598 735 598 701 c 0,38,39
EndSplineSet
Validated: 1
EndChar

StartChar: eogonek
Encoding: 281 281 251
Width: 600
GlyphClass: 2
Flags: W
LayerCount: 2
Fore
SplineSet
310 542 m 0,0,1
 344 542 344 542 376 532.5 c 128,-1,2
 408 523 408 523 438 502 c 128,-1,3
 468 481 468 481 489.5 442.5 c 128,-1,4
 511 404 511 404 519 353 c 1,5,6
 528 305 528 305 523 253 c 1,7,-1
 147 253 l 1,8,9
 150 197 150 197 168 156 c 128,-1,10
 186 115 186 115 213.5 94.5 c 128,-1,11
 241 74 241 74 269 64.5 c 128,-1,12
 297 55 297 55 327 55 c 0,13,14
 411 55 411 55 464 115 c 1,15,-1
 510 70 l 1,16,-1
 469 19 l 2,17,18
 466 15 466 15 460 7 c 0,19,20
 437 -21 437 -21 426.5 -35 c 128,-1,21
 416 -49 416 -49 406.5 -68 c 128,-1,22
 397 -87 397 -87 397 -102 c 0,23,24
 397 -121 397 -121 409.5 -134 c 128,-1,25
 422 -147 422 -147 442 -147 c 0,26,27
 467 -147 467 -147 501 -125 c 1,28,-1
 500 -182 l 1,29,30
 462 -203 462 -203 424 -203 c 0,31,32
 381 -203 381 -203 354.5 -178 c 128,-1,33
 328 -153 328 -153 328 -117 c 0,34,35
 328 -62 328 -62 392 -1 c 1,36,37
 353 -12 353 -12 313 -12 c 0,38,39
 205 -12 205 -12 135.5 61 c 128,-1,40
 66 134 66 134 66 261 c 0,41,42
 66 330 66 330 86.5 385 c 128,-1,43
 107 440 107 440 141 473.5 c 128,-1,44
 175 507 175 507 218 524.5 c 128,-1,45
 261 542 261 542 310 542 c 0,0,1
150 317 m 1,46,-1
 441 317 l 1,47,48
 449 382 449 382 408.5 430 c 128,-1,49
 368 478 368 478 304 478 c 0,50,51
 281 478 281 478 258 470 c 128,-1,52
 235 462 235 462 212 444.5 c 128,-1,53
 189 427 189 427 172.5 394 c 128,-1,54
 156 361 156 361 150 317 c 1,46,-1
EndSplineSet
Validated: 33
EndChar

StartChar: lslash
Encoding: 322 322 265
Width: 600
GlyphClass: 2
Flags: W
LayerCount: 2
Fore
SplineSet
108 770 m 1,0,-1
 342 770 l 1,1,-1
 342 429 l 1,2,-1
 417 455 l 2,3,4
 431 460 431 460 448 472 c 1,5,-1
 448 387 l 1,6,-1
 342 351 l 1,7,-1
 342 67 l 1,8,-1
 498 67 l 1,9,-1
 498 0 l 1,10,-1
 101 0 l 1,11,-1
 101 67 l 1,12,-1
 258 67 l 1,13,-1
 258 323 l 1,14,-1
 167 292 l 1,15,-1
 167 368 l 1,16,-1
 258 400 l 1,17,-1
 258 703 l 1,18,-1
 108 703 l 1,19,-1
 108 770 l 1,0,-1
EndSplineSet
Validated: 1
EndChar

StartChar: kgreenlandic
Encoding: 312 312 267
Width: 600
GlyphClass: 2
Flags: W
LayerCount: 2
Fore
SplineSet
87 529 m 1,0,-1
 182 529 l 1,1,2
 182 528 182 528 182 527 c 0,3,4
 182 522 182 522 175 512 c 0,5,6
 171 506 171 506 171 499 c 2,7,-1
 171 286 l 1,8,-1
 436 532 l 1,9,10
 460 526 460 526 498 526 c 2,11,-1
 528 526 l 1,12,-1
 305 316 l 1,13,-1
 565 -1 l 1,14,15
 561 -1 561 -1 557 -1 c 2,16,17
 557 -1 557 -1 457 -5 c 1,18,-1
 241 265 l 1,19,-1
 171 200 l 1,20,-1
 171 -1 l 1,21,-1
 87 -1 l 1,22,-1
 87 529 l 1,0,-1
EndSplineSet
Validated: 1
EndChar

StartChar: dotlessj
Encoding: 567 567 268
Width: 600
GlyphClass: 2
Flags: W
LayerCount: 2
Fore
SplineSet
156 530 m 1,0,-1
 437 530 l 1,1,-1
 437 37 l 2,2,3
 437 -50 437 -50 413 -96 c 0,4,5
 387 -147 387 -147 337 -174.5 c 128,-1,6
 287 -202 287 -202 228 -202 c 0,7,8
 126 -202 126 -202 66 -128 c 1,9,-1
 120 -56 l 1,10,11
 124 -59 124 -59 126 -67 c 128,-1,12
 128 -75 128 -75 130 -77 c 0,13,14
 135 -84 135 -84 144.5 -94.5 c 128,-1,15
 154 -105 154 -105 179 -117.5 c 128,-1,16
 204 -130 204 -130 233 -130 c 0,17,18
 267 -130 267 -130 296 -112.5 c 128,-1,19
 325 -95 325 -95 339 -63 c 1,20,21
 353 -34 353 -34 353 21 c 2,22,-1
 353 461 l 1,23,-1
 156 461 l 1,24,-1
 156 530 l 1,0,-1
EndSplineSet
Validated: 1
EndChar

StartChar: eng
Encoding: 331 331 269
Width: 600
GlyphClass: 2
Flags: W
LayerCount: 2
Fore
SplineSet
89 0 m 1,0,-1
 89 529 l 1,1,-1
 174 529 l 1,2,-1
 174 436 l 1,3,4
 205 483 205 483 251.5 512.5 c 128,-1,5
 298 542 298 542 350 542 c 0,6,7
 396 542 396 542 433.5 517.5 c 128,-1,8
 471 493 471 493 491 449 c 0,9,10
 510 405 510 405 510 321 c 2,11,-1
 510 65 l 2,12,13
 510 -31 510 -31 489 -81 c 1,14,15
 466 -139 466 -139 418 -171.5 c 128,-1,16
 370 -204 370 -204 314 -204 c 0,17,18
 251 -204 251 -204 201 -165 c 1,19,-1
 241 -87 l 1,20,21
 245 -88 245 -88 246.5 -90.5 c 128,-1,22
 248 -93 248 -93 249 -97 c 128,-1,23
 250 -101 250 -101 251 -102 c 0,24,25
 253 -105 253 -105 260.5 -110 c 128,-1,26
 268 -115 268 -115 284 -120.5 c 128,-1,27
 300 -126 300 -126 316 -126 c 0,28,29
 371 -126 371 -126 403 -77 c 1,30,31
 414 -58 414 -58 420 -33.5 c 128,-1,32
 426 -9 426 -9 427 7.5 c 128,-1,33
 428 24 428 24 428 52 c 2,34,-1
 428 319 l 2,35,36
 428 344 428 344 427 359.5 c 128,-1,37
 426 375 426 375 419 397.5 c 128,-1,38
 412 420 412 420 399 436 c 0,39,40
 371 470 371 470 327 470 c 0,41,42
 290 470 290 470 255 446 c 128,-1,43
 220 422 220 422 200 396 c 0,44,45
 174 361 174 361 174 305 c 2,46,-1
 174 0 l 1,47,-1
 89 0 l 1,0,-1
EndSplineSet
Validated: 1
EndChar

StartChar: uparrow
Encoding: 8593 8593 275
Width: 600
GlyphClass: 2
Flags: W
LayerCount: 2
Fore
SplineSet
78 468 m 5,0,-1
 295 742 l 5,1,-1
 320 742 l 5,2,-1
 521 466 l 5,3,-1
 463 427 l 5,4,-1
 340 594 l 5,5,-1
 340 -39 l 1,6,-1
 263 -39 l 1,7,-1
 263 594 l 5,8,-1
 128 427 l 5,9,-1
 78 468 l 5,0,-1
EndSplineSet
Validated: 1
EndChar

StartChar: visiblespace
Encoding: 9251 9251 277
Width: 600
GlyphClass: 2
Flags: W
LayerCount: 2
Fore
SplineSet
66 81 m 1,0,-1
 120 81 l 1,1,-1
 120 -24 l 1,2,-1
 478 -24 l 1,3,-1
 478 81 l 1,4,-1
 534 81 l 1,5,-1
 534 -76 l 1,6,-1
 66 -76 l 1,7,-1
 66 81 l 1,0,-1
EndSplineSet
Validated: 1
EndChar

StartChar: r.serif
Encoding: 1114119 -1 278
Width: 600
GlyphClass: 2
Flags: W
LayerCount: 2
Fore
SplineSet
85 529 m 1,0,-1
 244 529 l 1,1,-1
 241 427 l 1,2,3
 266 478 266 478 313 509.5 c 128,-1,4
 360 541 360 541 416 541 c 0,5,6
 495 541 495 541 553 484 c 1,7,-1
 514 404 l 1,8,9
 509 409 509 409 502.5 418.5 c 128,-1,10
 496 428 496 428 495 429 c 0,11,12
 465 470 465 470 411 470 c 0,13,14
 339 470 339 470 283 390 c 0,15,16
 264 363 264 363 254 337.5 c 128,-1,17
 244 312 244 312 242.5 299.5 c 128,-1,18
 241 287 241 287 241 267 c 2,19,-1
 241 62 l 1,20,-1
 352 62 l 1,21,-1
 352 -1 l 1,22,-1
 83 -1 l 1,23,-1
 83 62 l 1,24,-1
 158 62 l 1,25,-1
 158 462 l 1,26,-1
 85 462 l 1,27,-1
 85 529 l 1,0,-1
EndSplineSet
Validated: 1
EndChar

StartChar: hungarumlaut.cap
Encoding: 1114120 -1 280
Width: 600
GlyphClass: 2
Flags: W
LayerCount: 2
Fore
SplineSet
486 939 m 1,0,-1
 540 864 l 1,1,-1
 371 747 l 1,2,-1
 334 795 l 1,3,-1
 486 939 l 1,0,-1
280 939 m 1,4,-1
 334 864 l 1,5,-1
 165 747 l 1,6,-1
 128 795 l 1,7,-1
 280 939 l 1,4,-1
EndSplineSet
Validated: 1
EndChar

StartChar: uni2074
Encoding: 8308 8308 281
Width: 600
GlyphClass: 2
Flags: W
LayerCount: 2
Fore
SplineSet
360 743 m 1,0,-1
 405 743 l 1,1,-1
 405 459 l 1,2,-1
 478 459 l 1,3,-1
 478 404 l 1,4,-1
 405 404 l 1,5,-1
 405 292 l 1,6,-1
 339 292 l 1,7,-1
 339 405 l 1,8,-1
 128 405 l 1,9,-1
 128 446 l 1,10,-1
 360 743 l 1,0,-1
340 630 m 1,11,-1
 204 459 l 1,12,-1
 340 459 l 1,13,-1
 340 630 l 1,11,-1
EndSplineSet
Validated: 1
EndChar

StartChar: fraction
Encoding: 8260 8260 282
Width: 600
GlyphClass: 2
Flags: W
LayerCount: 2
Fore
SplineSet
98 -19 m 1,0,-1
 461 770 l 1,1,-1
 516 739 l 1,2,-1
 152 -49 l 1,3,-1
 98 -19 l 1,0,-1
EndSplineSet
Validated: 1
EndChar

StartChar: Eng
Encoding: 330 330 283
Width: 600
GlyphClass: 2
Flags: W
LayerCount: 2
Fore
SplineSet
69 0 m 1,0,-1
 69 722 l 1,1,-1
 154 722 l 1,2,-1
 154 628 l 1,3,4
 185 677 185 677 235.5 706 c 128,-1,5
 286 735 286 735 342 735 c 0,6,7
 396 735 396 735 440.5 707 c 128,-1,8
 485 679 485 679 508 629 c 0,9,10
 530 582 530 582 530 491 c 2,11,-1
 530 203 l 2,12,13
 530 125 530 125 510 83 c 0,14,15
 489 38 489 38 447.5 13 c 128,-1,16
 406 -12 406 -12 355 -12 c 0,17,18
 300 -12 300 -12 253 16 c 1,19,-1
 294 88 l 1,20,21
 298 86 298 86 301 81 c 128,-1,22
 304 76 304 76 306 75 c 0,23,24
 326 60 326 60 357 60 c 0,25,26
 382 60 382 60 403 73.5 c 128,-1,27
 424 87 424 87 435 111 c 0,28,29
 448 139 448 139 448 197 c 2,30,-1
 448 489 l 2,31,32
 448 562 448 562 430 597 c 0,33,34
 415 628 415 628 387.5 645 c 128,-1,35
 360 662 360 662 327 662 c 0,36,37
 284 662 284 662 243.5 635.5 c 128,-1,38
 203 609 203 609 180 577 c 0,39,40
 154 539 154 539 154 478 c 2,41,-1
 154 0 l 1,42,-1
 69 0 l 1,0,-1
EndSplineSet
Validated: 1
EndChar

StartChar: dcroat
Encoding: 273 273 284
Width: 600
GlyphClass: 2
Flags: W
LayerCount: 2
Fore
SplineSet
281 475 m 0,0,1
 256 475 256 475 232 465.5 c 128,-1,2
 208 456 208 456 185.5 435.5 c 128,-1,3
 163 415 163 415 149 375.5 c 128,-1,4
 135 336 135 336 135 283 c 0,5,6
 135 221 135 221 149.5 175.5 c 128,-1,7
 164 130 164 130 187.5 106.5 c 128,-1,8
 211 83 211 83 235 72.5 c 128,-1,9
 259 62 259 62 284 62 c 0,10,11
 327 62 327 62 363 89 c 128,-1,12
 399 116 399 116 414 162 c 0,13,14
 425 197 425 197 425 259 c 0,15,16
 425 338 425 338 416 372 c 0,17,18
 402 425 402 425 362.5 450 c 128,-1,19
 323 475 323 475 281 475 c 0,0,1
510 630 m 1,20,-1
 511 49 l 2,21,22
 511 19 511 19 516 0 c 1,23,-1
 433 0 l 1,24,25
 428 15 428 15 428 39 c 2,26,-1
 428 85 l 1,27,28
 403 40 403 40 359 14 c 128,-1,29
 315 -12 315 -12 265 -12 c 0,30,31
 225 -12 225 -12 188.5 5 c 128,-1,32
 152 22 152 22 121.5 55 c 128,-1,33
 91 88 91 88 72.5 143.5 c 128,-1,34
 54 199 54 199 54 269 c 0,35,36
 54 341 54 341 74 396.5 c 128,-1,37
 94 452 94 452 127.5 482.5 c 128,-1,38
 161 513 161 513 199 528 c 128,-1,39
 237 543 237 543 277 543 c 0,40,41
 331 543 331 543 372 518.5 c 128,-1,42
 413 494 413 494 432 452 c 1,43,-1
 432 630 l 1,44,-1
 344 630 l 1,45,-1
 344 692 l 1,46,-1
 432 692 l 1,47,-1
 432 771 l 1,48,-1
 521 771 l 1,49,50
 521 764 521 764 515 754 c 0,51,52
 510 746 510 746 510 738 c 2,53,-1
 510 692 l 1,54,-1
 561 692 l 1,55,-1
 561 630 l 1,56,-1
 510 630 l 1,20,-1
EndSplineSet
Validated: 1
EndChar

StartChar: bullet
Encoding: 8226 8226 290
Width: 600
GlyphClass: 2
Flags: W
LayerCount: 2
Fore
SplineSet
405 343.5 m 128,-1,1
 405 304 405 304 376 275.5 c 128,-1,2
 347 247 347 247 306.5 247 c 128,-1,3
 266 247 266 247 237 275.5 c 128,-1,4
 208 304 208 304 208 343.5 c 128,-1,5
 208 383 208 383 237 411.5 c 128,-1,6
 266 440 266 440 306.5 440 c 128,-1,7
 347 440 347 440 376 411.5 c 128,-1,0
 405 383 405 383 405 343.5 c 128,-1,1
EndSplineSet
Validated: 1
EndChar

StartChar: florin
Encoding: 402 402 291
Width: 600
GlyphClass: 2
Flags: W
LayerCount: 2
Fore
SplineSet
566 719 m 1,0,-1
 528 642 l 1,1,2
 520 642 520 642 518 651 c 0,3,4
 516 664 516 664 515 665 c 0,5,6
 506 684 506 684 485.5 699 c 128,-1,7
 465 714 465 714 438 714 c 0,8,9
 414 714 414 714 392 700 c 128,-1,10
 370 686 370 686 357 656 c 0,11,12
 353 647 353 647 350 636.5 c 128,-1,13
 347 626 347 626 345 618.5 c 128,-1,14
 343 611 343 611 341.5 597 c 128,-1,15
 340 583 340 583 339.5 578 c 128,-1,16
 339 573 339 573 337.5 557 c 128,-1,17
 336 541 336 541 336 539 c 2,18,-1
 328 444 l 1,19,-1
 471 444 l 1,20,-1
 471 378 l 1,21,-1
 323 378 l 1,22,-1
 295 28 l 2,23,24
 287 -70 287 -70 257 -120 c 1,25,26
 234 -161 234 -161 198.5 -182 c 128,-1,27
 163 -203 163 -203 125 -203 c 0,28,29
 69 -203 69 -203 31 -162 c 1,30,-1
 78 -88 l 1,31,32
 82 -90 82 -90 90 -103 c 0,33,34
 104 -125 104 -125 132 -125 c 0,35,36
 169 -125 169 -125 191 -83 c 1,37,38
 211 -47 211 -47 217 31 c 2,39,-1
 243 378 l 1,40,-1
 103 378 l 1,41,-1
 103 444 l 1,42,-1
 248 444 l 1,43,-1
 256 550 l 2,44,45
 263 638 263 638 285 682 c 0,46,47
 308 729 308 729 349 754.5 c 128,-1,48
 390 780 390 780 437 780 c 0,49,50
 515 780 515 780 566 719 c 1,0,-1
EndSplineSet
Validated: 1
EndChar

StartChar: dagger
Encoding: 8224 8224 292
Width: 600
GlyphClass: 2
Flags: W
LayerCount: 2
Fore
SplineSet
261 756 m 1,0,-1
 339 756 l 1,1,-1
 339 529 l 1,2,-1
 531 529 l 1,3,-1
 531 460 l 1,4,-1
 339 460 l 1,5,-1
 339 -175 l 1,6,-1
 261 -175 l 1,7,-1
 261 460 l 1,8,-1
 67 460 l 1,9,-1
 67 529 l 1,10,-1
 261 529 l 1,11,-1
 261 756 l 1,0,-1
EndSplineSet
Validated: 1
EndChar

StartChar: daggerdbl
Encoding: 8225 8225 293
Width: 600
GlyphClass: 2
Flags: W
LayerCount: 2
Fore
SplineSet
261 756 m 1,0,-1
 339 756 l 1,1,-1
 339 529 l 1,2,-1
 531 529 l 1,3,-1
 531 460 l 1,4,-1
 339 460 l 1,5,-1
 339 140 l 1,6,-1
 531 140 l 1,7,-1
 531 71 l 1,8,-1
 339 71 l 1,9,-1
 339 -175 l 1,10,-1
 261 -175 l 1,11,-1
 261 71 l 1,12,-1
 67 71 l 1,13,-1
 67 140 l 1,14,-1
 261 140 l 1,15,-1
 261 460 l 1,16,-1
 67 460 l 1,17,-1
 67 529 l 1,18,-1
 261 529 l 1,19,-1
 261 756 l 1,0,-1
EndSplineSet
Validated: 1
EndChar

StartChar: trademark
Encoding: 8482 8482 294
Width: 600
GlyphClass: 2
Flags: W
LayerCount: 2
Fore
SplineSet
287 735 m 1,0,-1
 287 689 l 1,1,-1
 182 689 l 1,2,-1
 182 371 l 1,3,-1
 130 371 l 1,4,-1
 130 689 l 1,5,-1
 31 689 l 1,6,-1
 31 735 l 1,7,-1
 287 735 l 1,0,-1
361 735 m 1,8,-1
 444 567 l 1,9,10
 444 567 444 567 487 651 c 2,11,-1
 531 735 l 1,12,-1
 569 735 l 1,13,-1
 569 371 l 1,14,-1
 520 371 l 1,15,-1
 520 620 l 1,16,17
 520 620 520 620 485 556 c 2,18,-1
 451 494 l 1,19,-1
 432 496 l 1,20,-1
 369 620 l 1,21,-1
 369 371 l 1,22,-1
 320 371 l 1,23,-1
 320 735 l 1,24,-1
 361 735 l 1,8,-1
EndSplineSet
Validated: 1
EndChar

StartChar: zero.noslash
Encoding: 1114121 -1 295
Width: 600
GlyphClass: 2
Flags: W
LayerCount: 2
Fore
SplineSet
517 358 m 0,0,1
 517 194 517 194 455 90.5 c 128,-1,2
 393 -13 393 -13 298 -13 c 0,3,4
 207 -13 207 -13 145 82 c 128,-1,5
 83 177 83 177 83 341 c 0,6,7
 83 515 83 515 143.5 621 c 128,-1,8
 204 727 204 727 300 727 c 0,9,10
 393 727 393 727 455 626 c 128,-1,11
 517 525 517 525 517 358 c 0,0,1
299 656 m 0,12,13
 236 656 236 656 201 580 c 0,14,15
 160 489 160 489 160 352 c 0,16,17
 160 237 160 237 195 154 c 1,18,19
 233 61 233 61 303 61 c 0,20,21
 363 61 363 61 400 130 c 0,22,23
 442 209 442 209 442 343 c 0,24,25
 442 400 442 400 431 464 c 128,-1,26
 420 528 420 528 403 568 c 0,27,28
 366 656 366 656 299 656 c 0,12,13
EndSplineSet
Validated: 1
EndChar

StartChar: summation
Encoding: 8721 8721 296
Width: 600
Flags: W
LayerCount: 2
Fore
SplineSet
124 59 m 1049,0,-1
51 79 m 1,1,-1
 291 334 l 1,2,-1
 50 598 l 1,3,-1
 50 685 l 1,4,-1
 544 683 l 1,5,-1
 544 616 l 1,6,-1
 116 616 l 1,7,-1
 358 361 l 1,8,-1
 388 328 l 1,9,-1
 124 59 l 1,10,-1
 542 60 l 1,11,-1
 542 0 l 1,12,-1
 51 -3 l 1,13,-1
 51 79 l 1,1,-1
EndSplineSet
Validated: 1
EndChar

StartChar: arrowright
Encoding: 8594 8594 297
Width: 600
Flags: W
LayerCount: 2
Fore
SplineSet
371 327 m 5,0,-1
 92 326 l 5,1,-1
 92 403 l 5,2,-1
 371 404 l 5,3,-1
 258 485 l 5,4,-1
 299 535 l 5,5,-1
 519 372 l 5,6,-1
 519 347 l 5,7,-1
 297 190 l 5,8,-1
 258 248 l 5,9,-1
 371 327 l 5,0,-1
EndSplineSet
Validated: 1
EndChar

StartChar: arrowboth
Encoding: 8596 8596 298
Width: 600
Flags: W
LayerCount: 2
Fore
SplineSet
371 327 m 1,0,-1
 320.5 290.5 l 1,1,-1
 359.5 232.5 l 1,2,-1
 519 347 l 1,3,-1
 519 372 l 1,4,-1
 361.78 490.906 l 1,5,-1
 320.78 440.906 l 1,6,-1
 371 404 l 1,7,-1
 240 404 l 1,8,-1
 291.28 440.406 l 1,9,-1
 250.28 490.406 l 1,10,-1
 92 372 l 1,11,-1
 92 347 l 1,12,-1
 251.5 232.5 l 1,13,-1
 290.5 290.5 l 1,14,-1
 240 327 l 1,15,-1
 371 327 l 1,0,-1
EndSplineSet
EndChar

StartChar: alpha
Encoding: 945 945 299
Width: 600
Flags: W
LayerCount: 2
Fore
SplineSet
267 473 m 0,0,1
 120 473 120 473 120 269 c 0,2,3
 120 168 120 168 163 119 c 128,-1,4
 206 70 206 70 266 70 c 2,5,-1
 284 70 l 2,6,7
 302 70 302 70 315.5 72.5 c 128,-1,8
 329 75 329 75 346.5 86.5 c 128,-1,9
 364 98 364 98 375.5 118.5 c 128,-1,10
 387 139 387 139 395 178 c 128,-1,11
 403 217 403 217 403 272 c 0,12,13
 403 473 403 473 267 473 c 0,0,1
559 9 m 9,14,-1
 466 9 l 1,15,16
 439 58 439 58 439 80 c 2,17,-1
 439 81 l 1,18,19
 424 40 424 40 371 17.5 c 128,-1,20
 318 -5 318 -5 267 -5 c 0,21,22
 245 -5 245 -5 220.5 0 c 128,-1,23
 196 5 196 5 162.5 22.5 c 128,-1,24
 129 40 129 40 103.5 67.5 c 128,-1,25
 78 95 78 95 59.5 146.5 c 128,-1,26
 41 198 41 198 41 266 c 2,27,-1
 41 277 l 2,28,29
 41 350 41 350 61.5 403.5 c 128,-1,30
 82 457 82 457 108 483 c 128,-1,31
 134 509 134 509 170.5 525 c 128,-1,32
 207 541 207 541 227 544 c 128,-1,33
 247 547 247 547 267 547 c 0,34,35
 303 547 303 547 333 537.5 c 128,-1,36
 363 528 363 528 380.5 515 c 128,-1,37
 398 502 398 502 410 489 c 128,-1,38
 422 476 422 476 426.5 466.5 c 2,39,-1
 431 457 l 1,40,-1
 445 533 l 1,41,-1
 517 516 l 1,42,-1
 487 385 l 1,43,44
 472.25 328.329 472.25 328.329 472.25 264.875 c 0,45,46
 472.25 197.891 472.25 197.891 489 144 c 0,47,48
 499 111 499 111 516.5 77.5 c 128,-1,49
 534 44 534 44 546.5 26.5 c 2,50,-1
 559 9 l 9,14,-1
EndSplineSet
Validated: 1
EndChar

StartChar: beta
Encoding: 946 946 300
Width: 600
Flags: W
LayerCount: 2
Fore
SplineSet
526 202 m 12,0,1
 526 122 526 122 463 62.5 c 128,-1,2
 400 3 400 3 322 1 c 1,3,-1
 319 1 l 2,4,5
 290 1 290 1 262 10 c 128,-1,6
 234 19 234 19 215 31.5 c 128,-1,7
 196 44 196 44 181 57 c 128,-1,8
 166 70 166 70 159 79 c 2,9,-1
 152 88 l 1,10,-1
 152 -156 l 1,11,-1
 75 -156 l 1,12,-1
 75 462 l 2,13,14
 75 558 75 558 98 609 c 0,15,16
 123 664 123 664 171.5 694.5 c 128,-1,17
 220 725 220 725 278 725 c 0,18,19
 360 725 360 725 418.5 669 c 128,-1,20
 477 613 477 613 477 536 c 0,21,22
 477 490 477 490 453.5 451.5 c 128,-1,23
 430 413 430 413 390 393 c 1,24,25
 451 374 451 374 488.5 321.5 c 128,-1,26
 526 269 526 269 526 202 c 12,0,1
322 72 m 6,27,28
 375 72 375 72 411 108.5 c 128,-1,29
 447 145 447 145 447 202 c 0,30,31
 447 243 447 243 427 276 c 128,-1,32
 407 309 407 309 374 329 c 0,33,34
 338 351 338 351 283 351 c 2,35,-1
 206 351 l 1,36,-1
 206 419 l 1,37,-1
 281 419 l 2,38,39
 309 419 309 419 330 427.5 c 128,-1,40
 351 436 351 436 363 448.5 c 128,-1,41
 375 461 375 461 382.5 478 c 128,-1,42
 390 495 390 495 392.5 509.5 c 128,-1,43
 395 524 395 524 395 538 c 0,44,45
 395 590 395 590 363.5 621 c 128,-1,46
 332 652 332 652 282 652 c 0,47,48
 216 652 216 652 184 607 c 0,49,50
 170 587 170 587 162.5 559.5 c 128,-1,51
 155 532 155 532 154 513.5 c 128,-1,52
 153 495 153 495 153 463 c 2,53,-1
 151 142 l 1,54,55
 158 140 158 140 186 122 c 128,-1,56
 214 104 214 104 249.5 88 c 128,-1,57
 285 72 285 72 315 72 c 2,58,-1
 322 72 l 6,27,28
EndSplineSet
Validated: 1
EndChar

StartChar: gamma
Encoding: 947 947 301
Width: 600
Flags: W
LayerCount: 2
Fore
SplineSet
273 2 m 1,0,-1
 58 529 l 1,1,-1
 162 529 l 1,2,3
 163 524 163 524 160 516 c 128,-1,4
 157 508 157 508 157 504 c 0,5,6
 157 501 157 501 159 495 c 2,7,-1
 314 105 l 1,8,-1
 415 389 l 1,9,10
 444 474 444 474 455 530 c 1,11,-1
 542 530 l 1,12,13
 520 459 520 459 489 377 c 2,14,-1
 351 0 l 2,15,16
 345 -14 345 -14 345 -54 c 0,17,18
 345 -70 345 -70 346 -109.5 c 128,-1,19
 347 -149 347 -149 347 -169 c 1,20,-1
 270 -169 l 1,21,-1
 273 2 l 1,0,-1
EndSplineSet
Validated: 1
EndChar

StartChar: delta
Encoding: 948 948 302
Width: 600
Flags: W
LayerCount: 2
Fore
SplineSet
302 443 m 0,0,1
 240 443 240 443 196 393 c 128,-1,2
 152 343 152 343 152 257 c 0,3,4
 152 169 152 169 197.5 116 c 128,-1,5
 243 63 243 63 306 63 c 0,6,7
 366 63 366 63 409 112.5 c 128,-1,8
 452 162 452 162 452 249 c 0,9,10
 452 343 452 343 407.5 393 c 128,-1,11
 363 443 363 443 302 443 c 0,0,1
453 685 m 1,12,-1
 390 685 l 1,13,-1
 180 683 l 1,14,-1
 414 484 l 1,15,16
 473 442 473 442 502.5 375.5 c 128,-1,17
 532 309 532 309 532 252 c 0,18,19
 532 136 532 136 465.5 66.5 c 128,-1,20
 399 -3 399 -3 305 -3 c 0,21,22
 208 -3 208 -3 138 69.5 c 128,-1,23
 68 142 68 142 68 251 c 0,24,25
 68 362 68 362 125 435 c 128,-1,26
 182 508 182 508 273 508 c 2,27,-1
 278 508 l 1,28,29
 278 509 278 509 243.5 538.5 c 128,-1,30
 209 568 209 568 158 610.5 c 128,-1,31
 107 653 107 653 69 683 c 1,32,-1
 68 749 l 1,33,-1
 499 749 l 1,34,-1
 499 654 l 1,35,-1
 453 685 l 1,12,-1
EndSplineSet
Validated: 1
EndChar

StartChar: epsilon
Encoding: 949 949 303
Width: 600
Flags: W
LayerCount: 2
Fore
SplineSet
474 143 m 1,0,-1
 510 89 l 1,1,2
 467 44 467 44 421 22 c 128,-1,3
 375 0 375 0 315 -0 c 0,4,5
 223 0 223 0 153 44 c 0,6,7
 86 86 86 86 85 154 c 0,8,9
 84 199 84 199 108 236 c 0,10,11
 131 271 131 271 177 278 c 1,12,13
 136 290 136 290 112 316 c 0,14,15
 89 341 89 341 88 378 c 0,16,17
 87 438 87 438 146 486 c 0,18,19
 204 533 204 533 288 533 c 0,20,21
 346 533 346 533 404 512 c 0,22,23
 459 492 459 492 497 452 c 1,24,-1
 458 399 l 1,25,26
 401 456 401 456 287 456 c 0,27,28
 236 456 236 456 204 434 c 128,-1,29
 172 412 172 412 172 378 c 0,30,31
 172 361 172 361 177 353 c 0,32,33
 184 342 184 342 197 333 c 0,34,35
 212 323 212 323 241 318 c 128,-1,36
 270 313 270 313 314 313 c 0,37,38
 339 313 339 313 352 314 c 1,39,-1
 352 233 l 1,40,41
 327 236 327 236 314 236 c 0,42,43
 275 237 275 237 245 230 c 0,44,45
 218 224 218 224 201 214 c 0,46,47
 186 206 186 206 179 193 c 0,48,49
 173 182 173 182 170 171 c 0,50,51
 168 163 168 163 168 152 c 0,52,53
 168 120 168 120 214 98 c 0,54,55
 256 78 256 78 314 75 c 0,56,57
 336 74 336 74 355 78 c 0,58,59
 372 82 372 82 386 86 c 0,60,61
 398 90 398 90 414 99 c 0,62,63
 426 106 426 106 436 112 c 0,64,65
 439.021 114.014 439.021 114.014 456.507 128.415 c 0,66,67
 473 142 473 142 474 143 c 1,0,-1
EndSplineSet
Validated: 33
EndChar

StartChar: zeta
Encoding: 950 950 304
Width: 600
Flags: W
LayerCount: 2
Fore
SplineSet
389 -101 m 6,0,1
 431 7 l 1,2,3
 424 7 424 7 411.5 8.5 c 128,-1,4
 399 10 399 10 363.5 16.5 c 128,-1,5
 328 23 328 23 295.5 32 c 128,-1,6
 263 41 263 41 223 60 c 128,-1,7
 183 79 183 79 154.5 102.5 c 128,-1,8
 126 126 126 126 106.5 163.5 c 128,-1,9
 87 201 87 201 87 245 c 2,10,-1
 87 247 l 1,11,12
 89 512 89 512 388.069 669.342 c 0,13,14
 393 672 393 672 395 673 c 1,15,16
 392 672 392 672 338 672 c 0,17,18
 305 672 305 672 227 672.5 c 128,-1,19
 149 673 149 673 123 673 c 0,20,21
 113 673 113 673 106.5 669.5 c 128,-1,22
 100 666 100 666 97.5 662.5 c 128,-1,23
 95 659 95 659 94 659 c 2,24,-1
 95 751 l 1,25,-1
 507 751 l 1,26,-1
 507 671 l 1,27,28
 500 669 500 669 488.5 664.5 c 128,-1,29
 477 660 477 660 443 643.5 c 128,-1,30
 409 627 409 627 378.5 606.5 c 128,-1,31
 348 586 348 586 310 550 c 128,-1,32
 272 514 272 514 245 473.5 c 128,-1,33
 218 433 218 433 199 374 c 128,-1,34
 180 315 180 315 179 249 c 1,35,-1
 179 247 l 2,36,37
 179 194 179 194 211.5 159 c 128,-1,38
 244 124 244 124 291.5 110.5 c 128,-1,39
 339 97 339 97 386 91.5 c 128,-1,40
 433 86 433 86 467.5 86 c 128,-1,41
 502 86 502 86 503 85 c 0,42,43
 514 70 514 70 514 48 c 0,44,45
 514 20 514 20 487 -42.5 c 128,-1,46
 460 -105 460 -105 457 -131 c 0,47,48
 457 -134 457 -134 381 -134 c 0,49,50
 361 -134 361 -134 361 -133 c 0,51,52
 361 -131 361 -131 364 -130 c 128,-1,53
 367 -129 367 -129 371.5 -126.5 c 128,-1,54
 376 -124 376 -124 379 -120 c 0,55,56
 383 -114 383 -114 389 -101 c 6,0,1
EndSplineSet
Validated: 1
EndChar

StartChar: eta
Encoding: 951 951 305
Width: 600
Flags: W
LayerCount: 2
Fore
SplineSet
97 488 m 1,0,-1
 82 529 l 1,1,-1
 182 529 l 1,2,-1
 182 436 l 1,3,4
 213 483 213 483 259.5 512.5 c 128,-1,5
 306 542 306 542 358 542 c 0,6,7
 404 542 404 542 442 517.5 c 128,-1,8
 480 493 480 493 499 449 c 0,9,10
 518 406 518 406 518 321 c 2,11,-1
 518 -156 l 1,12,-1
 436 -156 l 1,13,-1
 436 319 l 2,14,15
 436 402 436 402 407 436 c 0,16,17
 379 470 379 470 335 470 c 0,18,19
 298 470 298 470 263 446 c 128,-1,20
 228 422 228 422 208 396 c 0,21,22
 182 362 182 362 182 305 c 2,23,-1
 182 0 l 1,24,-1
 97 0 l 1,25,-1
 97 488 l 1,0,-1
EndSplineSet
Validated: 1
EndChar

StartChar: theta
Encoding: 952 952 306
Width: 600
Flags: W
LayerCount: 2
Fore
SplineSet
275 746 m 0,0,1
 380 746 380 746 438 643.5 c 128,-1,2
 496 541 496 541 496 382 c 0,3,4
 496 335 496 335 493.5 296.5 c 128,-1,5
 491 258 491 258 483.5 211.5 c 128,-1,6
 476 165 476 165 460.5 130 c 128,-1,7
 445 95 445 95 422 64.5 c 128,-1,8
 399 34 399 34 362.5 17.5 c 128,-1,9
 326 1 326 1 278 1 c 0,10,11
 277.328 0.996264 277.328 0.996264 276.658 0.996268 c 0,12,13
 233.374 0.996265 233.374 0.996265 199.636 16.0914 c 128,-1,14
 165.898 31.1866 165.898 31.1866 144.258 59.7815 c 128,-1,15
 122.617 88.3765 122.617 88.3765 107.927 122.414 c 128,-1,16
 93.2363 156.451 93.2363 156.451 85.9296 201.845 c 128,-1,17
 78.623 247.239 78.623 247.239 75.8115 287.921 c 128,-1,18
 73 328.604 73 328.604 73 378 c 0,19,20
 73 548 73 548 124 647 c 128,-1,21
 175 746 175 746 275 746 c 0,0,1
414 418 m 1,22,23
 414 535 414 535 373.5 603.5 c 128,-1,24
 333 672 333 672 276 672 c 0,25,26
 224 672 224 672 190 606.5 c 128,-1,27
 156 541 156 541 155 417 c 1,28,29
 179 417 179 417 280.5 417.5 c 128,-1,30
 382 418 382 418 414 418 c 1,22,23
414 344 m 1,31,-1
 154 344 l 1,32,33
 155 288 155 288 160 246.5 c 128,-1,34
 165 205 165 205 177.5 164.5 c 128,-1,35
 190 124 190 124 215.5 102.5 c 128,-1,36
 241 81 241 81 278 81 c 0,37,38
 319.047 81 319.047 81 347.182 101.811 c 128,-1,39
 375.317 122.621 375.317 122.621 389.194 160.896 c 128,-1,40
 403.07 199.171 403.07 199.171 408.552 240.451 c 128,-1,41
 414.035 281.731 414.035 281.731 414.035 335.015 c 0,42,43
 414.035 339.508 414.035 339.508 414 344 c 1,31,-1
EndSplineSet
Validated: 1
EndChar

StartChar: iota
Encoding: 953 953 307
Width: 600
Flags: W
LayerCount: 2
Fore
SplineSet
115 532 m 5,0,-1
 349 532 l 1,1,-1
 347 140 l 2,2,3
 347 101 347 101 361 90.5 c 128,-1,4
 375 80 375 80 411 80 c 1,5,-1
 412 0 l 1,6,7
 405 0 405 0 391 -0.5 c 128,-1,8
 377 -1 377 -1 371 -1 c 0,9,10
 317 -1 317 -1 291 25.5 c 128,-1,11
 265 52 265 52 265 141 c 1,12,13
 264 150 264 150 264 180 c 2,14,-1
 265 246 l 1,15,-1
 265 464 l 1,16,-1
 135 464 l 2,17,18
 129 464 129 464 124.5 461 c 128,-1,19
 120 458 120 458 118 455.5 c 2,20,-1
 116 453 l 1,21,-1
 115 532 l 5,0,-1
EndSplineSet
Validated: 1
EndChar

StartChar: kappa
Encoding: 954 954 308
Width: 600
Flags: W
LayerCount: 2
Fore
SplineSet
87 529 m 1,0,-1
 182 529 l 1,1,2
 182 527 l 2,3,4
 182 521 182 521 175 512 c 0,5,6
 171 507 171 507 171 499 c 2,7,-1
 171 286 l 1,8,-1
 436 532 l 1,9,10
 461 526 461 526 505 526 c 2,11,-1
 535 526 l 1,12,-1
 310 316 l 1,13,-1
 565 -1 l 1,14,15
 557 -1 l 1,16,17
 465 -1 l 1,18,-1
 249 265 l 1,19,-1
 171 200 l 1,20,-1
 171 -1 l 1,21,-1
 87 -1 l 1,22,-1
 87 529 l 1,0,-1
EndSplineSet
Validated: 1
EndChar

StartChar: lambda
Encoding: 955 955 309
Width: 600
Flags: W
LayerCount: 2
Fore
SplineSet
277 489 m 1,0,1
 276 497 276 497 275 526.5 c 128,-1,2
 274 556 274 556 270.5 578.5 c 128,-1,3
 267 601 267 601 258 616 c 0,4,5
 226 672 226 672 161 672 c 0,6,7
 148 672 148 672 134 669.5 c 128,-1,8
 120 667 120 667 112 664.5 c 2,9,-1
 104 662 l 1,10,-1
 102 744 l 1,11,12
 112 744 112 744 128.5 744.5 c 128,-1,13
 145 745 145 745 152 745 c 0,14,15
 228 745 228 745 265.5 725 c 128,-1,16
 303 705 303 705 338 642 c 1,17,18
 354 609 354 609 443 243 c 1,19,20
 476 137 476 137 493 110 c 128,-1,21
 510 83 510 83 536 83 c 2,22,-1
 543 83 l 2,23,24
 547 83 547 83 547 -3 c 1,25,26
 521 -3 521 -3 502 0 c 128,-1,27
 483 3 483 3 466.5 11.5 c 128,-1,28
 450 20 450 20 439.5 29.5 c 128,-1,29
 429 39 429 39 418 59.5 c 128,-1,30
 407 80 407 80 400 98 c 128,-1,31
 393 116 393 116 383.5 151 c 128,-1,32
 374 186 374 186 367 215 c 128,-1,33
 360 244 360 244 347.5 295 c 128,-1,34
 335 346 335 346 323 389 c 1,35,-1
 115 0 l 1,36,-1
 24 0 l 1,37,-1
 277 489 l 1,0,1
EndSplineSet
Validated: 1
EndChar

StartChar: mu
Encoding: 956 956 310
Width: 600
Flags: W
LayerCount: 2
Fore
SplineSet
494 96 m 2,0,1
 494 68 494 68 518 68 c 2,2,3
 524 68 l 1,4,-1
 526 68 l 1,5,6
 527 0 l 1,7,-1
 453 0 l 2,8,9
 439 0 439 0 426.5 15 c 128,-1,10
 414 30 414 30 414 60 c 2,11,-1
 414 139 l 2,12,13
 414 132 414 132 403.5 111.5 c 128,-1,14
 393 91 393 91 374 65 c 128,-1,15
 355 39 355 39 322 19.5 c 128,-1,16
 289 0 289 0 252 0 c 0,17,18
 224 0 224 0 196 15.5 c 128,-1,19
 168 31 168 31 154 64 c 1,20,-1
 154 32 l 1,21,-1
 154 -168 l 1,22,-1
 72 -168 l 1,23,-1
 72 223 l 1,24,-1
 72 528 l 1,25,-1
 151 528 l 1,26,-1
 151 252 l 1,27,-1
 151 250 l 2,28,29
 151 84 151 84 251 84 c 0,30,31
 305 84 305 84 359.5 146 c 128,-1,32
 414 208 414 208 414 281 c 2,33,-1
 414 528 l 1,34,-1
 494 528 l 1,35,-1
 494 96 l 2,0,1
EndSplineSet
Validated: 1
EndChar

StartChar: nu
Encoding: 957 957 311
Width: 600
Flags: W
LayerCount: 2
Fore
SplineSet
56 540 m 1,0,-1
 156 540 l 1,1,2
 157 535 157 535 154.5 527.5 c 128,-1,3
 152 520 152 520 152 517 c 0,4,5
 152 506 152 506 307 113 c 1,6,7
 472 333 472 333 472 460 c 0,8,9
 472 474 472 474 470 486.5 c 128,-1,10
 468 499 468 499 464.5 508.5 c 128,-1,11
 461 518 461 518 458 523.5 c 128,-1,12
 455 529 455 529 451 534.5 c 2,13,-1
 447 540 l 1,14,-1
 544 540 l 1,15,16
 554 508 554 508 554 468 c 0,17,18
 554 405 554 405 539 363 c 0,19,20
 511 281 511 281 459 189 c 128,-1,21
 407 97 407 97 369 46.5 c 2,22,-1
 331 -4 l 1,23,-1
 266 -4 l 1,24,-1
 56 540 l 1,0,-1
EndSplineSet
Validated: 1
EndChar

StartChar: xi
Encoding: 958 958 312
Width: 600
Flags: W
LayerCount: 2
Fore
SplineSet
409 -31 m 0,0,1
 402 -13 402 -13 367.5 -3 c 128,-1,2
 333 7 333 7 289.5 16 c 128,-1,3
 246 25 246 25 203.5 41 c 128,-1,4
 161 57 161 57 132.5 96.5 c 128,-1,5
 104 136 104 136 104 197 c 0,6,7
 104 276 104 276 152.5 332.5 c 128,-1,8
 201 389 201 389 261 391 c 1,9,10
 170 443 170 443 170 508 c 0,11,12
 170 551 170 551 205 590 c 128,-1,13
 240 629 240 629 280 648 c 1,14,15
 276 647 276 647 229 647 c 2,16,-1
 124 647 l 2,17,18
 113 647 113 647 106.5 643.5 c 128,-1,19
 100 640 100 640 97.5 636.5 c 128,-1,20
 95 633 95 633 94 633 c 2,21,-1
 95 725 l 1,22,-1
 507 725 l 1,23,-1
 507 645 l 1,24,-1
 425 645 l 1,25,26
 366 638 366 638 313.5 596 c 128,-1,27
 261 554 261 554 261 511 c 0,28,29
 261 450 261 450 376 432 c 1,30,-1
 473 432 l 1,31,-1
 473 343 l 1,32,-1
 380 342 l 1,33,-1
 360 342 l 2,34,35
 283 342 283 342 235 310 c 128,-1,36
 187 278 187 278 187 206 c 2,37,-1
 187 199 l 1,38,39
 188 161 188 161 210 138.5 c 128,-1,40
 232 116 232 116 267.5 106 c 128,-1,41
 303 96 303 96 340.5 89 c 128,-1,42
 378 82 378 82 417 67.5 c 128,-1,43
 456 53 456 53 478 30 c 0,44,45
 498 10 498 10 498 -9 c 0,46,47
 498 -31 498 -31 476.5 -74.5 c 128,-1,48
 455 -118 455 -118 450 -140 c 1,49,-1
 360 -141 l 1,50,51
 366 -126 366 -126 379.5 -103.5 c 128,-1,52
 393 -81 393 -81 401.5 -64 c 128,-1,53
 410 -47 410 -47 410 -37 c 0,54,55
 410 -33 410 -33 409 -31 c 0,0,1
EndSplineSet
Validated: 1
EndChar

StartChar: omicron
Encoding: 959 959 313
Width: 600
Flags: W
LayerCount: 2
Fore
SplineSet
543 262 m 4,0,1
 543 136 543 136 473 61 c 128,-1,2
 403 -14 403 -14 305 -14 c 0,3,4
 203 -14 203 -14 130 64.5 c 128,-1,5
 57 143 57 143 57 261 c 0,6,7
 57 382 57 382 130.5 461.5 c 128,-1,8
 204 541 204 541 307 541 c 0,9,10
 403 541 403 541 473 466.5 c 128,-1,11
 543 392 543 392 543 262 c 4,0,1
302 470 m 4,12,13
 238 470 238 470 191.5 415.5 c 128,-1,14
 145 361 145 361 145 268 c 0,15,16
 145 173 145 173 192.5 115.5 c 128,-1,17
 240 58 240 58 306 58 c 0,18,19
 368 58 368 58 413.5 111.5 c 128,-1,20
 459 165 459 165 459 259 c 0,21,22
 459 361 459 361 412 415.5 c 128,-1,23
 365 470 365 470 302 470 c 4,12,13
EndSplineSet
Validated: 1
EndChar

StartChar: pi
Encoding: 960 960 314
Width: 600
Flags: W
LayerCount: 2
Fore
SplineSet
39 541 m 1,0,-1
 560 541 l 1,1,-1
 560 462 l 1,2,-1
 495 462 l 1,3,-1
 495 77 l 1,4,-1
 524 77 l 1,5,-1
 529 82 l 1,6,7
 528 32 528 32 528 0 c 1,8,-1
 456 -0 l 2,9,10
 413 -0 413 -0 413 40 c 2,11,-1
 413 462 l 1,12,-1
 189 462 l 1,13,-1
 189 -0 l 1,14,-1
 103 -0 l 1,15,-1
 103 462 l 1,16,-1
 39 462 l 1,17,-1
 39 541 l 1,0,-1
EndSplineSet
Validated: 1
EndChar

StartChar: rho
Encoding: 961 961 315
Width: 600
Flags: W
LayerCount: 2
Fore
SplineSet
74 337 m 2,0,1
 74 431 74 431 127 486 c 128,-1,2
 180 541 180 541 289 541 c 0,3,4
 396 541 396 541 461 467 c 128,-1,5
 526 393 526 393 526 256 c 0,6,7
 526 187 526 187 504.5 133.5 c 128,-1,8
 483 80 483 80 447 50.5 c 128,-1,9
 411 21 411 21 371 6.5 c 128,-1,10
 331 -8 331 -8 288 -8 c 0,11,12
 211 -8 211 -8 152 51 c 1,13,-1
 152 -193 l 1,14,-1
 76 -193 l 1,15,-1
 74 337 l 2,0,1
288 470 m 0,16,17
 247 470 247 470 213.5 449.5 c 128,-1,18
 180 429 180 429 165 393 c 0,19,20
 151 362 151 362 151 289 c 0,21,22
 151 223 151 223 153.5 195.5 c 128,-1,23
 156 168 156 168 166 143 c 0,24,25
 200 66 200 66 287 66 c 0,26,27
 305 66 305 66 323 69.5 c 128,-1,28
 341 73 341 73 364.5 84.5 c 128,-1,29
 388 96 388 96 405 115 c 128,-1,30
 422 134 422 134 434 170 c 128,-1,31
 446 206 446 206 446 253 c 0,32,33
 446 321 446 321 428.5 367.5 c 128,-1,34
 411 414 411 414 383.5 434.5 c 128,-1,35
 356 455 356 455 333 462.5 c 128,-1,36
 310 470 310 470 288 470 c 0,16,17
EndSplineSet
Validated: 1
EndChar

StartChar: sigma1
Encoding: 962 962 316
Width: 600
Flags: W
LayerCount: 2
Fore
SplineSet
87 286 m 0,0,1
 88 364 88 364 135 434.5 c 128,-1,2
 182 505 182 505 251 524 c 0,3,4
 312 541 312 541 430 541 c 2,5,-1
 467 541 l 2,6,7
 468 541 468 541 468 534 c 0,8,9
 468 484 468 484 467 458 c 1,10,11
 451 458 451 458 424.5 457.5 c 128,-1,12
 398 457 398 457 380.5 456.5 c 128,-1,13
 363 456 363 456 353 456 c 0,14,15
 176 456 176 456 176 281 c 0,16,17
 176 237 176 237 207 192.5 c 128,-1,18
 238 148 238 148 273 133 c 0,19,20
 297 123 297 123 341 112.5 c 128,-1,21
 385 102 385 102 412.5 94.5 c 128,-1,22
 440 87 440 87 462.5 65.5 c 128,-1,23
 485 44 485 44 485 9 c 1,24,25
 484 -24 484 -24 457 -77 c 128,-1,26
 430 -130 430 -130 429 -133 c 1,27,-1
 340 -134 l 1,28,29
 348 -112 348 -112 375 -71.5 c 128,-1,30
 402 -31 402 -31 402 -16 c 0,31,32
 402 6 402 6 382.5 17 c 128,-1,33
 363 28 363 28 335 32 c 128,-1,34
 307 36 307 36 265.5 48.5 c 128,-1,35
 224 61 224 61 191 82 c 0,36,37
 155 106 155 106 121 166 c 128,-1,38
 87 226 87 226 87 286 c 0,0,1
EndSplineSet
Validated: 1
EndChar

StartChar: sigma
Encoding: 963 963 317
Width: 600
Flags: W
LayerCount: 2
Fore
SplineSet
525 262 m 4,0,1
 525 136 525 136 455 61 c 128,-1,2
 385 -14 385 -14 287 -14 c 0,3,4
 185 -14 185 -14 112 64.5 c 128,-1,5
 39 143 39 143 39 261 c 0,6,7
 39 380 39 380 110.5 459.5 c 128,-1,8
 182 539 182 539 283 541 c 1,9,-1
 284 541 l 1,10,-1
 289 541 l 1,11,-1
 562 541 l 1,12,-1
 562 468 l 1,13,-1
 454 468 l 1,14,15
 525 390 525 390 525 262 c 4,0,1
283 470 m 5,16,17
 219 470 219 470 173 415.5 c 128,-1,18
 127 361 127 361 127 268 c 0,19,20
 127 173 127 173 174.5 115.5 c 128,-1,21
 222 58 222 58 288 58 c 0,22,23
 350 58 350 58 395.5 111.5 c 128,-1,24
 441 165 441 165 441 259 c 0,25,26
 441 351 441 351 400.5 407 c 128,-1,27
 360 463 360 463 283 470 c 5,16,17
EndSplineSet
Validated: 1
EndChar

StartChar: tau
Encoding: 964 964 318
Width: 600
Flags: W
LayerCount: 2
Fore
SplineSet
99 532 m 5,0,-1
 543 532 l 1,1,-1
 543 463 l 1,2,-1
 334 463 l 1,3,-1
 332 140 l 2,4,5
 332 76 332 76 441 76 c 1,6,7
 488 80 l 1,8,-1
 489 7 l 1,9,10
 463 2 463 2 429 2 c 0,11,12
 398 2 398 2 370.5 7.5 c 128,-1,13
 343 13 343 13 313.5 26.5 c 128,-1,14
 284 40 284 40 267 69.5 c 128,-1,15
 250 99 250 99 250 141 c 1,16,17
 249 150 249 150 249 180 c 2,18,-1
 250 246 l 1,19,-1
 250 464 l 1,20,21
 228 464 228 464 189 464.5 c 128,-1,22
 150 465 150 465 135 465 c 0,23,24
 73 465 73 465 59 457 c 1,25,-1
 99 532 l 5,0,-1
EndSplineSet
Validated: 1
EndChar

StartChar: upsilon
Encoding: 965 965 319
Width: 600
Flags: W
LayerCount: 2
Fore
SplineSet
83 529 m 5,0,1
 167 529 l 1,2,-1
 167 234 l 1,3,-1
 167 229 l 2,4,5
 167 205 167 205 168 189 c 128,-1,6
 169 173 169 173 175.5 146.5 c 128,-1,7
 182 120 182 120 194.5 104 c 128,-1,8
 207 88 207 88 232 75.5 c 128,-1,9
 257 63 257 63 292 63 c 0,10,11
 349 63 349 63 389.5 113 c 128,-1,12
 430 163 430 163 430 236 c 2,13,-1
 430 529 l 1,14,-1
 514 529 l 1,15,-1
 514 238 l 2,16,17
 514 135 514 135 463 70 c 0,18,19
 424 21 424 21 382 3.5 c 128,-1,20
 340 -14 340 -14 287 -14 c 0,21,22
 232 -14 232 -14 179 15 c 128,-1,23
 126 44 126 44 103 95 c 0,24,25
 82 140 82 140 82 234 c 2,26,-1
 83 466 l 1,27,28
 52 470 52 470 32 472 c 1,29,-1
 46 529 l 1,30,-1
 83 529 l 5,0,1
EndSplineSet
Validated: 1
EndChar

StartChar: phi
Encoding: 966 966 320
Width: 600
Flags: W
LayerCount: 2
Fore
SplineSet
266 592 m 1,0,-1
 341 604 l 1,1,-1
 341 537 l 1,2,3
 425 522 425 522 484 449.5 c 128,-1,4
 543 377 543 377 543 262 c 0,5,6
 543 151 543 151 484.5 78.5 c 128,-1,7
 426 6 426 6 341 -10 c 1,8,-1
 341 -192 l 1,9,-1
 266 -192 l 1,10,-1
 266 -11 l 1,11,12
 177 4 177 4 117 79.5 c 128,-1,13
 57 155 57 155 57 261 c 0,14,15
 57 368 57 368 117 444 c 128,-1,16
 177 520 177 520 266 537 c 1,17,-1
 266 592 l 1,0,-1
266 60 m 1,18,-1
 266 469 l 1,19,20
 213 454 213 454 176.5 400 c 128,-1,21
 140 346 140 346 140 268 c 128,-1,22
 140 190 140 190 176.5 133.5 c 128,-1,23
 213 77 213 77 266 60 c 1,18,-1
341 466 m 1,24,-1
 341 61 l 1,25,26
 391 77 391 77 427 129.5 c 128,-1,27
 463 182 463 182 463 259 c 0,28,29
 463 340 463 340 427 394 c 128,-1,30
 391 448 391 448 341 466 c 1,24,-1
EndSplineSet
Validated: 1
EndChar

StartChar: chi
Encoding: 967 967 321
Width: 600
Flags: W
LayerCount: 2
Fore
SplineSet
431.753 530.28 m 5,0,-1
 511.553 530.28 l 1,1,-1
 348.96 179.8 l 1,2,-1
 487.612 -97.8799 l 2,3,4
 500.153 -122.84 500.153 -122.84 531.502 -122.84 c 2,5,-1
 539.482 -122.84 l 1,6,-1
 539.482 -191.48 l 1,7,8
 529.508 -191.48 l 2,9,10
 447.259 -191.48 447.259 -191.48 416.79 -141.56 c 1,11,-1
 305.07 89.3203 l 1,12,-1
 174.397 -191.48 l 1,13,-1
 85.6201 -191.48 l 1,14,-1
 261.18 174.6 l 1,15,-1
 138.487 397.16 l 1,16,17
 112.44 438.263 112.44 438.263 100.075 449.952 c 128,-1,18
 87.7103 461.64 87.7103 461.64 74.6475 461.64 c 2,19,-1
 59.6846 461.64 l 1,20,-1
 59.6846 539.64 l 1,21,22
 86.6172 539.64 l 2,23,24
 142.977 539.64 142.977 539.64 174.397 492.84 c 0,25,26
 241.587 394.766 241.587 394.766 306.067 263 c 1,27,-1
 431.753 530.28 l 5,0,-1
EndSplineSet
Validated: 1
EndChar

StartChar: psi
Encoding: 968 968 322
Width: 600
Flags: W
LayerCount: 2
Fore
SplineSet
88 529 m 1,0,-1
 167 529 l 1,1,-1
 167 234 l 1,2,-1
 167 229 l 2,3,4
 167 202 167 202 169 183 c 128,-1,5
 171 164 171 164 179 136.5 c 128,-1,6
 187 109 187 109 207 90.5 c 128,-1,7
 227 72 227 72 259 66 c 1,8,-1
 259 617 l 1,9,-1
 338 646 l 1,10,-1
 338 73 l 1,11,12
 379 91 379 91 404.5 135 c 128,-1,13
 430 179 430 179 430 236 c 2,14,-1
 430 529 l 1,15,-1
 509 529 l 1,16,-1
 509 238 l 2,17,18
 509 143 509 143 455 74 c 0,19,20
 400 4 400 4 338 -9 c 1,21,-1
 338 -189 l 1,22,-1
 259 -189 l 1,23,-1
 259 -12 l 1,24,25
 210 -5 210 -5 169 23 c 128,-1,26
 128 51 128 51 108 95 c 0,27,28
 87 140 87 140 87 234 c 2,29,-1
 88 529 l 1,0,-1
EndSplineSet
Validated: 1
EndChar

StartChar: omega
Encoding: 969 969 323
Width: 600
Flags: W
LayerCount: 2
Fore
SplineSet
189 74 m 0,0,1
 260 74 260 74 262 245 c 1,2,-1
 262 363 l 1,3,-1
 339 363 l 1,4,-1
 340 245 l 1,5,6
 340 74 340 74 411 74 c 0,7,8
 431 74 431 74 444 91 c 128,-1,9
 457 108 457 108 468 144 c 0,10,11
 477 171 477 171 477 266 c 0,12,13
 477 388 477 388 451 540 c 1,14,-1
 531 540 l 1,15,16
 561 370 561 370 561 276 c 0,17,18
 561 150 561 150 525 67 c 0,19,20
 511 35 511 35 478 16.5 c 128,-1,21
 445 -2 445 -2 412 -2 c 2,22,-1
 410 -2 l 2,23,24
 388 -2 388 -2 356 12 c 128,-1,25
 324 26 324 26 300 51 c 1,26,27
 277 27 277 27 245 12.5 c 128,-1,28
 213 -2 213 -2 190 -2 c 2,29,-1
 188 -2 l 2,30,31
 155 -2 155 -2 122 16.5 c 128,-1,32
 89 35 89 35 75 67 c 0,33,34
 39 150 39 150 39 276 c 0,35,36
 39 370 39 370 69 540 c 1,37,-1
 150 540 l 1,38,39
 123 387 123 387 123 264 c 0,40,41
 123 171 123 171 132 144 c 0,42,43
 154 74 154 74 189 74 c 0,0,1
EndSplineSet
Validated: 1
EndChar

StartChar: Gamma
Encoding: 915 915 352
Width: 600
Flags: W
LayerCount: 2
Fore
SplineSet
155 414 m 13,0,-1
 155 340 l 1,1,-1
 155 72 l 1,2,-1
 156 0 l 1,3,-1
 78 0 l 1,4,-1
 78 723 l 1,5,-1
 521 723 l 1,6,-1
 521 651 l 1,7,-1
 155 651 l 1,8,-1
 155 414 l 13,0,-1
EndSplineSet
Validated: 1
EndChar

StartChar: Delta
Encoding: 916 916 353
Width: 600
Flags: W
LayerCount: 2
Fore
SplineSet
27 0 m 21,0,-1
 282 735 l 1,1,-1
 291 735 l 1,2,-1
 570 0 l 1,3,-1
 27 0 l 21,0,-1
133 79 m 5,4,-1
 456 79 l 1,5,-1
 286 549 l 1,6,-1
 133 79 l 5,4,-1
EndSplineSet
Validated: 1
EndChar

StartChar: Theta
Encoding: 920 920 357
Width: 600
Flags: W
LayerCount: 2
Fore
SplineSet
301 656 m 0,0,1
 263 656 263 656 233.5 645 c 128,-1,2
 204 634 204 634 185.5 613 c 128,-1,3
 167 592 167 592 155 567.5 c 128,-1,4
 143 543 143 543 137 508 c 128,-1,5
 131 473 131 473 129 442.5 c 128,-1,6
 127 412 127 412 127 372 c 0,7,8
 127 231 127 231 174.5 152.5 c 128,-1,9
 222 74 222 74 307 74 c 0,10,11
 476 74 476 74 476 373 c 0,12,13
 476 431 476 431 469.5 476 c 128,-1,14
 463 521 463 521 445.5 564.5 c 128,-1,15
 428 608 428 608 391.5 632 c 128,-1,16
 355 656 355 656 301 656 c 0,0,1
303 0 m 0,17,18
 241 0 241 0 193.5 24 c 128,-1,19
 146 48 146 48 118.5 85.5 c 128,-1,20
 91 123 91 123 73.5 174.5 c 128,-1,21
 56 226 56 226 50 273 c 128,-1,22
 44 320 44 320 44 372 c 0,23,24
 44 434 44 434 52 486 c 128,-1,25
 60 538 60 538 79 584.5 c 128,-1,26
 98 631 98 631 127.5 663 c 128,-1,27
 157 695 157 695 201.5 713.5 c 128,-1,28
 246 732 246 732 302 732 c 0,29,30
 428 732 428 732 492 637.5 c 128,-1,31
 556 543 556 543 556 373 c 0,32,33
 556 0 556 0 303 0 c 0,17,18
434 412 m 1025,34,-1
172 411 m 1025,35,-1
434 332 m 1,36,-1
 172 332 l 1,37,-1
 172 411 l 1,38,39
 370 412 370 412 434 412 c 1,40,-1
 434 332 l 1,36,-1
EndSplineSet
Validated: 1
EndChar

StartChar: Lambda
Encoding: 923 923 360
Width: 600
Flags: W
LayerCount: 2
Fore
SplineSet
406 211 m 1,0,-1
 286 549 l 1,1,-1
 177 211 l 1,2,-1
 107 -1 l 1,3,-1
 27 -1 l 1,4,-1
 282 735 l 1,5,-1
 291 735 l 1,6,-1
 570 0 l 1,7,-1
 486 0 l 1,8,-1
 406 211 l 1,0,-1
EndSplineSet
Validated: 1
EndChar

StartChar: Xi
Encoding: 926 926 363
Width: 600
Flags: W
LayerCount: 2
Fore
SplineSet
338 74 m 22,0,-1
 487 74 l 1,1,-1
 487 -1 l 1,2,-1
 112 -1 l 1,3,-1
 112 75 l 1,4,-1
 257 75 l 1,5,6
 306 74 306 74 338 74 c 22,0,-1
338 647 m 13,7,-1
 257 647 l 1,8,-1
 112 647 l 1,9,-1
 112 722 l 1,10,-1
 487 722 l 1,11,-1
 487 647 l 1,12,-1
 338 647 l 13,7,-1
147 415 m 5,13,-1
 454 415 l 1,14,-1
 454 340 l 1,15,-1
 147 340 l 1,16,-1
 147 415 l 5,13,-1
EndSplineSet
Validated: 1
EndChar

StartChar: Pi
Encoding: 928 928 365
Width: 600
Flags: W
LayerCount: 2
Fore
SplineSet
155 414 m 1,0,-1
 155 340 l 1,1,-1
 155 72 l 1,2,-1
 156 0 l 1,3,-1
 78 0 l 1,4,-1
 78 723 l 1,5,-1
 444 723 l 1,6,-1
 521 723 l 1,7,-1
 521 651 l 1,8,-1
 521 0 l 1,9,-1
 444 0 l 1,10,-1
 444 651 l 1,11,-1
 155 651 l 1,12,-1
 155 414 l 1,0,-1
EndSplineSet
Validated: 1
EndChar

StartChar: Sigma
Encoding: 931 931 368
Width: 600
Flags: W
LayerCount: 2
Fore
SplineSet
255 354 m 1,0,-1
 87 665 l 1,1,-1
 86 722 l 1,2,-1
 532 722 l 1,3,-1
 532 649 l 1,4,-1
 182 649 l 1,5,-1
 337 353 l 1,6,-1
 170 51 l 1,7,-1
 511 51 l 2,8,9
 518 51 518 51 527.5 54.5 c 128,-1,10
 537 58 537 58 542 58 c 2,11,-1
 546 58 l 1,12,-1
 546 -21 l 1,13,-1
 68 -21 l 1,14,-1
 68 27 l 1,15,-1
 255 354 l 1,0,-1
338 354 m 1025,16,-1
EndSplineSet
Validated: 1
EndChar

StartChar: Phi
Encoding: 934 934 371
Width: 600
Flags: W
LayerCount: 2
Fore
SplineSet
302 720 m 0,0,1
 412 720 412 720 501 625.5 c 128,-1,2
 590 531 590 531 590 391 c 0,3,4
 590 322 590 322 566 265 c 128,-1,5
 542 208 542 208 503 171.5 c 128,-1,6
 464 135 464 135 423 113 c 128,-1,7
 382 91 382 91 339 81 c 1,8,-1
 339 0 l 1,9,-1
 264 0 l 1,10,-1
 264 80 l 1,11,12
 220 89 220 89 177 113 c 128,-1,13
 134 137 134 137 95.5 174.5 c 128,-1,14
 57 212 57 212 33.5 267.5 c 128,-1,15
 10 323 10 323 10 388 c 0,16,17
 10 532 10 532 97 626 c 128,-1,18
 184 720 184 720 302 720 c 0,0,1
260 157 m 1,19,-1
 260 649 l 1,20,21
 198 629 198 629 143 558 c 128,-1,22
 88 487 88 487 88 390 c 0,23,24
 88 340 88 340 104.5 298.5 c 128,-1,25
 121 257 121 257 148 229.5 c 128,-1,26
 175 202 175 202 202.5 185 c 128,-1,27
 230 168 230 168 260 157 c 1,19,-1
343 648 m 1,28,-1
 343 157 l 1,29,30
 371 168 371 168 397.5 185.5 c 128,-1,31
 424 203 424 203 452 230.5 c 128,-1,32
 480 258 480 258 497 300 c 128,-1,33
 514 342 514 342 514 392 c 0,34,35
 514 445 514 445 497 490.5 c 128,-1,36
 480 536 480 536 452 566.5 c 128,-1,37
 424 597 424 597 397 616.5 c 128,-1,38
 370 636 370 636 343 648 c 1,28,-1
EndSplineSet
Validated: 1
EndChar

StartChar: Chi
Encoding: 935 935 372
Width: 600
Flags: W
LayerCount: 2
Fore
SplineSet
427 722 m 1,0,-1
 508 722 l 1,1,-1
 339 371 l 1,2,-1
 531 1 l 1,3,-1
 440 1 l 1,4,-1
 296 281 l 1,5,-1
 159 1 l 1,6,-1
 72 1 l 1,7,-1
 254 367 l 1,8,-1
 73 722 l 1,9,-1
 159 722 l 1,10,-1
 296 455 l 1,11,-1
 427 722 l 1,0,-1
EndSplineSet
Validated: 1
EndChar

StartChar: Psi
Encoding: 936 936 373
Width: 600
Flags: W
LayerCount: 2
Fore
SplineSet
263 688 m 1,0,-1
 343 688 l 1,1,-1
 343 283 l 1,2,3
 374 290 374 290 396.5 310 c 128,-1,4
 419 330 419 330 429 357 c 128,-1,5
 439 384 439 384 443 408 c 128,-1,6
 447 432 447 432 447 456 c 2,7,-1
 447 723 l 1,8,-1
 529 723 l 1,9,-1
 529 458 l 2,10,11
 529 366 529 366 494 310 c 0,12,13
 447 234 447 234 343 215 c 1,14,-1
 343 0 l 1,15,-1
 263 0 l 1,16,-1
 263 213 l 1,17,18
 160 228 160 228 106 310 c 0,19,20
 72 362 72 362 72 454 c 2,21,-1
 73 723 l 1,22,-1
 154 723 l 1,23,-1
 154 456 l 2,24,25
 154 434 154 434 159 409 c 128,-1,26
 164 384 164 384 175 356.5 c 128,-1,27
 186 329 186 329 209 308 c 128,-1,28
 232 287 232 287 263 281 c 1,29,-1
 263 688 l 1,0,-1
EndSplineSet
Validated: 1
EndChar

StartChar: Omega
Encoding: 937 937 374
Width: 600
Flags: W
LayerCount: 2
Fore
SplineSet
176 75 m 1,0,1
 133 117 133 117 99 195 c 128,-1,2
 65 273 65 273 65 329 c 0,3,4
 65 403 65 403 72 461.5 c 128,-1,5
 79 520 79 520 90.5 561 c 128,-1,6
 102 602 102 602 120 632 c 128,-1,7
 138 662 138 662 157.5 679 c 128,-1,8
 177 696 177 696 202 706.5 c 128,-1,9
 227 717 227 717 250 720 c 128,-1,10
 273 723 273 723 301 723 c 0,11,12
 340 723 340 723 369.5 716 c 128,-1,13
 399 709 399 709 431.5 684.5 c 128,-1,14
 464 660 464 660 485 619 c 128,-1,15
 506 578 506 578 520 504.5 c 128,-1,16
 534 431 534 431 534 331 c 0,17,18
 534 265 534 265 506 192.5 c 128,-1,19
 478 120 478 120 436 75 c 1,20,-1
 535 75 l 1,21,-1
 535 0 l 1,22,-1
 353 0 l 1,23,-1
 353 74 l 1,24,25
 380 99 380 99 417.5 184.5 c 128,-1,26
 455 270 455 270 455 331 c 0,27,28
 455 501 455 501 421 577.5 c 128,-1,29
 387 654 387 654 301 654 c 0,30,31
 214 654 214 654 179 578 c 128,-1,32
 144 502 144 502 144 332 c 0,33,34
 144 271 144 271 184.5 185.5 c 128,-1,35
 225 100 225 100 253 75 c 1,36,-1
 253 0 l 1,37,-1
 65 0 l 1,38,-1
 65 75 l 1,39,-1
 176 75 l 1,0,1
EndSplineSet
Validated: 1
EndChar

StartChar: logicaland
Encoding: 8743 8743 382
Width: 600
Flags: W
LayerCount: 2
Fore
SplineSet
259 510 m 1,0,-1
 316 510 l 1,1,-1
 570 0 l 1,2,-1
 486 0 l 1,3,-1
 286 392 l 1,4,-1
 107 -1 l 1,5,-1
 27 -1 l 1,6,-1
 259 510 l 1,0,-1
EndSplineSet
Validated: 1
EndChar

StartChar: logicalor
Encoding: 8744 8744 383
Width: 600
Flags: W
LayerCount: 2
Fore
SplineSet
259.133 -1 m 5,0,-1
 27 510.5 l 5,1,-1
 107 510.5 l 5,2,-1
 286 118 l 5,3,-1
 486 509.5 l 5,4,-1
 570 509.5 l 5,5,-1
 316 -1 l 5,6,-1
 259.133 -1 l 5,0,-1
EndSplineSet
Validated: 1
EndChar

StartChar: union
Encoding: 8746 8746 384
Width: 600
Flags: W
HStem: -13 69<223.067 383.44> 509.5 20G<68 148.5 459 536>
VStem: 68 80<133.253 529.5> 459 77<135.949 529.5>
LayerCount: 2
Fore
SplineSet
148 248 m 1,0,1
 147.81 241.619 147.81 241.619 147.81 235.492 c 0,2,3
 147.81 177.286 147.81 177.286 165 142 c 0,4,5
 185 101 185 101 222 78 c 0,6,7
 259 56 259 56 303 56 c 256,8,9
 347 56 347 56 384 78 c 128,-1,10
 421 100 421 100 440 141 c 1,11,12
 459 179 459 179 459 251 c 2,13,-1
 459 530 l 1,14,-1
 536 530 l 1,15,-1
 536 253 l 2,16,17
 536 204 536 204 531 169 c 128,-1,18
 526 134 526 134 507 100 c 0,19,20
 477 45 477 45 422 16 c 128,-1,21
 367 -13 367 -13 301 -13 c 0,22,23
 236 -13 236 -13 180 16 c 128,-1,24
 124 45 124 45 96 99 c 0,25,26
 78 134 78 134 73 167 c 0,27,28
 68 202 68 202 68 249 c 2,29,-1
 68 530 l 1,30,-1
 148 530 l 1,31,-1
 148 248 l 1,0,1
EndSplineSet
Validated: 1
EndChar

StartChar: intersection
Encoding: 8745 8745 385
Width: 600
Flags: W
HStem: 460.5 69<223.067 383.44>
VStem: 68 80.5<267.5 384.461> 459 77<263.5 380.551>
LayerCount: 2
Fore
SplineSet
148 268 m 1,0,1
 148 -13 l 1,2,-1
 68 -13 l 1,3,-1
 68 268 l 2,4,5
 68 314 68 314 73 349.5 c 128,-1,6
 78 385 78 385 96 418 c 0,7,8
 125 471 125 471 180 500 c 128,-1,9
 235 529 235 529 301 530 c 0,10,11
 302.969 530.031 302.969 530.031 304.933 530.031 c 0,12,13
 365.812 530.031 365.812 530.031 422 500 c 128,-1,14
 478 470 478 470 507 416 c 0,15,16
 526 380 526 380 531 348 c 0,17,18
 536 314 536 314 536 264 c 2,19,-1
 536 -13 l 1,20,-1
 459 -13 l 1,21,-1
 459 266 l 2,22,23
 459 338 459 338 440 376 c 1,24,25
 421 417 421 417 384 438 c 0,26,27
 345.667 460.042 345.667 460.042 306.415 460.042 c 0,28,29
 304.708 460.042 304.708 460.042 303 460 c 256,30,31
 258 459 258 459 222 438 c 0,32,33
 184 416 184 416 165 374 c 0,34,35
 147.81 336 147.81 336 147.81 279.991 c 0,36,37
 147.81 274.095 147.81 274.095 148 268 c 1,0,1
EndSplineSet
Validated: 1
EndChar

StartChar: notequal
Encoding: 8800 8800 386
Width: 600
Flags: W
LayerCount: 2
Fore
SplineSet
277 277 m 1,0,-1
 538 277 l 1,1,-1
 538 206 l 1,2,-1
 215 206 l 1,3,-1
 114 90 l 1,4,-1
 61 137 l 1,5,-1
 121 206 l 1,6,-1
 62 206 l 1,7,-1
 62 277 l 1,8,-1
 183 277 l 1,9,-1
 311 424 l 1,10,-1
 62 424 l 1,11,-1
 62 495 l 1,12,-1
 373 495 l 1,13,-1
 486 624 l 1,14,-1
 539 577 l 1,15,-1
 468 495 l 1,16,-1
 538 495 l 1,17,-1
 538 424 l 1,18,-1
 406 424 l 1,19,-1
 277 277 l 1,0,-1
EndSplineSet
Validated: 1
EndChar

StartChar: equivalence
Encoding: 8801 8801 387
Width: 600
Flags: W
HStem: 174 71<62 538> 315 71<62 538> 453 71<62 538>
LayerCount: 2
Fore
SplineSet
62 524 m 1,0,-1
 538 524 l 1,1,-1
 538 453 l 1,2,-1
 62 453 l 1,3,-1
 62 524 l 1,0,-1
62 245 m 1,4,-1
 538 245 l 1,5,-1
 538 174 l 1,6,-1
 62 174 l 1,7,-1
 62 245 l 1,4,-1
62 386 m 1,8,-1
 538 386 l 1,9,-1
 538 315 l 1,10,-1
 62 315 l 1,11,-1
 62 386 l 1,8,-1
EndSplineSet
Validated: 1
EndChar

StartChar: approxequal
Encoding: 8776 8776 388
Width: 600
Flags: W
LayerCount: 2
Fore
SplineSet
116 288 m 1,0,-1
 58 326 l 1,1,2
 85 372 85 372 127.5 401 c 128,-1,3
 170 430 170 430 217 430 c 0,4,5
 249 430 249 430 278 416.5 c 128,-1,6
 307 403 307 403 324.5 386.5 c 128,-1,7
 342 370 342 370 365 356.5 c 128,-1,8
 388 343 388 343 409 343 c 0,9,10
 436 343 436 343 458 361.5 c 128,-1,11
 480 380 480 380 508 418 c 1,12,-1
 561 374 l 1,13,14
 533 331 533 331 491.5 299 c 128,-1,15
 450 267 450 267 401 267 c 0,16,17
 369 267 369 267 341.5 281.5 c 128,-1,18
 314 296 314 296 297.5 313.5 c 128,-1,19
 281 331 281 331 258.5 345.5 c 128,-1,20
 236 360 236 360 212 360 c 0,21,22
 160 360 160 360 116 288 c 1,0,-1
116 468 m 1,23,-1
 58 506 l 1,24,25
 85 552 85 552 127.5 581 c 128,-1,26
 170 610 170 610 217 610 c 0,27,28
 249 610 249 610 278 596.5 c 128,-1,29
 307 583 307 583 324.5 566.5 c 128,-1,30
 342 550 342 550 365 536.5 c 128,-1,31
 388 523 388 523 409 523 c 0,32,33
 436 523 436 523 458 541.5 c 128,-1,34
 480 560 480 560 508 598 c 1,35,-1
 561 554 l 1,36,37
 533 511 533 511 491.5 479 c 128,-1,38
 450 447 450 447 401 447 c 0,39,40
 369 447 369 447 341.5 461.5 c 128,-1,41
 314 476 314 476 297.5 493.5 c 128,-1,42
 281 511 281 511 258.5 525.5 c 128,-1,43
 236 540 236 540 212 540 c 0,44,45
 160 540 160 540 116 468 c 1,23,-1
EndSplineSet
Validated: 1
EndChar

StartChar: uni2206
Encoding: 8710 8710 389
Width: 600
Flags: W
LayerCount: 2
Fore
SplineSet
259 510 m 5,0,-1
 316 510 l 5,1,-1
 570 0 l 5,2,-1
 486 0 l 5,3,-1
 107.455 -6.43929e-15 l 5,4,-1
 107 -1 l 5,5,-1
 27 -1 l 5,6,-1
 259 510 l 5,0,-1
446.714 77 m 5,7,-1
 286 392 l 5,8,-1
 142.527 77 l 5,9,-1
 446.714 77 l 5,7,-1
EndSplineSet
EndChar

StartChar: gradient
Encoding: 8711 8711 390
Width: 600
Flags: W
LayerCount: 2
Fore
SplineSet
259 -1 m 5,0,-1
 316 -1 l 5,1,-1
 570 509 l 5,2,-1
 486 509 l 5,3,-1
 107.455 509 l 5,4,-1
 107 510 l 5,5,-1
 27 510 l 5,6,-1
 259 -1 l 5,0,-1
446.714 432 m 5,7,-1
 286 117 l 5,8,-1
 142.526 432 l 5,9,-1
 446.714 432 l 5,7,-1
EndSplineSet
EndChar

StartChar: arrowleft
Encoding: 8592 8592 391
Width: 600
Flags: W
LayerCount: 2
Fore
SplineSet
240 327 m 1,0,-1
 353 248 l 1,1,-1
 314 190 l 1,2,-1
 92 347 l 1,3,-1
 92 372 l 1,4,-1
 312 535 l 1,5,-1
 353 485 l 1,6,-1
 240 404 l 1,7,-1
 519 403 l 1,8,-1
 519 326 l 1,9,-1
 240 327 l 1,0,-1
EndSplineSet
EndChar

StartChar: uni22C0
Encoding: 8896 8896 392
Width: 600
Flags: W
LayerCount: 2
Fore
SplineSet
27 -1 m 5,0,-1
 282 735 l 5,1,-1
 291 735 l 5,2,-1
 570 0 l 5,3,-1
 486 0 l 5,4,-1
 286 549 l 5,5,-1
 177 211 l 5,6,-1
 107 -1 l 5,7,-1
 27 -1 l 5,0,-1
286 549 m 1029,8,-1
EndSplineSet
EndChar

StartChar: uni22C1
Encoding: 8897 8897 393
Width: 600
Flags: W
LayerCount: 2
Fore
SplineSet
27 735 m 5,0,-1
 282 -1 l 5,1,-1
 291 -1 l 5,2,-1
 570 734 l 5,3,-1
 486 734 l 5,4,-1
 286 185 l 5,5,-1
 177 523 l 5,6,-1
 107 735 l 5,7,-1
 27 735 l 5,0,-1
286 185 m 1029,8,-1
EndSplineSet
EndChar

StartChar: emptyset
Encoding: 8709 8709 394
Width: 600
Flags: W
LayerCount: 2
Fore
SplineSet
79 318 m 128,-1,1
 79 215 79 215 146.5 143.5 c 0,2,3
 146.706 143.282 146.706 143.282 146.912 143.065 c 2,4,-1
 422.813 532.431 l 1,5,6
 371.442 565 371.442 565 308 565 c 0,7,8
 214 565 214 565 146.5 493 c 128,-1,0
 79 421 79 421 79 318 c 128,-1,1
485.75 621.25 m 1,9,-1
 524.5 594.75 l 1,10,-1
 488.816 543.305 l 1,11,12
 496.8 536.027 496.8 536.027 504.5 528 c 0,13,14
 587 442 587 442 587 318 c 0,15,16
 587 195 587 195 504.5 108.5 c 128,-1,17
 422 22 422 22 306.5 22 c 0,18,19
 223.711 22 223.711 22 157.877 66.1851 c 1,20,-1
 127.75 22.75 l 1,21,-1
 85.75 56.75 l 1,22,-1
 116.413 100.023 l 1,23,24
 112.419 103.914 112.419 103.914 108.5 108 c 0,25,26
 26 194 26 194 26 317 c 0,27,28
 26 441 26 441 108.5 527.5 c 128,-1,29
 191 614 191 614 307 614 c 0,30,31
 386.936 614 386.936 614 451.17 572.448 c 1,32,-1
 485.75 621.25 l 1,9,-1
187.22 108.489 m 1,33,34
 240.848 72 240.848 72 308 72 c 0,35,36
 402 72 402 72 469.5 143.5 c 128,-1,37
 537 215 537 215 537 319 c 0,38,39
 537 422 537 422 469.5 493.5 c 0,40,41
 465.082 498.18 465.082 498.18 460.551 502.553 c 1,42,-1
 187.22 108.489 l 1,33,34
EndSplineSet
EndChar

StartChar: element
Encoding: 8712 8712 395
Width: 600
Flags: W
LayerCount: 2
Fore
SplineSet
308 72 m 1,0,1
 214 72 214 72 146.5 143.5 c 0,2,3
 86.8796 206.653 86.8796 206.653 79.9198 294.382 c 1,4,-1
 543 303 l 1,5,-1
 543 351 l 1,6,-1
 80.0346 343.028 l 1,7,8
 87.3567 429.914 87.3567 429.914 146.5 493 c 0,9,10
 214 565 214 565 308 565 c 1,11,-1
 543 569 l 1,12,-1
 543 617 l 1,13,14
 416.777 618.994 416.777 618.994 306.65 613.651 c 0,15,16
 185.116 607.847 185.116 607.847 108.327 527.327 c 0,17,18
 26 441 26 441 26 317 c 0,19,20
 26 194 26 194 108.5 108 c 0,21,22
 190.648 22.3674 190.648 22.3674 306.5 22 c 2,23,-1
 543 21.25 l 1,24,-1
 543 75.25 l 1,25,-1
 308 72 l 1,0,1
EndSplineSet
EndChar

StartChar: uni230A
Encoding: 8970 8970 396
Width: 600
Flags: W
LayerCount: 2
Fore
SplineSet
236 776 m 5,0,-1
 162 776 l 5,1,-1
 162 -103 l 1,2,-1
 494 -103 l 1,3,-1
 494 -37 l 1,4,-1
 236 -37 l 1,5,-1
 236 776 l 5,0,-1
EndSplineSet
EndChar

StartChar: uni2308
Encoding: 8968 8968 397
Width: 600
Flags: W
LayerCount: 2
Fore
SplineSet
237 -103 m 5,0,-1
 162 -103 l 1,1,-1
 162 776 l 1,2,-1
 493 776 l 1,3,-1
 493 707 l 1,4,-1
 236 707 l 1,5,-1
 237 -103 l 5,0,-1
EndSplineSet
EndChar

StartChar: uni2309
Encoding: 8969 8969 398
Width: 600
Flags: W
LayerCount: 2
Fore
SplineSet
366 -103 m 5,0,-1
 438 -103 l 1,1,-1
 438 776 l 1,2,-1
 107 776 l 1,3,-1
 107 707 l 1,4,-1
 364 707 l 1,5,-1
 366 -103 l 5,0,-1
EndSplineSet
EndChar

StartChar: uni230B
Encoding: 8971 8971 399
Width: 600
Flags: W
LayerCount: 2
Fore
SplineSet
365 776 m 5,0,-1
 438 776 l 1,1,-1
 438 -103 l 1,2,-1
 106 -103 l 1,3,-1
 106 -37 l 1,4,-1
 364 -37 l 1,5,-1
 365 776 l 5,0,-1
EndSplineSet
EndChar

StartChar: uni2713
Encoding: 10003 10003 400
Width: 600
VWidth: 996
Flags: WO
LayerCount: 2
Fore
SplineSet
109.186523438 371.004882812 m 4,0,1
 128 368 128 368 134.30859375 343.75390625 c 4,2,3
 173 210 173 210 185.887695312 209.489257812 c 0,4,5
 192 209 192 209 197.384765625 218.004882812 c 0,6,7
 311 400 311 400 418.795898438 527.98046875 c 0,8,9
 443 557 443 557 502.676757812 558.637695312 c 0,10,11
 516 559 516 559 520.983398438 556.083007812 c 0,12,13
 526 554 526 554 525.668945312 549.693359375 c 0,14,15
 526 544 526 544 511.620117188 526.27734375 c 0,16,17
 359 344 359 344 206.751953125 109.001953125 c 0,18,19
 197 94 197 94 166.727539062 93.673828125 c 0,20,21
 136 94 136 94 130.53515625 96.228515625 c 0,22,23
 114 106 114 106 96.4716796875 161.375 c 0,24,25
 47 325 47 325 47.021484375 326.296875 c 4,26,27
 68 358 68 358 76.8271484375 360.78515625 c 12,28,29
 109 371 109 371 109.186523438 371.004882812 c 4,0,1
EndSplineSet
EndChar
